<?xml version="1.0" encoding="UTF-8"?>
<svg width="105px" height="48px" viewBox="0 0 105 48" version="1.1" xmlns="http://www.w3.org/2000/svg" xmlns:xlink="http://www.w3.org/1999/xlink">
    <!-- Generator: Sketch 53.2 (72643) - https://sketchapp.com -->
    <title>Group 15</title>
    <desc>Created with Sketch.</desc>
    <g id="Page-1" stroke="none" stroke-width="1" fill="none" fill-rule="evenodd">
        <g id="03-Navigation-Copy-2" transform="translate(-309.000000, -470.000000)">
            <g id="Group-15" transform="translate(309.000000, 470.000000)">
                <g id="Group" transform="translate(48.500000, 23.500000) scale(-1, 1) rotate(-180.000000) translate(-48.500000, -23.500000) translate(29.000000, 13.000000)" fill="#4B4B4B" fill-rule="nonzero">
                    <g id="Shape-2">
                        <path d="M30.7691078,20.5347533 L27.9684074,8.79281031 L25.1597899,20.5347533 L17.0476553,20.5347533 L17.0476553,16.198843 C16.0619671,19.993147 12.4457978,20.9447829 9.2146011,20.9988415 C5.2748173,21.0518802 0.909485384,19.2924247 0.758069428,13.9232805 L6.20706456,13.9232805 C6.20706456,15.5440195 7.64700061,16.472196 9.00677527,16.4487366 C10.6763094,16.4630163 11.4442753,15.7286348 11.4828715,14.5852438 C11.425472,13.5928089 10.8574147,12.9022864 9.02063033,12.9022864 L7.18780451,12.9022864 L7.18780451,9.00598492 L8.85140073,9.00598492 C9.7965134,9.00598492 11.111754,8.47559834 11.1632156,7.08843343 C11.226553,5.43505526 10.1112211,4.70883363 8.738581,4.69455399 C6.28821559,4.78839162 5.6558313,6.72838254 5.6558313,8.39706032 L0,8.39706032 C0.0237515225,7.27304876 -0.0118757613,-0.053425897 8.85239038,0.000632735436 C13.0989647,-0.0391462582 16.1896315,1.80088719 17.0615104,4.33756302 L17.0615104,0.449421382 L22.5164434,0.449421382 L22.5164434,13.1175009 L25.5328867,0.449421382 L30.4068971,0.449421382 L33.4342266,13.1032213 L33.4342266,0.438201666 L39,0.438201666 L39,20.5347533 L30.7691078,20.5347533 Z M17,9 C16.3748887,10.4774115 15.4951024,11.1235246 15,11.3280423 C16.0391808,11.8561254 16.5832591,12.5724461 17,14 L17,9 Z" id="Shape"></path>
                    </g>
                </g>
            </g>
        </g>
    </g>
</svg>