<?xml version="1.0" encoding="UTF-8"?>
<svg width="52px" height="34px" viewBox="0 0 52 34" version="1.1" xmlns="http://www.w3.org/2000/svg" xmlns:xlink="http://www.w3.org/1999/xlink">
    <!-- Generator: Sketch 53.2 (72643) - https://sketchapp.com -->
    <title>Group 36</title>
    <desc>Created with Sketch.</desc>
    <g id="Page-1" stroke="none" stroke-width="1" fill="none" fill-rule="evenodd">
        <g id="03-Navigation-Copy-2" transform="translate(-881.000000, -628.000000)">
            <g id="Group-36" transform="translate(855.000000, 621.000000)">
                <rect id="Rectangle-Copy-57" x="0" y="0" width="105" height="48"></rect>
                <g id="Group-53-Copy" transform="translate(25.000000, 6.000000)" fill-rule="nonzero">
                    <g id="Group-8" transform="translate(0.269922, 0.473273)">
                        <g id="abbott-seeklogo.com-02-copy-3" transform="translate(0.730078, 23.526727)" fill="#969696">
                            <path d="M7.80014521,0.206673468 L10.4424227,7.73153162 C10.7587975,8.64894266 10.9793257,8.86196141 11.53288,8.86196141 L12.0714075,8.86196141 L12.0714075,10.1856931 L6.30030955,10.1856931 L6.30030955,8.86196141 L6.77182571,8.86196141 C7.24699704,8.86196141 7.6450038,8.80126459 7.6450038,8.63579813 C7.6450038,8.4842494 7.62672798,8.31916954 7.56499632,8.09455268 L7.23318865,7.00935555 L4.0060849,7.00935555 L3.81764089,7.61129781 C3.64219301,8.13823892 3.58005522,8.36324238 3.58005522,8.57432811 C3.58005522,8.81750196 4.13279726,8.86273461 4.56166984,8.86273461 L5.01734696,8.86273461 L5.01734696,10.1860797 L0.370415038,10.1860797 L0.370415038,8.86196141 L0.906911898,8.86196141 C1.46006006,8.86196141 1.68058829,8.64894266 1.99939983,7.73153162 L4.63964667,0.206673468 L7.80014521,0.206673468 L7.80014521,0.206673468 Z M4.46094976,5.68639704 L6.75720506,5.68639704 L5.61841839,2.44781623 L5.58877094,2.44781623 L4.46094976,5.68639704 Z" id="path2386_1_"></path>
                            <path d="M12.986823,2.0577329 C12.986823,1.63517485 12.8763558,1.41055799 12.4174297,1.41055799 L11.6904582,1.41055799 L11.6904582,0.206286864 L15.6128553,0.206286864 L15.6128553,3.95363839 C16.1956509,3.32076782 16.940086,2.91522034 17.6504062,2.91522034 C20.0222016,2.91522034 20.9047207,4.67774748 20.9047207,6.66257186 C20.9047207,8.64855606 20.0217955,10.4079904 17.6504062,10.4079904 C16.6557955,10.4079904 15.7700274,10.0793771 15.2140363,9.25049832 L14.7579531,10.1856931 L12.9851985,10.1856931 L12.9851985,2.0577329 M15.6132615,6.66295847 C15.6132615,8.19816252 15.9751227,9.11711997 16.8608908,9.11711997 C17.7478773,9.11711997 18.1101447,8.19816252 18.1101447,6.66295847 C18.1101447,5.12775441 17.7482834,4.21150319 16.8608908,4.21150319 C15.9751227,4.21150319 15.6132615,5.12736781 15.6132615,6.66295847" id="path2388_1_"></path>
                            <path d="M21.857094,2.0577329 C21.857094,1.63517485 21.7454084,1.41055799 21.2893251,1.41055799 L20.5623536,1.41055799 L20.5623536,0.206286864 L24.4847508,0.206286864 L24.4847508,3.95363839 C25.0687648,3.32076782 25.8119815,2.91522034 26.5239262,2.91522034 C28.8940971,2.91522034 29.7798652,4.67774748 29.7798652,6.66257186 C29.7798652,8.64855606 28.8940971,10.4079904 26.5239262,10.4079904 C25.524848,10.4079904 24.642329,10.0793771 24.0859318,9.25049832 L23.628224,10.1856931 L21.8566878,10.1856931 L21.8566878,2.0577329 M24.4835324,6.66295847 C24.4835324,8.19816252 24.8482366,9.11711997 25.7311618,9.11711997 C26.6181482,9.11711997 26.981634,8.19816252 26.981634,6.66295847 C26.981634,5.12775441 26.6181482,4.21150319 25.7311618,4.21150319 C24.8482366,4.21150319 24.4835324,5.12736781 24.4835324,6.66295847" id="path2390_1_"></path>
                            <path d="M38.6988716,6.66295847 C38.6988716,9.07072751 36.9744464,10.408377 34.6188963,10.408377 C32.2617216,10.408377 30.5377025,9.07072751 30.5377025,6.66295847 C30.5377025,4.25441622 32.2621277,2.91560694 34.6188963,2.91560694 C36.9748526,2.91522034 38.6988716,4.25441622 38.6988716,6.66295847 M33.3375582,6.66295847 C33.3375582,8.43785694 33.6685536,9.20603887 34.6188963,9.20603887 C35.566396,9.20603887 35.8990159,8.43785694 35.8990159,6.66295847 C35.8990159,4.88690019 35.566396,4.11987806 34.6188963,4.11987806 C33.6685536,4.11987806 33.3375582,4.88651358 33.3375582,6.66295847" id="path2392_1_"></path>
                            <path d="M49.9734283,6.78435209 L49.9734283,7.95924132 C49.9734283,8.64855606 49.8162562,9.05758297 49.212748,9.05758297 C48.8492622,9.05758297 48.6770634,8.80049139 48.6770634,8.4842494 L48.6770634,4.34372172 L50.6207984,4.34372172 L50.6207984,3.14177022 L48.6770634,3.14177022 L48.6770634,0.34198483 L47.1102164,0.34198483 C46.983504,1.59110201 46.5733134,3.14177022 44.9930641,3.14177022 L42.5258284,3.14177022 L42.5258284,0.34198483 L40.9601998,0.34198483 C40.832269,1.59110201 40.4216723,3.14177022 38.841423,3.14177022 L38.841423,4.34372172 L39.9022329,4.34372172 L39.9022329,8.12316137 C39.9022329,9.65836542 40.8026216,10.4079904 42.4299819,10.4079904 C44.3294488,10.4079904 45.0856616,9.59766861 45.0856616,8.12316137 L45.0856616,6.78357888 L43.82463,6.78357888 L43.82463,7.95846811 C43.82463,8.64778285 43.6642089,9.05680977 43.0639498,9.05680977 C42.6992456,9.05680977 42.5254223,8.79971818 42.5254223,8.48347619 L42.5254223,4.34333511 L46.0534679,4.34333511 L46.0534679,8.12238816 C46.0534679,9.65759222 46.9526382,10.4072172 48.5812169,10.4072172 C50.4806838,10.4072172 51.2385212,9.5968954 51.2385212,8.12238816 L51.2385212,6.78280567 L49.9730221,6.78280567" id="path2394_1_"></path>
                        </g>
                        <path d="M15.7300779,0.526727315 L15.7300779,3.69032711 L35.5037033,3.69032711 L35.5037033,3.69245033 C36.0751829,3.69245033 36.5350846,4.14965066 36.5350846,4.71230431 L36.5350846,15.3411503 L36.5307931,15.3482277 C36.5257864,15.9115891 36.0644543,16.3631275 35.4972661,16.3631275 L19.9593135,16.3631275 C19.3899795,16.3631275 18.9257864,15.9073427 18.9257864,15.3411503 L18.9257864,11.0458736 C18.9257864,10.4825122 19.3892643,10.0260196 19.9593135,10.0260196 L33.3293626,10.0260196 L33.3293626,6.86383526 L18.9179187,6.86383526 C17.1562737,6.86383526 15.7300779,8.27365423 15.7300779,10.0154035 L15.7300779,16.3716204 C15.7300779,18.1126619 17.1569889,19.5267273 18.9179187,19.5267273 L36.542237,19.5267273 C38.3053126,19.5267273 39.7300779,18.1119542 39.7300779,16.3716204 L39.7300779,3.68112648 C39.7300779,1.93937724 38.3045973,0.526727315 36.5415218,0.526727315 L15.7300779,0.526727315 Z" id="path2384_1_-copy" fill="#00ADE0"></path>
                    </g>
                </g>
            </g>
        </g>
    </g>
</svg>