<?xml version="1.0" encoding="UTF-8"?>
<svg width="105px" height="49px" viewBox="0 0 105 49" version="1.1" xmlns="http://www.w3.org/2000/svg" xmlns:xlink="http://www.w3.org/1999/xlink">
    <!-- Generator: Sketch 53.2 (72643) - https://sketchapp.com -->
    <title>Group 8</title>
    <desc>Created with Sketch.</desc>
    <g id="Page-1" stroke="none" stroke-width="1" fill="none" fill-rule="evenodd">
        <g id="03-Navigation-Copy-2" transform="translate(-306.000000, -200.000000)">
            <g id="Group-8" transform="translate(306.000000, 200.500000)">
                <g id="Group-2">
                    <rect id="Rectangle-Copy-41" fill="#FFFFFF" x="0" y="0" width="105" height="48"></rect>
                    <g id="Arby's_logo" transform="translate(25.000000, 0.500000)" fill="#4B4B4B" fill-rule="nonzero">
                        <path d="M51.8900111,27.6783987 L51.8900111,24.7715862 C51.8900111,24.5056278 51.7445795,24.4569312 51.5171094,24.4569312 L50.1411022,24.4569312 C49.9882125,24.4569312 49.9658384,24.5505785 49.9658384,24.7341273 L49.9658384,25.1911261 C49.9658384,25.3372159 49.872613,25.3072488 49.7010782,25.1349377 C49.5295435,24.9626267 48.9552749,24.2883661 47.3965458,24.2883661 C45.7334043,24.2883661 45.1591357,24.846504 44.6818216,25.3671831 C44.2045074,25.8878621 43.5631165,27.1277525 44.1634882,28.3901182 C44.7638599,29.6524839 46.6059943,29.9109505 47.2548432,30.0495485 C48.0267497,30.2106219 49.1417257,30.6189242 48.8061142,31.2407423 C48.4705027,31.8625604 47.4189199,31.6902494 46.8073612,31.495463 C46.3834793,31.3438894 46.0424956,31.0203918 45.8676489,30.6039406 C45.7994427,30.4097904 45.6138243,30.282453 45.4089799,30.2892856 L43.8502508,30.2892856 C43.5705746,30.2892856 43.5071813,30.4353754 43.5071813,30.6339077 L43.5071813,33.4957695 C43.5071813,33.68681 43.5444714,33.825408 43.7570254,33.825408 L45.3306705,33.825408 C45.5394954,33.825408 45.5730566,33.7355066 45.5730566,33.5894168 C45.5730566,33.443327 45.5730566,33.2747618 45.5730566,33.1249261 C45.5730566,32.9750904 45.662553,32.9114103 45.8005266,33.0537542 C46.3442531,33.4411052 46.9694855,33.697457 47.6277449,33.8029327 C48.5189799,33.9415307 49.6898912,33.9602601 50.4580687,33.5294825 C51.2262461,33.0987049 51.8340759,32.5892635 51.9534044,31.5553972 C52.1920912,30.3943164 51.4919132,29.2466646 50.3536562,28.9332726 C49.0149391,28.4687819 47.7433444,28.1840941 47.2772173,27.9406111 C46.7551549,27.6409397 46.6619295,26.8168434 47.3965458,26.5995817 C47.9480931,26.4544374 48.5348017,26.5438581 49.0186682,26.8468105 C49.2934481,27.0375325 49.4844441,27.3273356 49.5519176,27.6559233 C49.5817497,27.839472 49.6041238,28.0305125 49.876342,28.0305125 L51.5171094,28.0305125 C51.7855986,28.0305125 51.8900111,27.9256275 51.8900111,27.6559233 L51.8900111,27.6783987 Z M44.4729966,23.2732292 C44.4729966,23.2732292 46.2144475,19.1827148 43.6190518,19.1827148 L41.3816417,19.1827148 C41.2686672,19.1725726 41.1572388,19.2146332 41.07887,19.2970013 C41.0005012,19.3793694 40.9637124,19.4930897 40.9789079,19.6060006 C40.9789079,19.6060006 40.9789079,21.3515865 40.9789079,21.5800859 C40.9789079,21.8085853 40.9192436,22.0445765 41.4114738,22.0445765 L43.1268215,22.0445765 C43.8236139,22.0482431 44.4064171,22.5772363 44.4804547,23.2732292 L44.4729966,23.2732292 Z M43.2051309,24.3969969 L38.6557304,24.3969969 C38.3984282,24.3969969 38.3723251,24.498136 38.3723251,24.7453649 L38.3723251,26.5433933 C38.3723251,26.7419256 38.4357184,26.831827 38.6669174,26.831827 L39.013716,26.831827 C39.1628767,26.831827 39.3455985,26.831827 39.2561021,27.0865477 C39.1666057,27.3412683 38.0367136,30.9785298 37.9584042,31.1733162 C37.8800949,31.3681026 37.4437999,31.3456273 37.3654905,31.1433491 C37.2871812,30.9410709 36.3400109,27.2438751 36.2878047,27.0603264 C36.2355984,26.8767777 36.2579725,26.86554 36.4332363,26.86554 C36.6085001,26.86554 36.9068215,26.9067448 36.9068215,26.6445324 L36.9068215,24.6891765 C36.9068215,24.464423 36.8844474,24.3932511 36.6234162,24.3932511 L32.5587878,24.3932511 C32.2194473,24.3932511 32.2530085,24.5767998 32.2530085,24.7678403 L32.2530085,26.5621227 C32.2530085,26.7906222 32.3350468,26.8543023 32.5364137,26.8543023 L32.9428766,26.8543023 C33.0957663,26.8543023 33.2262818,26.8243352 33.3157783,27.1015312 C33.4052747,27.3787273 35.2026608,32.5892635 35.4264018,33.2485406 C35.6501428,33.9078176 36.2728886,33.8403916 36.6644354,33.8403916 C37.0559821,33.8403916 37.1864977,33.8403916 37.1268335,34.0464157 C37.0671692,34.2524397 36.7912219,35.2638307 36.4481524,35.5447726 C36.0652962,35.803941 35.5799693,35.8571763 35.1504545,35.6871165 C34.8239023,35.5207235 34.5215366,35.3102522 34.2517615,35.0615525 C34.1697231,34.9978723 34.0578526,35.0053641 33.9571691,35.1402162 C33.8564857,35.2750684 33.1069533,36.2190332 32.8943994,36.5224505 C32.6818454,36.8258678 32.7303226,36.8483432 32.9242315,37.0318919 C33.7870991,37.8300241 34.929243,38.25286 36.1013538,38.2081021 C38.2082483,38.2081021 38.9801548,36.4662621 39.3418695,35.5035678 C39.7035841,34.5408735 42.2542316,27.4985958 42.347457,27.1727032 C42.4406825,26.8468105 42.5376369,26.8355729 42.7203587,26.8355729 L43.2573371,26.8355729 C43.458704,26.8355729 43.5109103,26.7456715 43.5109103,26.5209179 L43.5109103,24.6891765 C43.5109103,24.464423 43.443788,24.3932511 43.216318,24.3932511 L43.2051309,24.3969969 Z M38.1187519,21.748651 C38.1187519,14.6764063 37.0634402,9.30479662 35.1355385,5.28920001 C33.476126,1.92913457 31.257361,0 29.0124928,0 C26.4543873,0 25.6563777,2.11268329 25.6190875,3.22521332 C25.5780683,4.18790766 26.1187758,5.26297877 26.6408381,6.30433684 C27.047301,7.1097037 27.4276607,7.86637396 27.3866415,8.35333996 C27.3866415,8.49568387 27.2785,8.88525668 27.0137398,8.88525668 C26.7489796,8.88525668 26.0702985,7.76148897 25.6190875,7.04227764 C24.5749628,5.33789661 23.2698069,3.21397565 21.6290395,3.21397565 C21.0957901,3.21397565 19.2051785,3.50615525 17.1765934,7.24080993 C15.4761617,10.3648842 14.4693272,14.7737995 13.7981041,21.7261757 C13.7981041,21.8348066 13.8801425,22.0370848 14.0703224,22.0370848 L16.1324687,22.0370848 C16.3002174,22.0511769 16.4508297,21.9340462 16.4792672,21.7673805 C16.9491234,17.7555298 17.2250706,15.2495278 17.754591,13.0581808 C19.0522889,7.81393146 20.9093392,6.39049237 21.4164855,6.38674647 C22.0429604,6.38674647 22.6582481,7.41312098 23.3108261,8.49568387 L23.5793153,8.99014167 C24.4220731,10.3723759 25.4438237,11.8482575 27.0771331,11.8482575 C28.7104425,11.8482575 29.9633921,10.162606 30.0379725,8.65675725 C30.1088238,7.02354818 29.4003106,5.80613316 28.8857063,4.91086488 C28.5911139,4.39393174 28.3412698,3.95566233 28.3412698,3.64849916 C28.3344571,3.48108304 28.4013994,3.31915152 28.524268,3.20583183 C28.6471365,3.09251214 28.8134565,3.03930975 28.9789317,3.06039406 C29.9261019,3.06039406 31.5221212,4.04930964 32.8869413,6.84374534 C35.027397,11.2152017 35.4972531,17.1374575 35.4972531,21.7561428 C35.5219823,21.9274721 35.6718753,22.0521387 35.8440517,22.0445765 L37.8055145,22.0445765 C37.9672198,22.0407207 38.0979637,21.9110268 38.1038359,21.748651 L38.1187519,21.748651 Z M13.2573967,33.6006545 L13.2573967,31.7651672 C13.2399811,31.5715556 13.078018,31.4235022 12.884495,31.424291 L12.3587036,31.424291 C12.1324376,31.4255408 11.9349307,31.2705402 11.8813895,31.0497018 L8.17847576,21.0743904 C8.09867589,20.7898274 7.94561671,20.531421 7.73472275,20.3252119 C7.38046615,19.9805899 6.56754048,19.9843357 6.56754048,19.9843357 L3.35685699,19.9843357 C3.19500097,19.9840332 3.06094661,20.1104832 3.05107761,20.2727695 C3.05107761,20.4076216 3.05107761,21.9284539 3.05107761,22.0895272 C3.05107761,22.2506006 3.13311598,22.4154199 3.42397929,22.4154199 L4.22198889,22.4154199 C4.48302007,22.4154199 4.47556204,22.6064604 4.36369153,22.8124845 C4.25182103,23.0185086 1.17538214,31.1283655 1.13809197,31.2107751 C1.01876343,31.458004 0.858415706,31.424291 0.858415706,31.424291 L0.254314979,31.424291 C0.184744912,31.4208477 0.117062592,31.4476357 0.0685283609,31.4978235 C0.0199941302,31.5480113 -0.00470059477,31.6167477 0.000741833754,31.6865035 L0.000741833754,33.5332284 C-0.00229571403,33.6186097 0.0293601037,33.7015612 0.0884359599,33.7630238 C0.147511816,33.8244864 0.228928412,33.8591756 0.313979248,33.859121 L4.87829586,33.859121 C5.17288819,33.859121 5.1766172,33.7842032 5.1766172,33.5744332 L5.1766172,31.667774 C5.1766172,31.4542582 5.06101768,31.424291 4.86710881,31.424291 L4.05418314,31.424291 C3.80806802,31.424291 3.74094572,31.2632176 3.78569392,31.1171278 C3.78569392,31.0571936 4.06537019,30.3042692 4.15859561,30.0907533 C4.25182103,29.8772375 4.28165316,29.8659998 4.53149729,29.8659998 L8.09643739,29.8659998 C8.46933907,29.8659998 8.49171317,29.9783766 8.54391941,30.1132287 C8.59612564,30.2480808 8.79003452,30.7912352 8.83478272,30.9260873 C8.97275634,31.3006766 8.83478272,31.4317828 8.68189303,31.4317828 L7.85405129,31.4317828 C7.77607558,31.4252444 7.69906957,31.4527279 7.64268033,31.5072212 C7.58629109,31.5617146 7.55597214,31.6379477 7.55945896,31.7164706 L7.55945896,33.6381134 C7.55945896,33.7879491 7.63031028,33.859121 7.88388343,33.859121 L13.0299267,33.859121 C13.1629498,33.8491257 13.2638317,33.7344969 13.2573967,33.6006545 L13.2573967,33.6006545 Z M7.45877551,27.772046 L5.3966292,27.772046 C5.09084982,27.772046 5.12441097,27.5884972 5.1766172,27.4686287 C5.22882344,27.3487601 6.10887141,24.6704471 6.1722647,24.498136 C6.23565798,24.325825 6.40346374,24.2134482 6.5041472,24.4569312 C6.60483065,24.7004142 7.54827191,27.3075553 7.62285225,27.4536451 C7.69743258,27.5997349 7.67505848,27.7683001 7.46996256,27.7683001 L7.45877551,27.772046 Z M21.4537757,20.2765153 L21.4537757,22.2318712 C21.4537757,22.3667233 21.524627,22.4304035 21.7110779,22.4304035 L22.0839795,22.4304035 C22.3450107,22.4304035 22.3599268,22.5053213 22.3599268,22.7825173 L22.3599268,31.0459559 C22.3599268,31.4205451 22.3300947,31.4205451 22.0690635,31.4205451 L21.5097109,31.4205451 C21.2263057,31.4205451 21.1890155,31.5141924 21.1890155,31.7614213 L21.1890155,33.5294825 C21.1890155,33.791695 21.297157,33.8553752 21.5619172,33.8553752 L24.7092074,33.8553752 C24.9851546,33.8553752 25.0112578,33.7467443 25.0112578,33.5631956 L25.0112578,33.0013117 C25.0112578,32.817763 25.2349988,32.922648 25.3543273,33.0575001 C25.4736558,33.1923522 25.9285959,33.7804573 27.4686799,33.9153094 C28.7290875,34.0276862 30.1237398,33.68681 30.9478526,32.6192307 C31.5743274,31.7988802 32.0665576,31.0122429 32.0665576,28.9145431 C32.0665576,26.8168434 31.0932842,25.4945434 30.1088238,24.8914547 C29.1642865,24.3392605 28.0484176,24.1615702 26.9801786,24.3932511 C26.4176941,24.5592133 25.9000354,24.8512338 25.4661978,25.2473145 C25.3729724,25.3634372 25.1939796,25.4533386 25.1939796,25.2473145 L25.1939796,20.3027366 C25.1939796,20.0480159 25.0821091,19.976844 24.9254904,19.976844 L21.6887038,19.976844 C21.4500467,19.976844 21.4314016,20.0667454 21.4314016,20.2652777 L21.4537757,20.2765153 Z M25.3058501,29.1655179 C25.3058501,27.9031522 25.8614736,26.86554 27.1703585,26.86554 C28.4792434,26.86554 29.0348669,27.9368652 29.0348669,29.2404358 C29.0348669,30.5440063 28.2219413,31.3755944 27.1181523,31.3755944 C26.0143633,31.3755944 25.3170371,30.4278836 25.3170371,29.1655179 L25.3058501,29.1655179 Z M14.655778,31.1957916 C14.655778,31.1957916 14.6781521,31.424291 14.5289914,31.424291 L14.0106581,31.424291 C13.7831881,31.424291 13.7869171,31.5441596 13.7869171,31.6452987 L13.7869171,33.653097 C13.7869171,33.653097 13.7570849,33.859121 14.0479483,33.859121 L18.4742912,33.859121 C18.5515675,33.864094 18.627053,33.8343457 18.6803482,33.7779155 C18.7336434,33.7214852 18.7592466,33.6441984 18.7502385,33.5669414 L18.7502385,31.6602822 C18.7502385,31.458004 18.7502385,31.3980698 18.4854783,31.3980698 L18.0790155,31.3980698 C17.8888356,31.3980698 17.765778,31.3980698 17.765778,31.214521 L17.765778,29.6562298 C17.7432455,29.1008178 17.9607756,28.5627258 18.3624207,28.1803482 C18.841797,27.7213886 19.4571393,27.4320525 20.1150587,27.3562519 C20.5303853,27.3205192 20.9484641,27.3343506 21.3605503,27.3974567 C21.5395431,27.3974567 21.6439556,27.3262848 21.6439556,27.1839409 L21.6439556,24.5955292 C21.6439556,24.4456935 21.6029364,24.2958579 21.2710539,24.2621448 C20.3686942,24.2845501 19.4904831,24.5595844 18.7353224,25.056274 C18.1827119,25.4833776 17.7465746,26.0439019 17.4674567,26.6857372 C17.3966054,26.7868763 17.2735478,26.8280811 17.2735478,26.6520241 L17.2735478,24.7228896 C17.2735478,24.5281032 17.2101545,24.3857593 16.9826845,24.3857593 L14.0479483,24.3857593 C13.8652264,24.3857593 13.7831881,24.3857593 13.7831881,24.6367341 L13.7831881,26.6145652 C13.7811252,26.6691616 13.8015517,26.7221988 13.8396565,26.7611849 C13.8777612,26.8001709 13.9301759,26.8216595 13.984555,26.8205893 L14.4022049,26.8205893 C14.5849267,26.8205893 14.655778,26.8730318 14.655778,27.0865477 L14.655778,31.1957916 Z M8.4767971,40.1859332 C8.44449819,41.2453106 8.86046952,42.2688483 9.62160527,43.0028443 C10.8484518,44.2914313 13.097049,45.344027 16.1212816,46.0520007 C19.0097165,46.6931226 21.9599463,47.0109632 24.9180323,46.9997114 L25.0299028,46.9997114 C28.7589197,46.9997114 34.1100588,46.5801715 38.5587759,44.7147171 C41.7284402,43.3849253 43.4326009,41.7404786 43.6638,39.845057 C43.8316057,38.489044 43.4736201,37.2828667 41.8216657,36.4737539 C41.7327903,36.4693394 41.6490599,36.5157445 41.6053827,36.5936225 C41.2760729,37.1894407 40.9020908,37.7592137 40.4866776,38.2980035 C40.3950556,38.4113995 40.4099331,38.5774524 40.5202388,38.6725927 C40.7978134,38.8489108 40.9794317,39.1434872 41.0129026,39.4716704 C41.0463735,39.7998536 40.9279907,40.1253042 40.6917736,40.3544984 C40.2517496,40.8789233 39.6252747,41.6131182 37.0112339,42.6544763 C34.8558622,43.5122857 31.044807,44.5274225 25.1865215,44.5573896 L25.070922,44.5573896 C18.2468212,44.5573896 13.100778,42.9054511 11.549507,41.2759879 C11.2662572,41.0256716 11.0977421,40.6695112 11.0833799,40.2908182 C11.1243991,39.3168862 12.4743032,38.7737318 14.886977,38.7624941 L14.9279962,38.7624941 C15.5812074,38.7643666 16.233717,38.8056457 16.8820011,38.8861086 C17.3630442,38.9460429 17.8291713,39.0209607 18.2803824,39.1033704 C19.2898388,39.301002 20.2861486,39.5612148 21.2635958,39.882516 L21.2635958,39.882516 C22.624687,40.3282772 23.6874568,40.8077514 24.399699,41.1111687 C24.8098908,41.2834797 25.0783801,41.3996024 25.2275407,41.4445531 C25.4429947,41.513704 25.6691763,41.542898 25.8950347,41.5307086 L25.8950347,41.5307086 C26.4483244,41.4979189 26.9089677,41.0922608 27.0137398,40.5455389 C27.1514191,40.0275384 26.8936672,39.4858749 26.4059101,39.2681896 C24.1011644,38.1895607 21.6919328,37.3523046 19.2163656,36.7696794 C18.3781803,36.5795425 17.530487,36.4344949 16.6769051,36.3351559 L16.6769051,36.3351559 C16.0434954,36.255894 15.4059467,36.214616 14.7676485,36.2115414 L14.7340874,36.2115414 C11.0050705,36.2115414 8.59612564,37.7473573 8.48798415,40.193425 L8.4767971,40.1859332 Z" id="Shape"></path>
                    </g>
                </g>
            </g>
        </g>
    </g>
</svg>