<?xml version="1.0" encoding="UTF-8"?>
<svg width="105px" height="48px" viewBox="0 0 105 48" version="1.1" xmlns="http://www.w3.org/2000/svg" xmlns:xlink="http://www.w3.org/1999/xlink">
    <!-- Generator: Sketch 53.2 (72643) - https://sketchapp.com -->
    <title>Group 21 Copy</title>
    <desc>Created with Sketch.</desc>
    <g id="Page-1" stroke="none" stroke-width="1" fill="none" fill-rule="evenodd">
        <g id="03-Navigation-Copy-2" transform="translate(-995.000000, -1169.000000)">
            <g id="Group-21-Copy" transform="translate(995.000000, 1169.000000)">
                <g id="cenex-1-logo-svg-vector-2" transform="translate(28.000000, 3.000000)" fill="#969696" fill-rule="nonzero">
                    <g id="cenex-1-logo-svg-vector">
                        <path d="M44.158989,0 C35.6326967,0.417638288 30.7902857,6.11215709 30.7902857,13.2685985 L30.7902857,26.4323159 C30.7902857,26.8507087 30.2121612,27.0068987 29.8430889,27.0068987 L28.212101,27.0068987 C27.2649041,27.0068987 26.6856393,25.7011659 26.5278998,25.2835277 C26.3697803,24.8134488 24.7384123,20.3209134 24.5278396,20.1119056 C24.3701002,20.0074017 24.3176471,20.0074017 24.3176471,20.059465 L24.3176471,28.6789609 C24.3176471,35.7829618 29.1068448,41.42504 37.4746374,42 L53,42 L53,0 L44.158989,0 L44.158989,0 Z M36.4746073,18.9102995 L39.6852702,18.9102995 C40.1588687,18.9102995 40.2117019,19.1193073 40.2117019,19.4328189 L40.2117019,20.9996227 C40.2117019,21.3131344 40.1588687,21.5225194 39.6852702,21.5225194 L36.3689409,21.5225194 C35.8425092,21.5225194 35.8425092,21.8880944 35.8425092,22.6188671 C35.8425092,23.298331 35.8953424,23.9777949 36.737253,23.9777949 L39.6852702,23.9777949 C40.1588687,23.9777949 40.2117019,24.1864255 40.2117019,24.4478738 L40.2117019,26.4323159 C40.2117019,26.7462048 40.1588687,26.9548353 39.6852702,26.9548353 L36.5270604,26.9548353 C33.8952823,26.9548353 32.790726,25.7015432 32.790726,23.9777949 L32.790726,16.7157178 C32.790726,14.9919695 34.0009487,13.7383001 36.68518,13.7383001 L39.6852702,13.7383001 C40.1588687,13.7383001 40.2117019,13.9473079 40.2117019,14.208379 L40.2117019,16.1935756 C40.2117019,16.4546467 40.1588687,16.7157178 39.6852702,16.7157178 L36.68518,16.7157178 C36.3689409,16.7157178 35.8953424,17.1337334 35.8953424,17.8131973 C35.8957225,18.5447245 35.8957225,18.9102995 36.4746073,18.9102995 Z M51.052773,16.1939529 C51.052773,16.455024 51.052773,16.7160951 50.6320078,16.7160951 C49.737264,16.7160951 47.8957035,17.5000629 47.8957035,20.3209134 C47.8957035,23.1938271 49.5795246,23.9777949 50.4738883,23.9777949 C50.9482469,23.9777949 51.0010801,24.1864255 51.0010801,24.4995599 L51.0010801,26.5368198 C51.0010801,26.8507087 50.8957938,26.9544581 50.3165289,26.9544581 C48.3164687,26.9544581 47.053793,26.1188042 46.422075,24.4474965 C45.7375238,26.1188042 44.474848,26.9544581 42.527621,26.9544581 C41.9487363,26.9544581 41.7906167,26.8507087 41.7906167,26.5368198 L41.7906167,24.4995599 C41.7906167,24.1864255 41.8434499,23.9777949 42.3170484,23.9777949 C43.2117921,23.9777949 44.9480664,23.1938271 44.9480664,20.3209134 C44.9480664,17.5000629 43.0544328,16.7160951 42.1589288,16.7160951 C41.7906167,16.7160951 41.7906167,16.455024 41.7906167,16.1939529 L41.7906167,14.2087563 C41.7906167,13.9476852 41.8434499,13.7386774 42.2642152,13.7386774 C44.3167285,13.7386774 45.6850707,14.6267718 46.422075,16.455024 C47.105866,14.6267718 48.5274215,13.7386774 50.5267215,13.7386774 C51.0010801,13.7386774 51.0531531,13.9476852 51.0531531,14.2087563 L51.0531531,16.1939529 L51.052773,16.1939529 L51.052773,16.1939529 Z" id="Shape"></path>
                        <path d="M21.2012285,28.730905 L21.2012285,14.2609477 C21.2012285,13.7384235 21.8881693,13.7384235 22.1527885,13.7384235 L23.315891,13.7384235 C24.5320701,13.7384235 25.1136214,14.9921042 25.2720874,15.4101235 C25.4305535,15.8805839 27.3867499,20.8428655 27.4925212,21.1039389 C27.5975288,21.2608848 27.7571404,21.15638 27.7571404,20.9998114 L27.7571404,13.2162767 C27.7571404,6.05977094 22.9455005,0.418019313 14.3803157,0 L0,0 L0,42 L8.30056564,42 C16.5484366,41.3725938 21.2012285,35.7304649 21.2012285,28.730905 Z M12.0014159,16.7154907 C12.0014159,14.9917269 13.217595,13.7380463 15.9138087,13.7380463 L18.9273364,13.7380463 C19.4034982,13.7380463 19.4561929,13.9470559 19.4561929,14.2081294 L19.4561929,16.1933438 C19.4561929,16.4544172 19.4031163,16.7154907 18.9273364,16.7154907 L15.9138087,16.7154907 C15.5964948,16.7154907 15.1207148,17.13351 15.1207148,17.81298 C15.1207148,18.5441365 15.1207148,18.9100921 15.7022661,18.9100921 L18.9273364,18.9100921 C19.4034982,18.9100921 19.4561929,19.1191017 19.4561929,19.4326162 L19.4561929,20.9994341 C19.4561929,21.3129486 19.4031163,21.5223355 18.9273364,21.5223355 L15.5964948,21.5223355 C15.0680201,21.5223355 15.0680201,21.8879138 15.0680201,22.618693 C15.0680201,23.298163 15.1207148,23.9776331 15.9668853,23.9776331 L18.9277182,23.9776331 C19.40388,23.9776331 19.4565747,24.1862654 19.4565747,24.4477161 L19.4565747,26.4321761 C19.4565747,26.7460678 19.4034982,26.9547002 18.9277182,26.9547002 L15.7557245,26.9547002 C13.1122055,26.9547002 12.0017977,25.7013968 12.0017977,23.9776331 L12.0017977,16.7154907 L12.0014159,16.7154907 Z M1.85004327,20.3727824 L1.85004327,20.3203413 C1.85004327,15.8277656 5.12819011,13.7384235 8.24748907,13.7384235 L10.098296,13.7384235 C10.5209994,13.7384235 10.574076,13.9474332 10.574076,14.2085066 L10.574076,16.1937211 C10.574076,16.4547945 10.5209994,16.715868 10.098296,16.715868 L8.45941353,16.715868 C7.03207364,16.715868 5.23396142,17.4998428 5.23396142,20.3207186 C5.23396142,23.1936582 7.0316918,23.9776331 8.45941353,23.9776331 L10.098296,23.9776331 C10.5209994,23.9776331 10.574076,24.1862654 10.574076,24.4994026 L10.574076,26.4846171 C10.574076,26.7460678 10.5209994,26.9547002 10.098296,26.9547002 L8.24748907,26.9547002 C5.12819011,26.9543229 1.85004327,24.8653582 1.85004327,20.3727824 Z" id="Shape"></path>
                    </g>
                </g>
            </g>
        </g>
    </g>
</svg>