<?xml version="1.0" encoding="UTF-8"?>
<svg width="105px" height="48px" viewBox="0 0 105 48" version="1.1" xmlns="http://www.w3.org/2000/svg" xmlns:xlink="http://www.w3.org/1999/xlink">
    <!-- Generator: Sketch 53.2 (72643) - https://sketchapp.com -->
    <title>Group 18</title>
    <desc>Created with Sketch.</desc>
    <defs>
        <linearGradient x1="67.0529824%" y1="106.733437%" x2="36.3976048%" y2="3.49216069%" id="linearGradient-1">
            <stop stop-color="#8026FF" offset="25%"></stop>
            <stop stop-color="#FF1A58" offset="75%"></stop>
        </linearGradient>
    </defs>
    <g id="Page-1" stroke="none" stroke-width="1" fill="none" fill-rule="evenodd">
        <g id="03-Navigation-Copy-2" transform="translate(-306.000000, -560.000000)">
            <g id="Group-18" transform="translate(306.000000, 560.000000)">
                <rect id="Rectangle-Copy-47" fill="#FFFFFF" x="0" y="0" width="105" height="48"></rect>
                <g id="Entergy_2022-2" transform="translate(5.000000, 12.000000)" fill-rule="nonzero">
                    <g id="Entergy_2022">
                        <path d="M73.7698444,9.52571015 L73.7698444,11.3520711 C73.4042496,11.1756927 73.0033217,11.0862633 72.5979859,11.0906806 C71.8680854,11.0906806 69.7905477,11.4110948 69.7905477,15.669231 L69.7905477,19.4467454 L67.8653516,19.4467454 L67.8653516,9.56449713 L69.7905477,9.56449713 L69.7905477,11.0906806 C70.2140909,9.97260365 71.3826012,9.30479298 72.7536756,9.30479298 C73.1034101,9.31139351 73.4485358,9.38642474 73.7698444,9.52571015 Z M54.6149802,18.8463904 C53.9150744,19.3242966 53.0900056,19.581972 52.2444779,19.5867158 C50.2355776,19.5867158 49.2512165,18.48213 49.2512165,16.1903257 L49.2512165,11.299793 L47.7863934,11.299793 L47.7863934,9.56618352 L49.2445202,9.56618352 L49.2445202,6.46153846 L51.1563236,6.46153846 L51.1563236,9.56449713 L54.2717931,9.56449713 L54.2717931,11.3031658 L51.1630199,11.3031658 L51.1630199,16.2493494 C51.1630199,17.3134613 51.906313,17.7131359 52.5223758,17.7131359 C53.0112082,17.7148223 53.4782775,17.4551182 53.7360864,17.3134613 L54.6149802,18.8463904 Z M35.2073295,15.2037872 L26.6695033,15.2037872 C26.9474012,16.9626921 28.2582086,17.942485 29.9640998,17.942485 C31.2347292,17.942485 32.1270157,17.5428105 32.7029005,16.6827513 L34.7871345,16.6827513 C34.0337969,18.5226034 32.2475497,19.7013904 29.9640998,19.7013904 C26.8687193,19.7013904 24.6857143,17.5090827 24.6857143,14.5039351 C24.6857143,11.4987871 26.8620229,9.30479298 29.9640998,9.30479298 C33.0661766,9.30479298 35.2039813,11.4971007 35.2039813,14.5039351 L35.2073295,15.2037872 Z M33.2218664,13.5039055 C32.8451976,11.9237576 31.5561532,11.0653847 29.9674479,11.0653847 C28.3402387,11.0653847 27.1097873,11.9439942 26.7331185,13.5039055 L33.2218664,13.5039055 Z M66.0339042,15.2037872 L57.496078,15.2037872 C57.7739759,16.9626921 59.0847833,17.942485 60.7906745,17.942485 C62.0613039,17.942485 62.9535905,17.5428105 63.5294752,16.6827513 L65.6137092,16.6827513 C64.8586976,18.5226034 63.0724504,19.7013904 60.7906745,19.7013904 C57.695294,19.7013904 55.512289,17.5090827 55.512289,14.5039351 C55.512289,11.4987871 57.6885977,9.30479298 60.7906745,9.30479298 C63.8927513,9.30479298 66.030556,11.4971007 66.030556,14.5039351 L66.0339042,15.2037872 Z M64.0484411,13.5039055 C63.6717723,11.9237576 62.382728,11.0653847 60.7940227,11.0653847 C59.1668134,11.0653847 57.936362,11.9439942 57.5596932,13.5039055 L64.0484411,13.5039055 Z M84.7066323,14.5831955 L84.7066323,18.7215975 C84.7066323,22.5193491 82.4030933,24 79.5052547,24 C77.1046188,24 75.2196007,22.9797337 74.543271,20.6997336 L76.4684671,20.6997336 C76.9254919,21.8397337 78.0772614,22.3405917 79.5052547,22.3405917 C81.5141549,22.3405917 82.8400291,21.3810354 82.8400291,18.7991714 L82.8400291,17.5799111 C82.1703957,18.8598815 80.7959731,19.6204437 79.1486749,19.6204437 C76.607416,19.6204437 74.1866912,17.8615383 74.1866912,14.5022488 C74.1866912,11.5021599 76.3629998,9.30310659 79.4667507,9.30310659 C82.5705017,9.30310659 84.6982619,11.4043493 84.6982619,14.5831955 L84.7066323,14.5831955 Z M82.8400291,14.5039351 C82.8400291,12.5038759 81.4907178,11.0653847 79.4667507,11.0653847 C77.4427837,11.0653847 76.0784056,12.5038759 76.0784056,14.5039351 C76.0784056,16.5039944 77.4277169,17.842988 79.4533581,17.842988 C81.4789992,17.842988 82.8316587,16.502308 82.8316587,14.5039351 L82.8400291,14.5039351 Z M86.4091753,20.6997336 L88.2941934,20.6997336 C88.7512182,21.819497 89.7238607,22.3405917 91.1401354,22.3405917 C92.9665606,22.3405917 94.136745,21.4602958 94.136745,19.2207691 L94.136745,17.7232543 C93.5056155,18.9408283 92.3170162,19.6153845 90.8471708,19.6153845 C88.406357,19.6153845 86.3271452,18.0757099 86.3271452,14.6169233 L86.3271452,9.55775157 L88.2121633,9.55775157 L88.2121633,14.6169233 C88.2121633,16.7552661 89.3840218,17.8362424 91.1685948,17.8362424 C92.9163381,17.8362424 94.1267005,16.7164791 94.1267005,14.6169233 L94.1267005,9.55775157 L96,9.55775157 L96,19.1701774 C96,22.6104142 93.837084,23.9899542 91.1183723,23.9899542 C88.8617077,24.0000051 86.9766896,22.9392603 86.4008048,20.6997336 L86.4091753,20.6997336 Z M38.8903133,9.5695563 L38.8819429,11.0704439 C39.4980057,9.84949714 40.6882791,9.30985215 42.1564504,9.30985215 C44.5989383,9.30985215 46.676476,10.9304735 46.676476,14.3892606 L46.676476,19.4484318 L44.7881097,19.4484318 L44.7881097,14.3875742 C44.7881097,12.2475445 43.6162512,11.1682546 41.8316781,11.1682546 C40.0839349,11.1682546 38.8735725,12.2880179 38.8735725,14.3875742 L38.8735725,19.4467454 L36.9885544,19.4467454 L36.9885544,9.56449713 L38.8903133,9.5695563 Z" id="Shape" fill="#4B4B4B"></path>
                        <path d="M0.53515838,11.0167257 C1.22321915,8.17866897 3.46523361,6.58434886 6.43021048,6.58434886 C9.32372209,6.58434886 11.6754274,8.14694951 12.3618262,11.0167257 L0.53515838,11.0167257 Z M17.4873804,6.43075991 C15.790505,3.47642783 12.9943267,1.32060807 9.71447064,0.437940359 C6.43461473,-0.44472737 2.93999128,0.0181254323 0,1.72459408 L1.61378505,4.53260079 C3.10393041,3.76350628 4.7582911,3.37098017 6.43353444,3.38903088 C12.0759652,3.38903088 15.9816242,7.38568253 15.9816242,12.8347514 L15.9816242,14.1068686 L0.427129515,14.1068686 C0.934034192,17.3038556 3.32064113,19.0834841 6.43021048,19.0834841 C8.74535216,19.0834841 10.3724331,18.3572754 11.4161581,16.7946748 L15.2137882,16.7946748 C14.4354873,18.6980075 13.0013712,20.2564863 11.1735087,21.1853155 L12.7972656,24 C15.7388428,22.2954999 17.8853504,19.4864631 18.7640954,16.1914767 C19.6428421,12.8964909 19.1817633,9.38577195 17.4823944,6.43242936 L17.4873804,6.43075991 Z" id="path12" fill="url(#linearGradient-1)"></path>
                    </g>
                </g>
            </g>
        </g>
    </g>
</svg>