<?xml version="1.0" encoding="UTF-8"?>
<svg width="105px" height="48px" viewBox="0 0 105 48" version="1.1" xmlns="http://www.w3.org/2000/svg" xmlns:xlink="http://www.w3.org/1999/xlink">
    <!-- Generator: Sketch 53.2 (72643) - https://sketchapp.com -->
    <title>Group 31</title>
    <desc>Created with Sketch.</desc>
    <g id="Page-1" stroke="none" stroke-width="1" fill="none" fill-rule="evenodd">
        <g id="03-Navigation-Copy-2" transform="translate(-306.000000, -740.000000)">
            <g id="Group-31" transform="translate(306.000000, 740.000000)">
                <g id="Group-29">
                    <g id="Group-23">
                        <rect id="Rectangle-Copy-54" fill="#FFFFFF" x="0" y="0" width="105" height="48"></rect>
                        <g id="greenway-infrastructure-sro-logo-vector-2" transform="translate(12.000000, 18.000000)">
                            <g id="greenway-infrastructure-sro-logo-vector">
                                <path d="M33.6,2.42711864 C33.0269551,2.4 32.4818636,2.61694915 32.0765391,3.01016949 C31.6572379,3.45762712 31.4196339,4.04067797 31.4475874,4.65084746 L35.7663894,4.65084746 C35.7663894,4.05423729 35.5567388,3.47118644 35.165391,3.01016949 C34.7460899,2.60338983 34.1870216,2.4 33.6,2.42711864 Z" id="Path"></path>
                                <path d="M6.98835275,3.21355932 C6.6249584,2.71186441 6.00998336,2.44067797 5.38103161,2.46779661 C4.5843594,2.4 3.8296173,2.80677966 3.46622296,3.49830508 C3.11680532,4.23050847 2.94908486,5.03050847 2.96306156,5.8440678 C2.96306156,7.72881356 3.52212978,8.77288136 4.65424293,8.98983051 C5.56272879,9.26101695 6.55507488,8.96271186 7.14209651,8.23050847 C7.44958403,7.81016949 7.6312812,7.3220339 7.70116473,6.80677966 C7.81297837,6.16949153 7.81297837,5.53220339 7.70116473,4.89491525 C7.61730449,4.28474576 7.36572379,3.70169492 6.98835275,3.21355932 Z" id="Path"></path>
                                <path d="M67.814975,6.45423729 C67.3956739,6.50847458 67.0043261,6.69830508 66.7108153,6.99661017 C66.5151414,7.25423729 66.4033278,7.57966102 66.4173045,7.89152542 C66.4033278,8.25762712 66.5430948,8.61016949 66.7946755,8.88135593 C67.1021631,9.12542373 67.4935108,9.23389831 67.8988353,9.20677966 C68.5836938,9.24745763 69.2545757,9.00338983 69.7577371,8.54237288 C70.2329451,8.05423729 70.4705491,7.40338983 70.4425957,6.73898305 L70.4425957,5.70847458 C69.9114809,5.93898305 69.3663894,6.12881356 68.7933444,6.25084746 L67.814975,6.45423729 Z" id="Path"></path>
                                <path d="M22.9078203,2.42711864 C22.3347754,2.4 21.7896839,2.61694915 21.3843594,3.01016949 C20.9650582,3.45762712 20.7414309,4.04067797 20.7554077,4.65084746 L25.0742097,4.65084746 C25.0742097,4.05423729 24.8645591,3.47118644 24.4732113,3.01016949 C24.0539101,2.60338983 23.4808652,2.4 22.9078203,2.42711864 Z" id="Path"></path>
                                <path d="M17.275208,0.298305085 C16.5344426,0.298305085 15.7936772,0.393220339 15.0808652,0.596610169 C14.38203,0.772881356 13.7391015,1.07118644 13.1660566,1.49152542 C12.5650582,1.95254237 12.103827,2.54915254 11.7963394,3.24067797 C11.4469218,4.09491525 11.2792013,5.01694915 11.3071547,5.92542373 L11.3071547,11.2271186 L14.2702163,11.2271186 L14.2702163,5.6 C14.2143095,4.94915254 14.4239601,4.29830508 14.8712146,3.79661017 C15.374376,3.37627119 16.0312812,3.17288136 16.6881864,3.21355932 L17.652579,3.21355932 L17.652579,0.298305085 L17.2332779,0.298305085 L17.275208,0.298305085 Z" id="Path" fill="#95C13D" fill-rule="nonzero"></path>
                                <path d="M22.8239601,0.0542372881 C21.3983361,-0.013559322 20.0146423,0.542372881 19.0642263,1.57288136 C18.127787,2.73898305 17.6665557,4.20338983 17.750416,5.68135593 C17.652579,7.2 18.1417637,8.71864407 19.1201331,9.91186441 C20.0705491,10.9423729 21.4542429,11.4983051 22.8798669,11.4305085 C24.0539101,11.4711864 25.2139767,11.1457627 26.1783694,10.4949153 C27.0868552,9.8440678 27.715807,8.90847458 27.953411,7.85084746 L25.9826955,7.85084746 C25.7031614,7.83728814 25.4236273,7.90508475 25.2,8.05423729 C24.9064892,8.29830508 24.585025,8.52881356 24.2635607,8.74576271 C23.8861897,8.94915254 23.4668885,9.0440678 23.0336106,9.03050847 C22.4046589,9.07118644 21.8036606,8.82711864 21.3843594,8.36610169 C20.9510815,7.83728814 20.7134775,7.15932203 20.7554077,6.48135593 L28.0792013,6.48135593 C28.1071547,6.38644068 28.1211314,6.29152542 28.1211314,6.19661017 L28.1211314,5.77627119 C28.2189684,4.25762712 27.7297837,2.75254237 26.7514143,1.54576271 C25.7171381,0.501694915 24.2915141,-0.0271186441 22.8239601,0.0542372881 Z M20.7693844,4.63728814 C20.7554077,4.02711864 20.9790349,3.4440678 21.3983361,2.99661017 C21.8036606,2.60338983 22.3487521,2.4 22.921797,2.41355932 C23.5088186,2.38644068 24.0678869,2.58983051 24.487188,2.99661017 C24.8645591,3.45762712 25.0742097,4.04067797 25.0881864,4.63728814 L20.7693844,4.63728814 Z" id="Shape" fill="#95C13D" fill-rule="nonzero"></path>
                                <path d="M33.5301165,0.0542372881 C32.1044925,-0.013559322 30.7207987,0.542372881 29.7703827,1.57288136 C28.8339434,2.73898305 28.3727121,4.20338983 28.4565724,5.68135593 C28.3587354,7.2 28.8479201,8.71864407 29.8262895,9.91186441 C30.7627288,10.9288136 32.1324459,11.4847458 33.5301165,11.4305085 C34.7041597,11.4711864 35.8642263,11.1457627 36.828619,10.4949153 C37.7371048,9.8440678 38.3660566,8.90847458 38.6036606,7.85084746 L36.6748752,7.85084746 C36.3953411,7.83728814 36.115807,7.90508475 35.8921797,8.05423729 C35.5986689,8.29830508 35.2772047,8.52881356 34.9557404,8.74576271 C34.5783694,8.94915254 34.1590682,9.0440678 33.7257903,9.03050847 C33.0968386,9.07118644 32.4958403,8.82711864 32.0765391,8.36610169 C31.6292845,7.83728814 31.4056572,7.15932203 31.4475874,6.48135593 L38.771381,6.48135593 C38.7993344,6.38644068 38.8133111,6.29152542 38.8133111,6.19661017 L38.8133111,5.77627119 C38.9111481,4.25762712 38.4219634,2.75254237 37.443594,1.54576271 C36.4093178,0.515254237 34.9976705,-0.0271186441 33.5301165,0.0542372881 Z M31.4755408,4.63728814 C31.4615641,4.02711864 31.6851913,3.4440678 32.1044925,2.99661017 C32.509817,2.60338983 33.0549085,2.4 33.6279534,2.41355932 C34.214975,2.38644068 34.7740433,2.58983051 35.1933444,2.99661017 C35.5707155,3.45762712 35.7803661,4.04067797 35.7943428,4.63728814 L31.4755408,4.63728814 Z" id="Shape" fill="#95C13D" fill-rule="nonzero"></path>
                                <path d="M47.5487521,0.989830508 C46.5144759,0.366101695 45.3264559,0.0406779661 44.1244592,0.0542372881 C42.9364393,0.0949152542 41.7903494,0.461016949 40.7980033,1.08474576 C39.7916805,1.7220339 39.2885191,2.96949153 39.2885191,4.81355932 L39.2885191,11.2135593 L42.2515807,11.2135593 L42.2515807,4.2440678 C42.2096506,3.70169492 42.4193012,3.17288136 42.852579,2.80677966 C43.2439268,2.50847458 43.7191348,2.34576271 44.2222962,2.35932203 C44.7114809,2.35932203 45.2006656,2.5220339 45.5920133,2.80677966 C46.0252912,3.15932203 46.2489185,3.70169492 46.2069884,4.2440678 L46.2069884,9.81694915 C46.1650582,10.5491525 46.7381032,11.1728814 47.4928453,11.2135593 C47.5487521,11.2135593 47.5906822,11.2135593 47.646589,11.2135593 L49.1281198,11.2135593 L49.1281198,4.8 C49.1141431,2.88813559 48.5830283,1.62711864 47.5487521,0.989830508 Z" id="Path" fill="#95C13D" fill-rule="nonzero"></path>
                                <path d="M62.3640599,0.298305085 C61.7071547,0.230508475 61.1201331,0.66440678 60.9943428,1.28813559 L59.4289517,7.85084746 L57.9194676,0.298305085 L54.9284526,0.298305085 L53.3490849,7.85084746 L51.5460899,0.298305085 L48.6668885,0.298305085 L51.7557404,11.2135593 L54.7048253,11.2135593 L56.4519135,3.41694915 L58.185025,11.2135593 L61.1480865,11.2135593 L64.2369384,0.298305085 L62.3640599,0.298305085 Z" id="Path" fill="#4B4B4B" fill-rule="nonzero"></path>
                                <path d="M71.9660566,0.827118644 C70.8898502,0.230508475 69.6459235,-0.0406779661 68.4159734,0.0406779661 C67.2419301,-0.0406779661 66.0958403,0.298305085 65.159401,0.976271186 C64.5024958,1.49152542 64.069218,2.25084746 63.971381,3.06440678 L66.8086522,3.06440678 C66.9344426,2.77966102 67.1860233,2.54915254 67.4935108,2.45423729 C67.8289517,2.34576271 68.1923461,2.2779661 68.5557404,2.29152542 C68.9610649,2.30508475 69.3663894,2.35932203 69.7577371,2.48135593 C70.1630616,2.53559322 70.4565724,2.88813559 70.4425957,3.28135593 C70.4425957,3.83728814 69.8276206,4.20338983 68.5836938,4.35254237 L67.9407654,4.43389831 L67.4096506,4.51525424 C66.4592346,4.63728814 65.5507488,4.96271186 64.7680532,5.50508475 C63.9993344,6.10169492 63.59401,7.05084746 63.6918469,8 C63.59401,9.01694915 64.0133111,10.0067797 64.8379368,10.6440678 C65.6206323,11.1864407 66.5430948,11.4576271 67.5074875,11.4440678 C68.0945092,11.4440678 68.6815308,11.4033898 69.2685524,11.3491525 C69.9254576,11.2813559 70.568386,11.0915254 71.1554077,10.7932203 C71.756406,10.4813559 72.2595674,10.0338983 72.6229617,9.46440678 C73.0702163,8.6779661 73.2938436,7.79661017 73.2379368,6.90169492 L73.2379368,3.11864407 C73.2239601,2.19661017 72.7627288,1.32881356 71.9660566,0.827118644 Z M70.4146423,6.73898305 C70.4565724,7.40338983 70.2049917,8.05423729 69.7297837,8.54237288 C69.2266223,9.00338983 68.5557404,9.23389831 67.8708819,9.20677966 C67.4795341,9.23389831 67.0881864,9.11186441 66.7667221,8.88135593 C66.5011647,8.62372881 66.3613977,8.25762712 66.3893511,7.89152542 C66.3753744,7.56610169 66.487188,7.25423729 66.6828619,6.99661017 C66.9763727,6.71186441 67.3677205,6.5220339 67.7870216,6.45423729 L68.7514143,6.25084746 C69.3244592,6.14237288 69.8835275,5.96610169 70.4146423,5.7220339 L70.4146423,6.73898305 Z" id="Shape" fill="#4B4B4B" fill-rule="nonzero"></path>
                                <path d="M81.8895175,0.298305085 C81.2326123,0.230508475 80.6455907,0.66440678 80.5198003,1.28813559 L78.5351082,8 L76.2569052,0.298305085 L73.0003328,0.298305085 L76.927787,11.1728814 C77.1234609,11.7423729 77.0535774,12.1627119 76.7321131,12.420339 C76.3407654,12.7050847 75.8515807,12.840678 75.362396,12.8135593 L74.5517471,12.8135593 L74.5517471,15.0779661 L74.8592346,15.0779661 C74.9710483,15.0915254 75.0688852,15.1050847 75.1667221,15.1322034 L75.7677205,15.1322034 C76.6342762,15.2 77.4868552,15.0237288 78.255574,14.6440678 C78.8565724,14.1288136 79.2898502,13.4644068 79.5274542,12.7186441 L83.8881864,0.298305085 L81.8895175,0.298305085 L81.8895175,0.298305085 Z" id="Path" fill="#4B4B4B" fill-rule="nonzero"></path>
                                <path d="M10.6083195,0.0542372881 L9.14076539,0.0542372881 C8.74941764,0.0406779661 8.37204659,0.176271186 8.10648918,0.447457627 C7.99467554,0.555932203 7.8968386,0.691525424 7.82695507,0.827118644 C7.32379368,0.393220339 6.69484193,0.0542372881 5.12945092,0.0542372881 C3.35440932,0.0542372881 2.06855241,0.583050847 1.25790349,1.62711864 C0.405324459,2.83389831 -0.0139767055,4.28474576 0.055906822,5.74915254 C-5.89805982e-16,6.98305085 0.307487521,8.20338983 0.964392679,9.26101695 C1.48153078,10.0745763 2.23627288,10.7118644 3.14475874,11.0915254 C3.64792013,11.2949153 4.19301165,11.4033898 4.75207987,11.4033898 L4.8359401,11.4033898 C5.8562396,11.4576271 6.8765391,11.1864407 7.74309484,10.6576271 C7.74309484,11.240678 7.61730449,11.8101695 7.3936772,12.3525424 C7.05823627,13.0983051 6.26156406,13.5457627 5.43693844,13.4779661 C5.00366057,13.4915254 4.5843594,13.3966102 4.20698835,13.1932203 C3.88552413,12.9898305 3.57803661,12.7728814 3.27054908,12.5288136 C3.03294509,12.379661 2.76738769,12.3118644 2.48785358,12.3254237 L0.531114809,12.3254237 L0.531114809,12.3525424 C1.06222962,14.5762712 3.17271215,16.1084746 5.52079867,15.9457627 C6.75074875,15.9864407 7.96672213,15.6067797 8.93111481,14.8745763 C10.0073211,14.0610169 10.6642263,12.7457627 10.6642263,10.8338983 L10.6642263,5.64067797 C10.6642263,5.45084746 10.6642263,5.26101695 10.6642263,5.08474576 L10.6083195,0.0542372881 Z M7.67321131,6.80677966 C7.61730449,7.3220339 7.42163062,7.81016949 7.11414309,8.23050847 C6.52712146,8.96271186 5.53477537,9.26101695 4.62628952,8.98983051 C3.49417637,8.77288136 2.93510815,7.71525424 2.93510815,5.83050847 C2.93510815,5.01694915 3.11680532,4.21694915 3.48019967,3.48474576 C3.84359401,2.79322034 4.59833611,2.38644068 5.39500832,2.45423729 C6.02396007,2.41355932 6.6249584,2.69830508 7.00232945,3.18644068 C7.36572379,3.68813559 7.60332779,4.25762712 7.68718802,4.86779661 C7.78502496,5.51864407 7.78502496,6.16949153 7.67321131,6.80677966 Z" id="Shape" fill="#95C13D" fill-rule="nonzero"></path>
                            </g>
                        </g>
                        <text id="EHR" font-family="HelveticaNeue-Light, Helvetica Neue" font-size="8" font-weight="300" line-spacing="9" letter-spacing="3.20000005" fill="#4B4B4B">
                            <tspan x="40" y="37">EH</tspan>
                            <tspan x="56.7760001" y="37" letter-spacing="0.699999988">R</tspan>
                        </text>
                    </g>
                </g>
            </g>
        </g>
    </g>
</svg>