<?xml version="1.0" encoding="UTF-8"?>
<svg width="105px" height="48px" viewBox="0 0 105 48" version="1.1" xmlns="http://www.w3.org/2000/svg" xmlns:xlink="http://www.w3.org/1999/xlink">
    <!-- Generator: Sketch 53.2 (72643) - https://sketchapp.com -->
    <title>Group 9</title>
    <desc>Created with Sketch.</desc>
    <g id="Page-1" stroke="none" stroke-width="1" fill="none" fill-rule="evenodd">
        <g id="03-Navigation-Copy-2" transform="translate(-452.000000, -201.000000)">
            <g id="Group-9" transform="translate(452.000000, 201.000000)">
                <g id="Group-3" transform="translate(30.000000, 7.000000)" fill="#4B4B4B" fill-rule="nonzero">
                    <path d="M46.4997395,32.9997696 L26.0996882,32.9997696 L26.8663119,30.8177315 C35.6663775,30.2634876 39.5333166,22.6447733 39.5333166,16.7569945 C39.5333166,10.5232993 34.7332556,3.35467948 26,3.18157729 L26.7334959,1 L46.9001281,1 C48.5000191,1 50,2.5585534 50,4.01301507 L50,28.5676045 C50,31.4415042 48.9000195,33 46.4998227,33 L46.4997395,32.9997696 Z" id="Path"></path>
                    <path d="M19.2104198,33 L3.45410575,33 C1.08566598,33 0,31.4415035 0,28.5671083 L0,4.01296083 C0,2.55858295 1.48034667,1 3.05906942,1 L19.769325,1 L19.0786133,3.14714862 C14.0785586,5.2250288 10.2302372,10.5241647 10.2302372,16.7571717 C10.2302372,22.6448445 13.5193798,28.3591302 20,30.6099942 L19.2104198,33 Z" id="Path"></path>
                    <g id="Group" transform="translate(14.000000, 0.000000)">
                        <path d="M11.3439622,13.9107271 C11.1463756,14.5402315 8.3806227,22.7917775 8.3806227,22.7917775 L5.15383425,22.7917775 L8.70993382,12.1625928 L6.93211432,12.1625928 L3.37647532,22.7917775 L0.2487105,22.7917775 L7.72246102,0.484234172 L10.8502258,0.484234172 L7.55803575,10.3092966 L9.89545387,10.3092966 C11.0146511,10.3092966 11.8049978,11.1833637 11.8049978,12.1973208 C11.8049978,12.6869353 11.4756867,13.5262745 11.3439622,13.9107271 L11.3439622,13.9107271 Z" id="Path"></path>
                        <path d="M21.7805917,13.8764883 C21.5830051,14.5059928 19.7393233,20.0301753 19.4100122,20.9741874 C19.0807011,21.9181995 18.6201261,23.2818812 17.1052949,23.2818812 L13.5828173,23.2818812 L10.3564894,32.7924359 L7.13016157,32.7924359 L14.6697743,10.3097857 L20.3325439,10.3097857 C21.4190404,10.3097857 22.2420879,11.1838529 22.2420879,12.1978099 C22.2411667,12.6174795 22.0108792,13.2117669 21.7805917,13.8764883 Z M17.3028816,12.163082 L14.2082782,21.429074 L15.9860977,21.429074 L19.0807011,12.163082 L17.3028816,12.163082 Z" id="Shape"></path>
                    </g>
                </g>
            </g>
        </g>
    </g>
</svg>