<?xml version="1.0" encoding="UTF-8"?>
<svg width="105px" height="48px" viewBox="0 0 105 48" version="1.1" xmlns="http://www.w3.org/2000/svg" xmlns:xlink="http://www.w3.org/1999/xlink">
    <!-- Generator: Sketch 53.2 (72643) - https://sketchapp.com -->
    <title>Group 53</title>
    <desc>Created with Sketch.</desc>
    <g id="Page-1" stroke="none" stroke-width="1" fill="none" fill-rule="evenodd">
        <g id="03-Navigation-Copy-2" transform="translate(-857.000000, -1077.000000)">
            <g id="Group-53" transform="translate(857.000000, 1077.000000)">
                <g id="Group-34-Copy" transform="translate(11.000000, 10.000000)" fill-rule="nonzero">
                    <g id="Group-17">
                        <g id="Group-6">
                            <g id="Group-5">
                                <polygon id="path3236" fill="#969696" points="45.9551835 21.8126395 46.5275973 21.8126395 46.5275973 26.8751488 45.9551835 26.8751488"></polygon>
                                <polygon id="path3238" fill="#969696" points="63.175302 21.7644222 63.7477158 21.7644222 63.7477158 26.2965773 66.0850571 26.2965773 66.0850571 26.8751488 63.175302 26.8751488"></polygon>
                                <path d="M26.2546112,26.9233479 C25.0620795,26.9233479 24.4896657,26.3447764 24.4896657,25.0912171 L24.4896657,21.7162048 L25.0620795,21.7162048 L25.0620795,25.0912171 C25.0620795,26.0072916 25.4436767,26.3929937 26.2546112,26.3929937 C27.0655278,26.3929937 27.447125,25.9590743 27.447125,25.0912171 L27.447125,21.7162048 L28.0195388,21.7162048 L28.0195388,25.0912171 C28.0195388,26.2965773 27.447125,26.9233479 26.2546112,26.9233479 Z" id="path3240" fill="#969696"></path>
                                <path d="M21.0551828,22.5358629 C20.9651151,22.3484087 20.8347312,22.1836741 20.6735676,22.0537079 C20.5051306,21.9174795 20.3100388,21.8188843 20.1011538,21.7644222 L19.4810358,21.668024 L18.8609178,21.7644222 L18.288504,22.0537079 C18.1316742,22.1686692 18.0014645,22.3167387 17.9069068,22.4876456 C17.8021217,22.6962998 17.7527928,22.9289004 17.7637583,23.1626335 C17.7583087,23.3650846 17.8078153,23.5651785 17.9069068,23.7412049 C17.9868839,23.8943693 18.1012418,24.0264707 18.2408179,24.1269253 L18.7178234,24.3679937 L19.2902372,24.5126821 L19.862651,24.6573705 L20.3396565,24.8020589 L20.6735676,25.0431273 C20.7736593,25.1643765 20.8247828,25.3193448 20.8167161,25.4770468 C20.8250785,25.6278108 20.7920739,25.7779797 20.7213439,25.9109845 L20.435137,26.2002702 L20.0535217,26.3449586 L19.0995107,26.3449586 L18.6701914,26.1521076 C18.5479555,26.0463068 18.4502439,25.9146212 18.3839845,25.7663872 C18.337928,25.6753778 18.3057726,25.5778434 18.2886122,25.4771015 L17.7161984,25.6217899 C17.7466409,25.7562532 17.7947862,25.8859828 17.8593469,26.0075103 C17.9613064,26.2145863 18.1080251,26.395841 18.2886483,26.5378644 C18.4715346,26.6902636 18.6822168,26.8049287 18.9087662,26.8753674 L19.6719967,26.9717656 L20.3398008,26.8753674 L20.9599187,26.6342808 C21.1372921,26.5084929 21.2840895,26.3436356 21.3892381,26.152144 C21.6085229,25.7504349 21.6262509,25.2673939 21.4370144,24.8503674 C21.3543602,24.6990875 21.2404887,24.5675408 21.1031213,24.464647 L20.6260978,24.2235786 L19.9105896,23.9825102 L19.3381757,23.8378218 L18.8611522,23.6931334 L18.5272592,23.4520467 C18.4300742,23.3482275 18.3784595,23.2091558 18.3841107,23.0663446 C18.3841004,22.9318082 18.4168547,22.7993378 18.4794829,22.6806242 L18.7179857,22.4395558 L19.0518967,22.2948674 L19.4334939,22.2948674 C19.7224995,22.2843739 20.0070676,22.3689746 20.2444285,22.535954 C20.4205474,22.6822904 20.5389958,22.8875383 20.5783215,23.1145255 L21.1507353,22.9698371 C21.139833,22.8213025 21.1077089,22.6751462 21.0553631,22.5359176 L21.0551828,22.5358629 Z" id="path3242" fill="#969696"></path>
                                <path d="M40.4695482,24.2715772 L40.4695482,24.8501487 L41.8051744,24.8501487 C41.8080553,25.0472329 41.7757475,25.2432268 41.7098021,25.4287201 C41.6499091,25.6228408 41.5526425,25.8030801 41.4235952,25.9590743 C41.3058898,26.1011824 41.1595201,26.2162487 40.9942759,26.2965773 L40.3741579,26.4412657 C40.1425463,26.4571584 39.911171,26.407028 39.7063538,26.2965773 C39.5178348,26.1889718 39.3549924,26.0408376 39.2293303,25.8626396 C39.0999427,25.6713451 39.0031996,25.4594792 38.9431234,25.2358508 C38.8771376,24.9842186 38.8450573,24.7247352 38.8477511,24.4644283 C38.8516474,24.2045438 38.8836279,23.9458678 38.9431234,23.6930058 C39.0015801,23.4537713 39.0982516,23.225776 39.2293303,23.0179997 C39.3494614,22.8222845 39.512717,22.6572789 39.7063538,22.5358629 C39.9062392,22.4086004 40.1379264,22.3416866 40.3741579,22.3429936 L40.8511814,22.3429936 L41.2327786,22.5358629 C41.349738,22.6276806 41.4470958,22.7424815 41.5189855,22.8733477 C41.5852824,22.9940719 41.633522,23.1240559 41.662134,23.2590681 L42.2345478,23.1143797 C42.1957465,22.9294531 42.1315174,22.750929 42.0437312,22.5840073 C41.9369208,22.3801442 41.7909767,22.1998464 41.6144299,22.0536532 C41.4445289,21.9197534 41.2499365,21.8214105 41.0420161,21.7643675 L40.374194,21.6679693 C40.0564018,21.6666324 39.7438467,21.7497673 39.4678691,21.9090377 C39.199542,22.0619001 38.9707292,22.2766596 38.800065,22.5358265 C38.6239961,22.8005359 38.4948633,23.0942057 38.4184498,23.4036836 C38.3245082,23.7492931 38.2763716,24.1059778 38.2753012,24.4643919 C38.2744703,24.7912919 38.3227362,25.1164256 38.4184498,25.4286837 C38.5108964,25.726078 38.6563987,26.0038654 38.8477691,26.2483235 C39.0313267,26.4702625 39.2588035,26.6509191 39.5155732,26.7786777 C39.7817751,26.9132371 40.0766631,26.9794707 40.374194,26.9715287 L40.7558092,26.9715287 L41.1374244,26.8268403 L41.4713174,26.5857719 L41.7575243,26.2482689 L41.9006728,26.8750576 L42.2822881,26.8750576 L42.2822881,24.2714861 L40.4695482,24.2715772 Z" id="path3244" fill="#969696"></path>
                                <path d="M53.1580603,25.1876335 L53.062688,25.5251366 C53.0148815,25.6999702 52.9338754,25.8637314 52.8241853,26.0072916 L52.4425701,26.2965773 L51.9178604,26.3929755 C51.686427,26.4063715 51.4557067,26.3563843 51.2500383,26.2482871 C51.0595809,26.1434352 50.8961824,25.9947896 50.7730328,25.8143494 C50.6386519,25.6083604 50.5417294,25.3797792 50.4868259,25.1393615 C50.4245983,24.8706441 50.3926047,24.5956812 50.3914537,24.3197035 C50.3928627,24.0596495 50.4248785,23.8006886 50.4868259,23.5482809 C50.5469021,23.3246526 50.6436452,23.1127867 50.7730328,22.9214922 C50.8961846,22.7410586 51.0595829,22.5924194 51.2500383,22.4875727 C51.4557067,22.3794755 51.686427,22.3294883 51.9178604,22.3428843 C52.2136488,22.3384764 52.5012549,22.4410768 52.728777,22.63217 C52.9733465,22.8576814 53.1263435,23.1669605 53.1580964,23.5000272 L53.7305102,23.403629 C53.7072581,23.1689219 53.6426337,22.9403157 53.5396935,22.7286229 C53.4480296,22.5283175 53.318383,22.3481311 53.1580964,22.1982688 L52.6333687,21.908983 L51.9655646,21.8125848 C51.3613241,21.7963965 50.7888579,22.0857053 50.4391217,22.5840073 C50.2655069,22.8325879 50.1363472,23.1100056 50.0575065,23.4036654 C49.9643962,23.7329987 49.9162347,24.0736452 49.914358,24.4161563 C49.9184991,24.7585005 49.9666178,25.0988509 50.0575065,25.4286655 C50.1344189,25.7230327 50.2637343,26.0007787 50.4391217,26.2483053 C50.6034705,26.4702314 50.8155001,26.6515691 51.0592397,26.7786594 C51.340432,26.9191434 51.6522023,26.985483 51.9655646,26.9715105 C52.4660163,27.0002282 52.9539002,26.8064979 53.3011908,26.4411564 C53.5759697,26.1288666 53.7578597,25.7444587 53.8259005,25.3322308 L53.1580603,25.1876335 Z" id="path3246" fill="#969696"></path>
                                <path d="M60.2655288,26.8269314 L59.6454108,26.8269314 L59.2160914,25.4287201 L57.4034597,25.4287201 L56.9741403,26.8269314 L56.3540224,26.8269314 L57.9281694,21.8608568 L58.6436776,21.8608568 L60.2178246,26.8269314 L60.2655288,26.8269314 Z M57.5465542,24.8983478 L59.072997,24.8983478 L58.3097846,22.2947763 L57.5465542,24.9465651 L57.5465542,24.8983478 Z" id="path3248" fill="#969696"></path>
                                <path d="M35.2224156,26.8751488 L34.2684046,24.5126456 C34.4834448,24.4486827 34.6798858,24.3328585 34.8408184,24.1751426 C35.0948571,23.9211364 35.2330716,23.5718698 35.2224156,23.2108508 C35.2479382,22.8420044 35.1278781,22.4779561 34.8885045,22.1983599 C34.5755111,21.9163049 34.1615038,21.7768157 33.7436769,21.8126395 L31.6448383,21.8126395 L31.6448383,26.8269314 L32.1695479,26.8269314 L32.1695479,24.6090621 L33.6959908,24.6090621 L34.6500018,26.8751488 L35.2224156,26.8751488 Z M32.2172521,24.1751426 L32.2172521,22.2465772 L33.6005825,22.2465772 C33.8904763,22.2284797 34.1774595,22.3137937 34.411499,22.4876456 C34.6085969,22.673672 34.713501,22.9387501 34.6977059,23.2108508 C34.7091772,23.4924238 34.5846702,23.7620956 34.3637949,23.9340742 C34.1368375,24.0803701 33.8689511,24.1480605 33.6005825,24.1269253 L32.2172521,24.1751426 Z" id="path3250" fill="#969696"></path>
                                <polygon id="path3252" fill="#969696" points="1.40229665 18.0321374 0.400581494 18.0321374 0.400581494 7.18391367 1.40229665 7.18391367"></polygon>
                                <path d="M12.6120701,18.0321374 L11.7534494,18.0321374 L9.3206997,10.7035597 L9.12988308,9.98035447 L8.98673455,9.30534838 L8.93895828,9.30534838 C9.00253979,10.0124872 9.05025596,10.7196321 9.08210681,11.4267831 L9.08210681,18.0321374 L8.17578194,18.0321374 L8.17578194,7.18391367 L9.03440265,7.18391367 L11.5148565,14.7535598 C11.6420555,15.1392741 11.7533592,15.5089159 11.8487675,15.8624854 L11.8487675,15.8624854 C11.785186,15.3803486 11.7533953,14.8982057 11.7533953,14.4160567 L11.7533953,7.18391367 L12.612016,7.18391367 L12.6120701,18.0321374 Z" id="path3254" fill="#969696"></path>
                                <polygon id="path3256" fill="#969696" points="23.010927 8.09998816 21.3890939 8.09998816 21.3890939 18.0321374 20.3873607 18.0321374 20.3873607 8.09998816 18.8132317 8.09998816 18.8132317 7.18391367 23.010927 7.18391367"></polygon>
                                <path d="M33.9344935,14.608926 C33.9344935,15.0910628 33.9185681,15.5571333 33.8867172,16.0071373 C33.8590446,16.4068084 33.7621721,16.7984667 33.6005103,17.1642802 C33.4652111,17.4869657 33.231157,17.7573289 32.9326882,17.9357027 C32.1331052,18.2795308 31.2233367,18.2441743 30.4522344,17.8393045 C30.1597534,17.6537314 29.9275586,17.3855095 29.7844123,17.0678638 C29.627931,16.7002621 29.5312816,16.3095058 29.4982054,15.9107209 C29.4663545,15.4928617 29.4504291,15.0428637 29.4504291,14.5607269 L29.4504291,7.18393189 L30.4521623,7.18393189 L30.4521623,14.5125096 C30.4134514,15.1933903 30.4777918,15.8762544 30.6429609,16.5375097 C30.8249476,16.9594229 31.2370201,17.2322044 31.6923892,17.2322044 C32.1477583,17.2322044 32.5598308,16.9594229 32.7418175,16.5375097 C32.9084815,15.8765164 32.9728441,15.1934182 32.9326161,14.5125096 L32.9326161,7.18393189 L33.9343493,7.18393189 L33.9344935,14.608926 Z" id="path3258" fill="#969696"></path>
                                <polygon id="path3260" fill="#969696" points="42.4729965 18.0321374 41.4712633 18.0321374 41.4712633 7.18391367 42.4729965 7.18391367"></polygon>
                                <polygon id="path3262" fill="#969696" points="53.4442672 8.09998816 51.8701202 8.09998816 51.8701202 18.0321374 50.8684051 18.0321374 50.8684051 8.09998816 49.2942581 8.09998816 49.2942581 7.18391367 53.4919533 7.18391367"></polygon>
                                <polygon id="path3264" fill="#969696" points="61.2672439 18.0321374 60.2655288 18.0321374 60.2655288 7.18391367 61.2672439 7.18391367"></polygon>
                                <path d="M71.093687,18.0321374 L70.2350663,18.0321374 L68.0885055,7.18391367 L69.0902387,7.18391367 L70.5212732,15.0910628 C70.553124,15.2196302 70.5849148,15.4285598 70.6166454,15.7178516 L70.7120177,16.5374914 L70.759794,16.5374914 C70.8233755,15.9267751 70.8710916,15.4285598 70.9029425,15.0428455 L72.2862729,7.13571457 L73.287988,7.13571457 L71.093687,18.0321374 Z" id="path3266" fill="#969696"></path>
                                <polygon id="path3268" fill="#969696" points="82.5419632 7.95535441 80.2046038 7.95535441 80.2046038 11.8124852 82.494259 11.8124852 82.494259 12.7285597 80.2046038 12.7285597 80.2046038 16.9714291 82.5419632 16.9714291 82.5419632 17.8874854 79.2028886 17.8874854 79.2028886 7.03927992 82.5419632 7.03927992"></polygon>
                                <ellipse id="circle3270" fill="#F7A800" cx="41.9005647" cy="2.12142869" rx="2.0988507" ry="2.12142869"></ellipse>
                            </g>
                        </g>
                    </g>
                </g>
            </g>
        </g>
    </g>
</svg>