<?xml version="1.0" encoding="UTF-8"?>
<svg width="105px" height="48px" viewBox="0 0 105 48" version="1.1" xmlns="http://www.w3.org/2000/svg" xmlns:xlink="http://www.w3.org/1999/xlink">
    <!-- Generator: Sketch 53.2 (72643) - https://sketchapp.com -->
    <title>Group 45</title>
    <desc>Created with Sketch.</desc>
    <g id="Page-1" stroke="none" stroke-width="1" fill="none" fill-rule="evenodd">
        <g id="03-Navigation-Copy-2" transform="translate(-1455.000000, -895.000000)">
            <g id="Group-45" transform="translate(1455.000000, 895.000000)">
                <g id="kudo-logo-copy-2" transform="translate(18.000000, 12.500000)" fill-rule="nonzero">
                    <g id="kudo-logo-copy" transform="translate(0.351479, 0.604635)">
                        <path d="M60.3910423,0.289381013 C54.6095322,0.289381013 49.9226922,5.05279473 49.9226922,10.9287633 C49.9226922,16.8047319 54.6095322,21.5681457 60.3910423,21.5681457 C63.1675956,21.5683759 65.8305101,20.4475551 67.7939365,18.4522672 C69.757363,16.4569794 70.8604558,13.75068 70.8605313,10.9287633 C70.8605314,8.10682314 69.7574627,5.40047918 67.7940199,3.40517467 C65.8305771,1.40987016 63.1676187,0.289073997 60.3910423,0.289381013 Z M60.3910423,16.8547077 C57.170688,16.8547077 54.560075,14.2014425 54.560075,10.928474 C54.560075,9.35676565 55.1744164,7.84943465 56.2679431,6.73809618 C57.3614698,5.62675771 58.8445998,5.00245282 60.3910423,5.00252957 C61.9374355,5.00252957 63.4204924,5.62686835 64.5139575,6.7381985 C65.6074225,7.84952865 66.2217248,9.35681579 66.2217248,10.928474 C66.2217248,14.2013295 63.6112854,16.8545479 60.3910423,16.8547077 L60.3910423,16.8547077 Z" id="Path_1561" fill="#D77B2E"></path>
                        <path d="M28.8632737,0.289381013 L28.8632737,14.0103817 C28.8632737,15.4017809 27.753454,16.5297328 26.3844221,16.5297328 C25.7269667,16.5298096 25.0964172,16.2644034 24.631526,15.7919168 C24.1666348,15.3194301 23.9054951,14.6785787 23.9055706,14.0103817 L23.9055706,0.289381013 L18.9492911,0.289381013 L18.9492911,14.0103817 C18.949291,18.1838545 22.2777549,21.5673467 26.3841374,21.5681457 C30.4911219,21.5681457 33.8205348,18.1844663 33.8206921,14.0103817 L33.8206921,0.289381013 L28.8632737,0.289381013 Z" id="Path_1562" fill="#A62830"></path>
                        <path d="M41.5348576,0.289381013 L35.4254253,0.289381013 L35.4254253,21.5681457 L41.5348576,21.5681457 C47.3163677,21.5681457 52.0032077,16.8047319 52.0032077,10.9287633 C52.0032077,8.1070237 50.9002954,5.40085518 48.937099,3.40558395 C46.9739025,1.41031272 44.3112367,0.289381013 41.5348576,0.289381013 L41.5348576,0.289381013 Z M41.5348576,16.5294435 L40.3819895,16.5294435 L40.3819895,5.32808321 L41.5337187,5.32808321 C42.9952825,5.32800646 44.3970103,5.91804254 45.4305186,6.96838213 C46.464027,8.01872171 47.0446504,9.44332047 47.0446504,10.9287633 C47.0446505,14.0215946 44.5779703,16.5289641 41.5348576,16.5294435 Z" id="Path_1563" fill="#4B7F4E"></path>
                        <polygon id="Path_1564" fill="#1B697D" points="26.3841374 21.5681457 8.19877446 10.2733153 18.0219284 0.289670394 11.0104743 0.289670394 5.24214748 6.15195096 5.24214748 0.289381013 0.283305455 0.289381013 0.283305455 21.5681457 5.24214748 21.5681457 5.24214748 14.3425911 16.8764633 21.5681457"></polygon>
                        <polygon id="Path_1565" fill="#009D90" points="12.0434715 6.36551414 18.0227826 0.28851287 12.0434715 0.28851287"></polygon>
                        <polygon id="Path_1566" fill="#458CBE" points="0.283305455 10.273026 0.283305455 21.5681457 5.24214748 21.5681457 5.24214748 14.3425911 16.8764633 21.5681457 26.3841374 21.5681457 8.19877446 10.2733153 0.283305455 10.2733153"></polygon>
                        <polygon id="Path_1567" fill="#32547D" points="0.283305455 7.75396424 0.283305455 12.7926664 12.2538863 12.7926664 8.19792027 10.2750516 10.6770566 7.75541115"></polygon>
                        <rect id="Rectangle_1030" fill="#3B6447" x="35.4251405" y="7.75367486" width="4.95770311" height="5.0387022"></rect>
                        <g id="Group_1318" transform="translate(28.862989, 7.753675)" fill="#DA3236">
                            <g id="Group_1317">
                                <rect id="Rectangle_1031" x="0" y="0" width="4.95770311" height="5.0387022"></rect>
                            </g>
                        </g>
                        <polygon id="Path_1568" fill="#D77B2E" points="18.9478675 0.289381013 23.9055706 12.7923771 23.9055706 0.289381013"></polygon>
                        <polygon id="Rectangle_1032" fill="#A62830" transform="translate(37.903992, 21.121341) rotate(-90.000000) translate(-37.903992, -21.121341) " points="37.4571878 18.6424898 38.3507964 18.6424898 38.3507964 23.6001929 37.4571878 23.6001929"></polygon>
                        <rect id="Rectangle_1033" fill="#F8C73E" transform="translate(37.903992, 18.602280) rotate(-90.000000) translate(-37.903992, -18.602280) " x="35.8314453" y="16.1234281" width="4.14509363" height="4.95770311"></rect>
                        <g id="Group_1321" transform="translate(45.855906, 5.138539)" fill="#009D90">
                            <g id="Group_1320">
                                <g id="Group_1319">
                                    <path d="M1.18931345,5.79022469 C1.19072054,7.05114301 0.771462795,8.27529695 5.68434189e-14,9.26279684 L4.64108435,11.2902002 C5.62939374,9.63138416 6.15050924,7.72858181 6.14758602,5.78935655 C6.15047169,3.85022751 5.62935703,1.94752835 4.64108435,0.288802251 L5.68434189e-14,2.31620563 C0.771767022,3.30409387 1.19104273,4.52881037 1.18931345,5.79022469 Z" id="Path_1569"></path>
                                </g>
                            </g>
                        </g>
                        <path d="M50.9630923,15.5568339 C51.6498084,14.1138721 52.0054406,12.5313613 52.0032077,10.928474 C52.0054074,9.32568317 51.6497758,7.74327394 50.9630923,6.30040341 C50.2763293,7.7432571 49.9206011,9.32566298 49.9226922,10.928474 C49.920558,12.5313826 50.2762873,14.1138923 50.9630923,15.5568339 L50.9630923,15.5568339 Z" id="Path_1570" fill="#F8C73E"></path>
                        <ellipse id="Ellipse_181" fill="#FFFFFF" cx="26.3844221" cy="19.0487946" rx="1" ry="1"></ellipse>
                        <ellipse id="Ellipse_182" fill="#FFFFFE" cx="56.4953787" cy="3.47922792" rx="1" ry="1"></ellipse>
                        <path d="M26.3844221,21.5681457 L19.7678873,17.4589353 C21.0402481,19.9817591 23.5950569,21.5684275 26.3844221,21.5681457 L26.3844221,21.5681457 Z" id="Path_1571" fill="#DA3236"></path>
                        <path d="M70.3850337,7.75367486 L65.3131543,7.75367486 C65.9078265,8.70217202 66.2230878,9.80378299 66.2217248,10.928474 C66.2218237,11.5618561 66.1219434,12.191153 65.9258913,12.7923771 L70.6959579,12.7923771 C70.8038367,12.1771164 70.858429,11.5534271 70.8591077,10.928474 C70.8601425,9.85191739 70.7002952,8.78144485 70.3850337,7.75367486 L70.3850337,7.75367486 Z" id="Path_1572" fill="#DA3236"></path>
                        <path d="M65.9258913,12.7917983 C65.3528544,14.5427419 64.0116879,15.9235713 62.2964494,16.5285753 L62.2964494,21.3864144 C66.5837076,20.5780366 69.929561,17.1544643 70.6959579,12.7917983 L65.9258913,12.7917983 Z" id="Path_1573" fill="#F8C73E"></path>
                        <path d="M62.2967342,5.32808321 L62.2967342,0.468218479 C62.0074494,0.41410423 61.7147479,0.370118316 61.4177754,0.340601452 L61.4177754,5.09599964 C61.7163073,5.14976539 62.010204,5.22736699 62.2967342,5.32808321 L62.2967342,5.32808321 Z" id="Path_1574" fill="#A62830"></path>
                        <path d="M60.3910423,16.8549971 C58.9358596,16.8570854 57.5329131,16.3039639 56.4597876,15.3050724 L56.4597876,20.7905789 C57.70844,21.3057036 59.0434434,21.5701483 60.3910423,21.5693032 C60.7372729,21.5693032 61.0795173,21.5510722 61.4160671,21.5177934 L61.4160671,16.7623952 C61.0777257,16.8237568 60.7347282,16.8547436 60.3910423,16.8549971 Z" id="Path_1575" fill="#1B697D"></path>
                        <path d="M62.2967342,16.5294435 C62.0101818,16.6299427 61.716287,16.7073503 61.4177754,16.7609483 L61.4177754,21.5163465 C61.7147479,21.4874084 62.0077341,21.4428437 62.2967342,21.3887294 L62.2967342,16.5294435 Z" id="Path_1576" fill="#A62830"></path>
                    </g>
                </g>
            </g>
        </g>
    </g>
</svg>