<?xml version="1.0" encoding="UTF-8"?>
<svg width="105px" height="48px" viewBox="0 0 105 48" version="1.1" xmlns="http://www.w3.org/2000/svg" xmlns:xlink="http://www.w3.org/1999/xlink">
    <!-- Generator: Sketch 53.2 (72643) - https://sketchapp.com -->
    <title>Group 32</title>
    <desc>Created with Sketch.</desc>
    <defs>
        <polygon id="path-1" points="0.438639456 0.336 103.70215 0.336 103.70215 27.58 0.438639456 27.58"></polygon>
    </defs>
    <g id="Page-1" stroke="none" stroke-width="1" fill="none" fill-rule="evenodd">
        <g id="03-Navigation-Copy-2" transform="translate(-168.000000, -740.000000)">
            <g id="Group-32" transform="translate(168.000000, 740.000000)">
                <g id="Group-27">
                    <g id="Group-24">
                        <g id="MetLife_logo" transform="translate(1.000000, 10.000000)">
                            <g id="g74" transform="translate(52.000000, 14.000000) scale(-1, 1) rotate(-180.000000) translate(-52.000000, -14.000000) ">
                                <g id="g76-Clipped">
                                    <mask id="mask-2" fill="white">
                                        <use xlink:href="#path-1"></use>
                                    </mask>
                                    <g id="path78"></g>
                                    <g id="g76" mask="url(#mask-2)">
                                        <g transform="translate(7.782313, 4.200000)">
                                            <g id="g86" transform="translate(10.278242, 0.513730)">
                                                <path d="M0,12.6 C2.08778231,9.8651 3.32658503,6.4589 3.32658503,2.7643 C3.32658503,1.8732 3.25371429,0.9989 3.11434014,0.1456 L9.15907483,0.1456 C9.68473469,0.1456 10.1106395,0.5684 10.1106395,1.0899 L10.1106395,17.6246 C10.1106395,18.2406 9.52413605,18.6963 8.92348299,18.5395 C5.31390476,17.5966 2.18965986,15.4686 0,12.6" id="path88" fill="#99D538" fill-rule="nonzero"></path>
                                            </g>
                                            <g id="g90" transform="translate(0.088789, 0.659680)">
                                                <path d="M7.07482993,0 C6.93616327,0.8526 6.86258503,1.7269 6.86258503,2.6187 C6.86258503,6.3126 8.10209524,9.7195 10.1891701,12.4544 C7.9995102,15.323 4.87526531,17.451 1.26568707,18.3932 C0.665034014,18.55 0.0785306122,18.095 0.0785306122,17.479 L0.0785306122,0.9436 C0.0785306122,0.4228 0.505142857,0 1.03080272,0 L7.07482993,0 Z" id="path92" fill="#239DE0" fill-rule="nonzero"></path>
                                            </g>
                                            <g id="g94" transform="translate(6.740827, 0.513730)">
                                                <path d="M3.53741497,12.6 C1.44963265,9.8651 0.210829932,6.4589 0.210829932,2.7643 C0.210829932,1.8732 0.28370068,0.9989 0.42307483,0.1456 L6.6517551,0.1456 C6.79112925,0.9989 6.864,1.8732 6.864,2.7643 C6.864,6.4589 5.62519728,9.8651 3.53741497,12.6" id="path96" fill="#1563A9" fill-rule="nonzero"></path>
                                            </g>
                                        </g>
                                    </g>
                                </g>
                            </g>
                        </g>
                        <g id="g82" transform="translate(65.514863, 24.092740) scale(1, -1) translate(-65.514863, -24.092740) translate(35.014863, 17.592740)" fill="#4B4B4B" fill-rule="nonzero">
                            <path d="M54.4761905,5.6 C54.4761905,5.7827 54.5158095,5.9675 54.5964626,6.1565 C54.6757007,6.3448 54.7924354,6.5177 54.9466667,6.6759 C55.099483,6.8341 55.2940408,6.9643 55.5275102,7.0679 C55.7602721,7.1715 56.0305306,7.2233 56.3382857,7.2233 C56.6446259,7.2233 56.9092245,7.1715 57.1306667,7.0679 C57.3521088,6.9643 57.5360544,6.8341 57.6839184,6.6759 C57.8310748,6.5177 57.9414422,6.3448 58.0150204,6.1565 C58.0893061,5.9675 58.1253878,5.7827 58.1253878,5.6 L54.4761905,5.6 Z M59.3613605,3.0107 C59.1639728,2.8644 58.8505578,2.6915 58.4211156,2.4906 C57.9902585,2.2904 57.4320544,2.1896 56.7436735,2.1896 C56.0425578,2.1896 55.4928435,2.3632 55.0938231,2.7097 C54.6948027,3.0562 54.4882177,3.4601 54.4761905,3.9221 L60.632,3.9221 L60.632,4.3596 C60.632,5.0771 60.5407347,5.7372 60.3560816,6.3385 C60.1721361,6.9405 59.8983401,7.4571 59.5361088,7.889 C59.1738776,8.3202 58.7274558,8.6576 58.1996735,8.9005 C57.6711837,9.1441 57.0570884,9.2652 56.3566803,9.2652 C55.6562721,9.2652 55.0294422,9.1406 54.4761905,8.8914 C53.9236463,8.6422 53.4567075,8.3111 53.0753741,7.8981 C52.6947483,7.4844 52.4032653,7.0014 52.2002177,6.4477 C51.9978776,5.8947 51.896,5.32 51.896,4.725 C51.896,4.0439 52.0035374,3.4209 52.2186122,2.8553 C52.4336871,2.2904 52.747102,1.8067 53.1588571,1.4056 C53.5699048,1.0045 54.0715102,0.6909 54.6608435,0.4662 C55.2508844,0.2415 55.9137959,0.1288 56.6517007,0.1288 C57.2042449,0.1288 57.6952381,0.1813 58.1253878,0.2842 C58.5562449,0.3878 58.9276735,0.5061 59.2410884,0.6398 C59.5545034,0.7735 59.8091973,0.91 60.0051701,1.05 C60.2025578,1.19 60.3497143,1.2901 60.4480544,1.351 L59.3613605,3.0107 Z M29.9838367,2.7006 C29.8119184,2.5788 29.6279728,2.4724 29.4312925,2.3814 C29.2346122,2.2904 29.0011429,2.2442 28.7308844,2.2442 C28.3743129,2.2442 28.1132517,2.3569 27.9477007,2.5823 C27.7814422,2.807 27.6986667,3.1262 27.6986667,3.5392 L27.6986667,6.9132 L29.9293605,6.9132 L29.9293605,8.974 L27.6986667,8.974 L27.6986667,11.2658 L25.044898,11.2658 L25.044898,8.974 L23.6766259,8.974 L23.6766259,6.9132 L25.044898,6.9132 L25.044898,3.6855 C25.044898,3.15 25.1000816,2.6642 25.210449,2.226 C25.3215238,1.7885 25.5054694,1.4147 25.7637007,1.1046 C26.0212245,0.7945 26.3594014,0.5516 26.7768163,0.3752 C27.1949388,0.1995 27.7114014,0.1106 28.3254966,0.1106 C29.3081905,0.1106 30.2180136,0.4389 31.053551,1.0955 L29.9838367,2.7006 Z M52.9614694,12.019 C52.5681088,12.3473 52.1322993,12.5783 51.6533333,12.712 C51.1736599,12.8457 50.7003537,12.9129 50.233415,12.9129 C49.7919456,12.9129 49.3582585,12.8429 48.9344762,12.7029 C48.5106939,12.5629 48.132898,12.3501 47.800381,12.0645 C47.4685714,11.7789 47.2018503,11.4177 46.9995102,10.9795 C46.7964626,10.542 46.694585,10.0191 46.694585,9.4115 L46.694585,8.974 L45.2944762,8.974 L45.2944762,6.9132 L46.694585,6.9132 L46.694585,0.4207 L49.3299592,0.4207 L49.3299592,6.9132 L51.3767075,6.9132 L51.3767075,8.974 L49.3299592,8.974 L49.3299592,9.4479 C49.3299592,9.8735 49.441034,10.2018 49.6624762,10.4328 C49.8832109,10.6631 50.1782313,10.7793 50.5468299,10.7793 C50.7802993,10.7793 51.0074014,10.7429 51.2288435,10.6701 C51.4502857,10.5966 51.6533333,10.493 51.8372789,10.36 L52.9614694,12.019 Z M41.2971973,0.4207 L43.950966,0.4207 L43.950966,8.974 L42.6237279,8.974 L41.2971973,8.974 L41.2971973,0.4207 Z M32.0468571,0.4207 L40.1333878,0.4207 L40.1333878,2.6733 L34.8300952,2.6733 L34.8300952,12.5846 L32.0468571,12.5846 L32.0468571,0.4207 Z M16.8854966,5.6 C16.8854966,5.7827 16.9251156,5.9675 17.0050612,6.1565 C17.0850068,6.3448 17.2017415,6.5177 17.3552653,6.6759 C17.5087891,6.8341 17.7026395,6.9643 17.9361088,7.0679 C18.1695782,7.1715 18.4398367,7.2233 18.7468844,7.2233 C19.053932,7.2233 19.3185306,7.1715 19.5392653,7.0679 C19.7607075,6.9643 19.9453605,6.8341 20.092517,6.6759 C20.2396735,6.5177 20.3507483,6.3448 20.4243265,6.1565 C20.4979048,5.9675 20.5346939,5.7827 20.5346939,5.6 L16.8854966,5.6 Z M21.7699592,3.0107 C21.5732789,2.8644 21.2598639,2.6915 20.8297143,2.4906 C20.3995646,2.2904 19.8406531,2.1896 19.1522721,2.1896 C18.4518639,2.1896 17.9021497,2.3632 17.5031293,2.7097 C17.1034014,3.0562 16.8975238,3.4601 16.8854966,3.9221 L23.0413061,3.9221 L23.0413061,4.3596 C23.0413061,5.0771 22.9493333,5.7372 22.7653878,6.3385 C22.5807347,6.9405 22.3069388,7.4571 21.9447075,7.889 C21.5824762,8.3202 21.1367619,8.6576 20.6082721,8.9005 C20.0804898,9.1441 19.4656871,9.2652 18.7652789,9.2652 C18.0648707,9.2652 17.4387483,9.1406 16.8854966,8.8914 C16.3329524,8.6422 15.8653061,8.3111 15.4846803,7.8981 C15.1033469,7.4844 14.8118639,7.0014 14.6095238,6.4477 C14.4064762,5.8947 14.3053061,5.32 14.3053061,4.725 C14.3053061,4.0439 14.4121361,3.4209 14.6279184,2.8553 C14.8422857,2.2904 15.1557007,1.8067 15.5674558,1.4056 C15.9792109,1.0045 16.4801088,0.6909 17.0694422,0.4662 C17.659483,0.2415 18.323102,0.1288 19.0602993,0.1288 C19.613551,0.1288 20.1045442,0.1813 20.5346939,0.2842 C20.9648435,0.3878 21.3369796,0.5061 21.6503946,0.6398 C21.963102,0.7735 22.2185034,0.91 22.4144762,1.05 C22.6111565,1.19 22.7590204,1.2901 22.8573605,1.351 L21.7699592,3.0107 Z M0.407510204,0.4207 L3.06127891,0.4207 L3.37469388,8.3174 L6.06595918,3.6302 L7.50356463,3.6302 L10.046966,8.372 L10.3971701,0.4207 L13.1804082,0.4207 L12.6087619,12.5846 L9.95428571,12.5846 L6.82155102,6.8768 L3.61453061,12.5846 L0.97844898,12.5846 L0.407510204,0.4207 Z M42.6237279,9.9519 C41.8044626,9.9519 41.1281088,10.6211 41.1281088,11.4324 C41.1281088,12.2437 41.8044626,12.9129 42.6237279,12.9129 C43.4642177,12.9129 44.1200544,12.264 44.1200544,11.4324 C44.1200544,10.6211 43.4437007,9.9519 42.6237279,9.9519 L42.6237279,9.9519 Z" id="path84"></path>
                        </g>
                    </g>
                </g>
            </g>
        </g>
    </g>
</svg>