<?xml version="1.0" encoding="UTF-8"?>
<svg width="105px" height="48px" viewBox="0 0 105 48" version="1.1" xmlns="http://www.w3.org/2000/svg" xmlns:xlink="http://www.w3.org/1999/xlink">
    <!-- Generator: Sketch 53.2 (72643) - https://sketchapp.com -->
    <title>Group 13 Copy</title>
    <desc>Created with Sketch.</desc>
    <g id="Page-1" stroke="none" stroke-width="1" fill="none" fill-rule="evenodd">
        <g id="03-Navigation-Copy-2" transform="translate(-1141.000000, -898.000000)">
            <g id="Group-13-Copy" transform="translate(1141.000000, 898.000000)">
                <g id="logo-2" transform="translate(1.000000, 3.500000)" fill-rule="nonzero">
                    <g id="logo">
                        <path d="M20.1308026,31.8032086 C19.3934924,32.6566845 18.3433839,33.9144385 18.5444685,34.8802139 L18.5444685,34.8802139 C18.7455531,35.6213904 19.8180043,36.1604278 19.8180043,36.1604278 L22.1416486,37.4406417 L20.6670282,38.7208556 L22.4544469,39.259893 C22.4544469,39.259893 20.7563991,40.9668449 20.6670282,41.168984 C20.2425163,41.2812834 19.7062907,41.2812834 19.1924078,41.2812834 C15.3941432,41.2812834 10.1212581,39.057754 8.84772234,39.057754 C7.26138829,39.057754 5.2505423,39.9112299 5.2505423,39.9112299 L6.30065076,38.7433155 C6.30065076,38.7433155 4.93774403,39.057754 3.66420824,38.9454545 L5.4516269,37.6652406 C3.86529284,37.6652406 2.39067245,37.1262032 1.76507592,36.6096257 C1.76507592,36.6096257 4.7143167,36.4074866 8.84772234,36.4074866 C10.5457701,36.4074866 13.2715835,36.6096257 13.2715835,36.6096257 C11.9086768,35.9807487 10.635141,35.2395722 10.0989154,33.8470588 L12.7353579,34.2737968 C11.6852495,33.6449198 9.98720174,31.9379679 9.78611714,30.5679144 L12.7353579,31.6235294 C12.1991323,31.084492 10.4117137,29.4 10.0989154,27.3786096 L12.4225597,28.8609626 C11.7969631,28.2320856 10.2106291,25.0427807 10.4117137,24.0770053 L12.5119306,25.5593583 C11.4618221,24.2791444 10.3,20.8877005 11.1490239,19.5176471 C11.7746204,22.055615 13.2492408,23.0213904 13.2492408,23.0213904 C12.2885033,21.6513369 10.1882863,16.6652406 12.1991323,14.5315508 C12.7353579,19.4053476 14.8355748,21.1122995 14.8355748,21.1122995 C13.1375271,18.3497326 11.1490239,9.85989305 14.8355748,8.17540107 C14.0982646,13.5882353 15.8856833,16.5529412 15.8856833,16.5529412 C14.8355748,11.5668449 14.8355748,4.44705882 18.5221258,3.81818182 C16.7347072,9.11871658 17.9859002,13.2513369 17.9859002,13.2513369 C17.3603037,0.741176471 21.3596529,0.943315508 21.3596529,0.943315508 C21.3596529,0.943315508 20.7340564,4.44705882 20.7340564,10.8032086 L20.7340564,29.0631016 C20.7563991,30.4106952 20.6446855,31.1743316 20.1308026,31.8032086 L20.1308026,31.8032086 Z M22.5438178,36.2502674 C24.1301518,36.3625668 25.291974,36.4524064 26.4537961,36.6770053 C26.878308,36.7893048 27.0793926,37.2160428 27.0793926,37.5304813 C26.543167,37.4181818 25.7164859,37.3283422 25.7164859,37.3283422 L25.7164859,37.8673797 C25.7164859,37.8673797 26.4537961,37.6652406 27.30282,37.6652406 C27.30282,37.6652406 29.0008677,37.6652406 28.889154,38.8331551 C28.4646421,38.5187166 27.5262473,38.631016 27.1911063,38.7208556 C26.3420824,38.8331551 25.4930586,39.259893 24.6663774,39.7764706 C23.8173536,40.2032086 22.8789588,40.742246 21.8065076,41.0566845 C22.2310195,40.6299465 23.5045553,39.259893 23.5045553,39.259893 L21.8065076,38.4064171 L23.1694143,37.2385027 L21.0691974,36.0705882 C21.605423,36.1604278 22.0299349,36.1604278 22.5438178,36.2502674 L22.5438178,36.2502674 Z M22.6555315,34.3411765 L30.1403471,34.3411765 L30.1403471,9.61283422 L23.281128,9.61283422 L23.281128,24.997861 L21.270282,23.0887701 L21.270282,10.7807487 C21.270282,3.57112299 22.1193059,0.179679144 22.1193059,0.179679144 C19.7956616,0.179679144 18.6338395,2.40320856 18.3210412,3.05454545 C17.0475054,3.16684492 15.997397,3.90802139 15.3718004,5.39037433 C14.9472885,6.24385027 14.7462039,6.98502674 14.7462039,7.41176471 C11.9980477,8.04064171 11.7969631,12.9368984 11.9980477,13.7679144 L7.77527115,9.63529412 L0.178741866,9.63529412 L0.178741866,34.3636364 L7.03796095,34.3636364 L7.03796095,19.4053476 L10.3,22.5946524 C10.6127983,23.4481283 10.9255965,23.8748663 10.9255965,23.8748663 L9.65206074,22.7069519 C9.45097614,25.1550802 10.0765727,26.4128342 10.7021692,27.2663102 L9.11583514,25.8962567 C9.00412148,28.344385 10.1659436,29.826738 10.9032538,30.455615 L8.80303688,29.4 C8.69132321,30.8823529 10.0765727,32.9037433 10.9032538,33.3304813 L9.11583514,33.1283422 C9.54034707,35.1497326 10.9032538,35.7786096 10.9032538,35.7786096 C10.9032538,35.7786096 7.84229935,35.8909091 6.47939262,35.8909091 C2.68112798,35.8909091 0.156399132,36.2053476 0.156399132,36.2053476 C0.156399132,36.2053476 1.85444685,37.9122995 4.06637744,38.002139 L2.16724512,39.1700535 C3.53015184,39.7090909 4.80368764,39.484492 4.80368764,39.484492 L3.64186551,40.8545455 C3.64186551,40.8545455 7.12733189,39.484492 8.60195228,39.5743316 C9.7637744,39.686631 15.2600868,41.797861 18.9466377,41.797861 C21.4713666,41.797861 23.281128,40.8320856 24.6440347,40.0909091 C25.4930586,39.6641711 26.3420824,39.2374332 27.0793926,39.1251337 C28.4422993,38.9229947 28.9785249,39.4395722 28.9785249,39.4395722 C29.0902386,38.9005348 29.5147505,37.4181818 27.3921909,37.1037433 C27.2804772,36.6770053 26.967679,36.2502674 26.3420824,36.1379679 C25.1802603,35.9358289 20.2201735,35.5989305 20.1084599,35.5989305 C19.6839479,35.5989305 18.3210412,35.284492 19.5722343,33.3754011 C19.6839479,33.2631016 20.3095445,32.4096257 20.3095445,32.4096257 L22.6555315,34.3411765 L22.6555315,34.3411765 Z" id="Shape" fill="#1658A5"></path>
                        <path d="M60.3477223,18.2149733 C60.8839479,18.2149733 61.3978308,18.6417112 61.3978308,19.1807487 C61.3978308,19.7197861 60.8616052,20.1465241 60.3477223,20.1465241 C59.8114967,20.1465241 59.2976139,19.7197861 59.2976139,19.1807487 C59.2976139,18.6417112 59.6997831,18.2149733 60.3477223,18.2149733" id="Path" fill="#969696"></path>
                        <path d="M87.1590022,18.2149733 C87.6952278,18.2149733 88.2091106,18.6417112 88.2091106,19.1807487 C88.2091106,19.7197861 87.672885,20.1465241 87.1590022,20.1465241 C86.6451193,20.1465241 86.1088937,19.7197861 86.1088937,19.1807487 C86.1088937,18.6417112 86.5110629,18.2149733 87.1590022,18.2149733" id="Path" fill="#969696"></path>
                        <path d="M53.0639913,23.4256684 L53.0639913,27.1315508 L51.4776573,27.1315508 L51.4776573,26.5026738 C51.0531453,26.9294118 50.5169197,27.2438503 49.6902386,27.2438503 C48.4167028,27.2438503 47.3665944,26.5026738 47.3665944,25.3347594 C47.3665944,23.5379679 49.2657267,23.1112299 51.164859,23.1112299 L51.3659436,23.1112299 C51.3659436,22.5721925 51.164859,22.1454545 50.2041215,22.1454545 C49.5785249,22.1454545 48.9305857,22.3475936 48.5060738,22.7743316 L47.5453362,21.8085561 C48.1709328,21.1796791 49.1316703,20.7529412 50.1817787,20.7529412 C51.2318872,20.7529412 51.7681128,20.8652406 52.3937093,21.3818182 C52.9522777,22.0331551 53.0639913,22.886631 53.0639913,23.4256684 M51.3659436,24.4812834 L51.2542299,24.4812834 C50.9414317,24.4812834 50.2934924,24.4812834 49.7796095,24.6834225 C49.4668113,24.7957219 49.154013,24.997861 49.154013,25.3122995 C49.154013,25.7390374 49.5785249,25.9411765 50.0030369,25.9411765 C50.8520607,25.9411765 51.3659436,25.402139 51.3659436,24.6609626 L51.3659436,24.4812834" id="Shape" fill="#969696"></path>
                        <path d="M56.6388286,20.9775401 L56.6388286,19.0684492 L54.85141,19.0684492 L54.85141,20.9775401 L53.6895879,20.9775401 L53.6895879,22.459893 L54.85141,22.459893 L54.85141,25.1101604 C54.85141,25.9636364 54.9631236,26.4802139 55.3876356,26.9069519 C55.7004338,27.2213904 56.2366594,27.4459893 56.9739696,27.4459893 C57.3984816,27.4459893 57.9347072,27.3336898 58.2475054,27.2438503 L58.2475054,25.6491979 C58.0464208,25.7614973 57.7112798,25.7614973 57.2867679,25.7614973 C56.7505423,25.7614973 56.6611714,25.4470588 56.6611714,24.9080214 L56.6611714,22.459893 L58.2475054,22.459893 L58.2475054,20.9775401 L56.6388286,20.9775401" id="Path" fill="#969696"></path>
                        <path d="M102.977657,24.1668449 L102.977657,24.5935829 L98.4420824,24.5935829 C98.4420824,25.2224599 99.1793926,25.7614973 100.028416,25.7614973 C100.765727,25.7614973 101.190239,25.4470588 101.614751,25.0203209 L102.776573,25.8737968 C102.150976,26.7272727 101.301952,27.2438503 100.028416,27.2438503 C98.1292842,27.2438503 96.6546638,26.0759358 96.6546638,23.9647059 C96.6546638,22.257754 97.7047722,20.6855615 99.8273319,20.6855615 C102.150976,20.8652406 102.977657,22.5721925 102.977657,24.1668449 M101.078525,23.4256684 C100.966811,22.7967914 100.654013,22.257754 99.7156182,22.257754 C98.978308,22.257754 98.4420824,22.7967914 98.3527115,23.4256684 L101.078525,23.4256684" id="Shape" fill="#969696"></path>
                        <polyline id="Path" fill="#969696" points="44.3950108 18.2149733 44.3950108 24.2566845 40.5967462 18.2149733 38.273102 18.2149733 38.273102 27.1315508 40.1722343 27.1315508 40.1722343 20.8652406 44.0822126 27.1315508 46.2941432 27.1315508 46.2941432 18.2149733 44.3950108 18.2149733"></polyline>
                        <polyline id="Path" fill="#969696" points="83.7852495 20.9775401 82.7127983 24.7957219 81.7744035 20.9775401 79.9646421 20.9775401 79.0262473 24.7957219 77.9761388 20.9775401 76.0770065 20.9775401 77.9761388 27.1315508 79.7635575 27.1315508 80.8136659 23.313369 81.9754881 27.1315508 83.6735358 27.1315508 85.6843818 20.9775401 83.7852495 20.9775401"></polyline>
                        <rect id="Rectangle" fill="#969696" x="59.3869848" y="20.9775401" width="1.78741866" height="6.1540107"></rect>
                        <rect id="Rectangle" fill="#969696" x="86.1982646" y="20.9775401" width="1.78741866" height="6.1540107"></rect>
                        <path d="M74.9151844,21.4042781 C74.4906725,20.9775401 74.0661605,20.8652406 73.440564,20.8652406 C72.8149675,20.8652406 71.9659436,21.1796791 71.6531453,21.7187166 L71.6531453,21.0898396 L69.9550976,21.0898396 L69.9550976,27.2438503 L71.7425163,27.2438503 L71.7425163,23.8524064 C71.7425163,23.4256684 71.8542299,23.1112299 72.0553145,22.886631 C72.2563991,22.684492 72.4798265,22.5721925 72.7926247,22.5721925 C73.2171367,22.5721925 73.4182213,22.684492 73.5299349,22.886631 C73.7310195,23.0887701 73.7310195,23.515508 73.7310195,24.1668449 L73.7310195,27.3561497 L75.5184382,27.3561497 L75.5184382,23.5379679 C75.5407809,22.5721925 75.4290672,21.9433155 74.9151844,21.4042781" id="Path" fill="#969696"></path>
                        <path d="M95.6939262,18.2149733 L95.6939262,27.2438503 L93.9958785,27.2438503 L93.9958785,26.6149733 C93.5713666,27.0417112 92.9457701,27.4684492 92.0967462,27.4684492 C91.2477223,27.4684492 90.5104121,27.1540107 89.9965293,26.6149733 C89.3709328,25.9860963 89.0357918,25.1326203 89.0357918,24.1668449 C89.0357918,22.257754 90.3093275,20.8877005 91.9850325,20.8877005 C92.7223427,20.8877005 93.3479393,21.0898396 93.8841649,21.628877 L93.8841649,18.2374332 L95.6939262,18.2374332 L95.6939262,18.2149733 Z M93.9065076,24.0545455 C93.9065076,23.2010695 93.370282,22.3475936 92.3201735,22.3475936 C91.2700651,22.3475936 90.7338395,23.2010695 90.7338395,24.0545455 C90.7338395,24.9080214 91.2700651,25.7614973 92.3201735,25.7614973 C93.370282,25.7614973 93.9065076,24.9080214 93.9065076,24.0545455 L93.9065076,24.0545455 Z" id="Shape" fill="#969696"></path>
                        <path d="M68.8826464,24.0545455 C68.8826464,25.9636364 67.5197397,27.3336898 65.5088937,27.3336898 C63.6097614,27.3336898 62.135141,25.9636364 62.135141,24.0545455 C62.135141,22.1454545 63.4980477,20.7754011 65.5088937,20.7754011 C67.5197397,20.8652406 68.8826464,22.1454545 68.8826464,24.0545455 M65.5088937,22.3475936 C64.4587852,22.3475936 63.9225597,23.2010695 63.9225597,24.0545455 C63.9225597,24.9080214 64.4587852,25.7614973 65.5088937,25.7614973 C66.5590022,25.7614973 67.0952278,24.9080214 67.0952278,24.0545455 C67.0952278,23.2010695 66.5590022,22.3475936 65.5088937,22.3475936" id="Shape" fill="#969696"></path>
                        <path d="M20.1308026,31.8032086 C19.3934924,32.6566845 18.3433839,33.9144385 18.5444685,34.8802139 L18.5444685,34.8802139 C18.7455531,35.6213904 19.8180043,36.1604278 19.8180043,36.1604278 L22.1416486,37.4406417 L20.6670282,38.7208556 L22.4544469,39.259893 C22.4544469,39.259893 20.7563991,40.9668449 20.6670282,41.168984 C20.2425163,41.2812834 19.7062907,41.2812834 19.1924078,41.2812834 C15.3941432,41.2812834 10.1212581,39.057754 8.84772234,39.057754 C7.26138829,39.057754 5.2505423,39.9112299 5.2505423,39.9112299 L6.30065076,38.7433155 C6.30065076,38.7433155 4.93774403,39.057754 3.66420824,38.9454545 L5.4516269,37.6652406 C3.86529284,37.6652406 2.39067245,37.1262032 1.76507592,36.6096257 C1.76507592,36.6096257 4.7143167,36.4074866 8.84772234,36.4074866 C10.5457701,36.4074866 13.2715835,36.6096257 13.2715835,36.6096257 C11.9086768,35.9807487 10.635141,35.2395722 10.0989154,33.8470588 L12.7353579,34.2737968 C11.6852495,33.6449198 9.98720174,31.9379679 9.78611714,30.5679144 L12.7353579,31.6235294 C12.1991323,31.084492 10.4117137,29.4 10.0989154,27.3786096 L12.4225597,28.8609626 C11.7969631,28.2320856 10.2106291,25.0427807 10.4117137,24.0770053 L12.5119306,25.5593583 C11.4618221,24.2791444 10.3,20.8877005 11.1490239,19.5176471 C11.7746204,22.055615 13.2492408,23.0213904 13.2492408,23.0213904 C12.2885033,21.6513369 10.1882863,16.6652406 12.1991323,14.5315508 C12.7353579,19.4053476 14.8355748,21.1122995 14.8355748,21.1122995 C13.1375271,18.3497326 11.1490239,9.85989305 14.8355748,8.17540107 C14.0982646,13.5882353 15.8856833,16.5529412 15.8856833,16.5529412 C14.8355748,11.5668449 14.8355748,4.44705882 18.5221258,3.81818182 C16.7347072,9.11871658 17.9859002,13.2513369 17.9859002,13.2513369 C17.3603037,0.741176471 21.3596529,0.943315508 21.3596529,0.943315508 C21.3596529,0.943315508 20.7340564,4.44705882 20.7340564,10.8032086 L20.7340564,29.0631016 C20.7563991,30.4106952 20.6446855,31.1743316 20.1308026,31.8032086 L20.1308026,31.8032086 Z M22.5438178,36.2502674 C24.1301518,36.3625668 25.291974,36.4524064 26.4537961,36.6770053 C26.878308,36.7893048 27.0793926,37.2160428 27.0793926,37.5304813 C26.543167,37.4181818 25.7164859,37.3283422 25.7164859,37.3283422 L25.7164859,37.8673797 C25.7164859,37.8673797 26.4537961,37.6652406 27.30282,37.6652406 C27.30282,37.6652406 29.0008677,37.6652406 28.889154,38.8331551 C28.4646421,38.5187166 27.5262473,38.631016 27.1911063,38.7208556 C26.3420824,38.8331551 25.4930586,39.259893 24.6663774,39.7764706 C23.8173536,40.2032086 22.8789588,40.742246 21.8065076,41.0566845 C22.2310195,40.6299465 23.5045553,39.259893 23.5045553,39.259893 L21.8065076,38.4064171 L23.1694143,37.2385027 L21.0691974,36.0705882 C21.605423,36.1604278 22.0299349,36.1604278 22.5438178,36.2502674 L22.5438178,36.2502674 Z" id="Shape" fill="none"></path>
                    </g>
                </g>
            </g>
        </g>
    </g>
</svg>