<?xml version="1.0" encoding="UTF-8"?>
<svg width="105px" height="48px" viewBox="0 0 105 48" version="1.1" xmlns="http://www.w3.org/2000/svg" xmlns:xlink="http://www.w3.org/1999/xlink">
    <!-- Generator: Sketch 53.2 (72643) - https://sketchapp.com -->
    <title>Group 33</title>
    <desc>Created with Sketch.</desc>
    <g id="Page-1" stroke="none" stroke-width="1" fill="none" fill-rule="evenodd">
        <g id="03-Navigation-Copy-2" transform="translate(-168.000000, -650.000000)">
            <g id="Group-33" transform="translate(168.000000, 650.000000)">
                <g id="Group-28">
                    <g id="Group-25">
                        <rect id="Rectangle-Copy-51" fill="#FFFFFF" x="0" y="0" width="105" height="48"></rect>
                        <g id="Patterson-Companies_id1IKqmR-F_1-2" transform="translate(17.000000, 9.000000)" fill="#4B4B4B" fill-rule="nonzero">
                            <g id="Patterson-Companies_id1IKqmR-F_1">
                                <path d="M0.0340540541,14.0006383 C0.588648649,14.0251064 1.14324324,14.0251064 1.69297297,14.0251064 C2.11135135,14.0251064 2.54432432,14.0006383 3.06,14.0006383 C4.32486486,14.0006383 6.14432432,14.5340426 6.14432432,16.4474468 C6.14432432,17.9155319 4.79189189,18.9187234 3.5027027,18.9187234 C3.25459459,18.9187234 3.06,18.9187234 2.87513514,18.9187234 L2.87513514,18.5125532 C3.03637249,18.5339315 3.19906847,18.5421144 3.36162162,18.5370213 C4.4172973,18.5370213 4.88432432,17.4848936 4.88432432,16.5795745 C4.88432432,14.8619149 3.69243243,14.3823404 2.88486486,14.3823404 C2.7024441,14.3789457 2.52008911,14.392048 2.34,14.4214894 L2.34,21.4046809 C2.34,22.2708511 2.82648649,22.2806383 3.47351351,22.2904255 L3.47351351,22.6378723 C2.87027027,22.6378723 2.34,22.6378723 1.8,22.6378723 C1.26,22.6378723 0.632432432,22.6378723 0.0194594595,22.6378723 L0.0194594595,22.3148936 C0.671351351,22.3148936 1.13837838,22.3148936 1.13837838,21.4291489 L1.13837838,15.5568085 C1.13837838,14.6074468 0.977837838,14.3480851 0.0535135135,14.3480851 L0.0340540541,14.0006383 Z" id="Path"></path>
                                <path d="M12.7702703,20.1910638 C12.9556947,20.8084791 13.1882792,21.4105556 13.4659459,21.9919149 C13.7208864,22.2494742 14.0807434,22.3725487 14.4389189,22.3246809 L14.4389189,22.6378723 C13.9524324,22.6378723 13.4659459,22.6378723 13.0232432,22.6378723 C12.4248649,22.6378723 11.8313514,22.6378723 11.232973,22.6378723 L11.232973,22.3148936 L11.4518919,22.3148936 C11.7583784,22.3148936 12.1281081,22.2561702 12.1281081,21.9087234 C12.0963125,21.6637513 12.0342097,21.4237358 11.9432432,21.1942553 L11.3302703,19.3982979 L8.44054054,19.3982979 L8.17297297,20.2644681 C7.99955485,20.7375043 7.88675485,21.2308376 7.8372973,21.7325532 C7.8372973,22.31 8.24594595,22.2904255 8.67405405,22.31 L8.95621622,22.31 L8.95621622,22.6378723 C8.46972973,22.6378723 7.98324324,22.6378723 7.49675676,22.6378723 C7.01027027,22.6378723 6.52378378,22.6378723 6.0372973,22.6378723 L6.0372973,22.3148936 C6.78648649,22.2317021 6.91783784,22.1338298 7.22918919,21.4389362 C7.42378378,20.993617 7.56972973,20.5140426 7.71567568,20.0540426 L9.28702703,15.6497872 C9.43178176,15.2938899 9.52041644,14.9174428 9.54972973,14.5340426 C9.55541535,14.4255326 9.54558535,14.3167636 9.52054054,14.2110638 C9.80964833,14.1099166 10.0598231,13.9198926 10.2356757,13.6678723 L10.4448649,13.6678723 L12.7702703,20.1910638 Z M8.59135135,18.9040426 L11.1356757,18.9040426 L9.82216216,15.2680851 L9.79783784,15.2680851 L8.59135135,18.9040426 Z" id="Shape"></path>
                                <path d="M28.6491892,13.6531915 C28.6005405,13.8880851 28.2940541,14.0006383 27.8513514,14.0006383 L15.0275676,14.0006383 C14.7210811,14.0006383 14.3902703,14.0006383 14.2540541,13.6531915 L14.0059459,13.6531915 L13.8745946,15.6106383 L14.1908108,15.6106383 C14.4,14.8080851 14.4535135,14.4997872 15.5578378,14.4997872 L17.1681081,14.4997872 L17.1681081,21.4095745 C17.1681081,22.2757447 16.6816216,22.2855319 16.0491892,22.2953191 L16.0491892,22.6378723 C16.6621622,22.6378723 17.2410811,22.6378723 17.8297297,22.6378723 C18.4183784,22.6378723 18.9,22.6378723 19.4886486,22.6378723 L19.4886486,22.3148936 C18.8367568,22.3148936 18.3697297,22.3148936 18.3697297,21.4291489 L18.3697297,14.5095745 L20.2378378,14.5095745 C20.9189189,14.5095745 21.1086486,14.7934043 21.1718919,15.1457447 L21.2010811,15.6351064 L21.5513514,15.6351064 L21.5805405,15.1457447 C21.6389189,14.783617 21.7313514,14.5095745 22.5535135,14.5095745 L24.4216216,14.5095745 L24.4216216,21.4193617 C24.4216216,22.2855319 23.9351351,22.2953191 23.3027027,22.3051064 L23.3027027,22.6378723 C23.9156757,22.6378723 24.4945946,22.6378723 25.0832432,22.6378723 C25.6718919,22.6378723 26.1535135,22.6378723 26.7421622,22.6378723 L26.7421622,22.3148936 C26.0902703,22.3148936 25.6232432,22.3148936 25.6232432,21.4291489 L25.6232432,14.5095745 L27.4913514,14.5095745 C28.4643243,14.5095745 28.4351351,14.9548936 28.4643243,15.6204255 L28.7951351,15.6204255 L28.907027,13.6629787 L28.6491892,13.6531915 Z" id="Path"></path>
                                <path d="M31.5681081,17.9057447 L33.1881081,17.9057447 C34.1854054,17.9057447 34.1854054,17.1276596 34.2194595,16.8438298 L34.4675676,16.8438298 C34.4432432,17.1129787 34.4189189,17.7834043 34.4189189,18.2287234 C34.4189189,18.6740426 34.4772973,19.2074468 34.4675676,19.5989362 L34.2194595,19.5989362 C34.2194595,18.4146809 33.8302703,18.4146809 32.8816216,18.4146809 L31.5681081,18.4146809 L31.5681081,20.5140426 C31.5681081,21.8842553 31.6167568,22.2317021 32.832973,22.2317021 L33.5967568,22.2317021 C34.7983784,22.1729787 35.3383784,22.0114894 35.8151351,20.6902128 L36.1118919,20.7391489 C35.9128517,21.3585964 35.7504059,21.989343 35.6254054,22.6280851 C34.3945946,22.6280851 33.192973,22.6280851 31.9378378,22.6280851 C31.0281081,22.6280851 30.1183784,22.6280851 29.2086486,22.6280851 L29.2086486,22.3051064 C30.2789189,22.3051064 30.3762162,22.1093617 30.3762162,20.9104255 L30.3762162,15.4197872 C30.3762162,14.4068085 30.1816216,14.362766 29.2086486,14.323617 L29.2086486,14.0006383 C30.0308108,14.0251064 30.8675676,14.0251064 31.6945946,14.0251064 C32.8718919,14.0251064 34.0394595,14.0251064 35.2313514,14.0006383 L35.2313514,15.8406383 L34.9832432,15.9042553 C34.8032432,14.7444681 34.2486486,14.3970213 33.0372973,14.3970213 L31.5778378,14.3970213 L31.5681081,17.9057447 Z" id="Path"></path>
                                <path d="M38.7583784,18.5517021 L38.7583784,21.4193617 C38.7583784,22.2855319 39.2448649,22.2953191 39.8772973,22.3051064 L39.8772973,22.6378723 C39.2886486,22.6378723 38.7583784,22.6378723 38.2183784,22.6378723 C37.6783784,22.6378723 37.0508108,22.6378723 36.4378378,22.6378723 L36.4378378,22.3148936 C37.0508108,22.3540426 37.5518919,22.1925532 37.5518919,21.4878723 L37.5518919,15.2240426 C37.5518919,14.3578723 37.0654054,14.3431915 36.4378378,14.3334043 L36.4378378,14.0104255 C37.1091892,14.0104255 37.7027027,14.0348936 38.3059459,14.0348936 C38.7340541,14.0348936 39.1621622,14.0104255 39.9502703,14.0104255 C42.2708108,14.0104255 42.7864865,15.3219149 42.7864865,16.1978723 C42.7432011,17.215795 42.0311646,18.0800904 41.0448649,18.3119149 C42.1637838,19.9561702 42.7524324,20.9446809 43.2827027,21.5417021 C43.5984944,22.0041713 44.1119562,22.2905097 44.6691892,22.3148936 L44.6691892,22.6378723 C44.3627027,22.6378723 44.0562162,22.6378723 43.7497297,22.6378723 C43.4432432,22.6378723 43.0443243,22.6378723 42.7037838,22.6378723 C41.6471636,21.3631186 40.7015154,19.9992967 39.8772973,18.5614894 L38.7583784,18.5517021 Z M39.492973,14.3970213 C39.2464542,14.3999957 39.0006611,14.4245565 38.7583784,14.4704255 L38.7583784,18.0917021 C38.9732112,18.1334275 39.1914704,18.1547271 39.4102703,18.1553191 C40.9232432,18.1553191 41.5118919,17.1521277 41.5118919,16.2614894 C41.5118919,15.1848936 40.9475676,14.3970213 39.492973,14.3970213 Z" id="Shape"></path>
                                <path d="M45.1216216,20.5923404 L45.4086486,20.5923404 C45.6178378,21.517234 46.3037838,22.4176596 47.3254054,22.4176596 C47.7692303,22.4379705 48.2016767,22.2729236 48.520405,21.9615778 C48.8391334,21.650232 49.015819,21.2202558 49.0086486,20.7734043 C49.0086486,18.4782979 45.3697297,19.153617 45.3697297,16.2370213 C45.3697297,14.6465957 46.4983784,13.8146809 48.0016216,13.8146809 C48.5049207,13.8398313 49.0057165,13.9019829 49.5,14.0006383 L49.6945946,15.5812766 L49.4124324,15.5812766 C49.3426771,14.7664445 48.637779,14.1574323 47.8264865,14.2110638 C47.4192239,14.2098579 47.0299849,14.3798833 46.752826,14.6800547 C46.4756671,14.9802261 46.3358017,15.3832367 46.367027,15.7917021 C46.367027,18.0917021 50.1518919,17.4604255 50.1518919,20.3085106 C50.1518919,21.913617 48.6924324,22.8140426 47.267027,22.8140426 C46.6165467,22.8127418 45.9741307,22.6691389 45.3843243,22.3931915 L45.1216216,20.5923404 Z" id="Path"></path>
                                <path d="M55.5324324,13.8293617 C57.3429357,13.8076939 58.9880631,14.8854571 59.7004155,16.5599093 C60.4127679,18.2343615 60.0519965,20.1755993 58.7863895,21.4780976 C57.5207824,22.7805958 55.5996919,23.187734 53.9192449,22.5095953 C52.238798,21.8314566 51.1300792,20.201649 51.1102703,18.3804255 C51.0920813,17.1856689 51.5488593,16.0330557 52.3791688,15.1785435 C53.2094784,14.3240312 54.3445898,13.8383529 55.5324324,13.8293617 L55.5324324,13.8293617 Z M55.6443243,22.4323404 C57.4394595,22.4323404 58.5632432,20.8761702 58.5632432,18.6397872 C58.5632432,16.7606383 57.4832432,14.2355319 55.3816216,14.2355319 C53.5864865,14.2355319 52.4627027,15.7965957 52.4627027,18.0280851 C52.487027,19.8876596 53.5427027,22.4176596 55.6443243,22.4176596 L55.6443243,22.4323404 Z" id="Shape"></path>
                                <path d="M68.7940541,22.7406383 L68.5118919,22.7406383 L62.0805405,15.6448936 L62.0805405,20.2546809 C62.0805405,21.9625532 62.2167568,22.3051064 63.54,22.3051064 L63.54,22.6378723 C63,22.6378723 62.4454054,22.6378723 61.9054054,22.6378723 C61.3654054,22.6378723 60.8108108,22.6378723 60.2708108,22.6378723 L60.2708108,22.3148936 C61.02,22.3148936 61.5843243,22.3148936 61.5843243,20.7489362 L61.5843243,15.7868085 C61.5843243,14.72 61.1318919,14.3187234 60.0762162,14.3187234 L60.0762162,13.9957447 C60.4556757,13.9957447 60.8254054,14.0202128 61.2048649,14.0202128 C61.5843243,14.0202128 61.8810811,13.9957447 62.2118919,13.9957447 C62.6983784,14.7493617 63.8610811,15.8748936 65.2621622,17.4212766 C66.3032432,18.5859574 67.4610811,19.8093617 68.2978378,20.7244681 L68.2978378,15.8161702 C68.2978378,14.6808511 68.0351351,14.3480851 66.8091892,14.323617 L66.8091892,14.0006383 C67.3735135,14.0006383 67.9524324,14.0251064 68.5167568,14.0251064 C69.0032432,14.0251064 69.4605405,14.0006383 69.9421622,14.0006383 L69.9421622,14.3187234 C69.192973,14.3187234 68.7891892,14.3774468 68.7891892,15.5910638 L68.7940541,22.7406383 Z" id="Path"></path>
                                <path d="M29.9772973,0.0929787234 C27.6956323,0.403531605 25.468538,1.03442746 23.3610811,1.96723404 C21.1856151,3.06192195 19.2035789,4.50846553 17.4940541,6.24914894 C18.2471689,6.22908531 19.000809,6.25195885 19.7513514,6.31765957 C21.9839489,6.48742058 24.1709256,7.04194818 26.2167568,7.95702128 C27.6762162,6.59170213 30.0162162,4.26234043 33.0518919,3.37170213 C38.3059459,1.82531915 41.76,4.35042553 41.76,4.35042553 C41.76,4.35042553 39.06,-0.734042553 29.9772973,0.0929787234 Z" id="Path"></path>
                                <path d="M41.9594595,10.4038298 C44.2490701,10.0877722 46.4829472,9.44857361 48.5951351,8.50510638 C50.7602545,7.40768737 52.7322569,5.96127058 54.432973,4.22319149 C53.6814781,4.24336466 52.9294508,4.22049078 52.1805405,4.15468085 C49.948707,3.9868703 47.7619454,3.43570753 45.7151351,2.52510638 C44.2556757,3.89531915 41.9205405,6.22468085 38.9043243,7.11531915 C33.6502703,8.66170213 30.1913514,6.13659574 30.1913514,6.13659574 C30.1913514,6.13659574 32.8718919,11.206383 41.9594595,10.4038298 Z" id="Path"></path>
                            </g>
                        </g>
                        <text id="Dental" font-family="HelveticaNeue-Light, Helvetica Neue" font-size="8" font-weight="300" line-spacing="9" letter-spacing="0.699999988" fill="#4B4B4B">
                            <tspan x="40" y="40">Denta</tspan>
                            <tspan x="63.9479999" y="40" letter-spacing="-0.300000012">l</tspan>
                        </text>
                    </g>
                </g>
            </g>
        </g>
    </g>
</svg>