<?xml version="1.0" encoding="UTF-8"?>
<svg width="105px" height="48px" viewBox="0 0 105 48" version="1.1" xmlns="http://www.w3.org/2000/svg" xmlns:xlink="http://www.w3.org/1999/xlink">
    <!-- Generator: Sketch 53.2 (72643) - https://sketchapp.com -->
    <title>Group 11</title>
    <desc>Created with Sketch.</desc>
    <g id="Page-1" stroke="none" stroke-width="1" fill="none" fill-rule="evenodd">
        <g id="03-Navigation-Copy-2" transform="translate(-306.000000, -289.000000)">
            <g id="Group-11" transform="translate(306.000000, 289.000000)">
                <rect id="Rectangle-Copy-43" fill="#FFFFFF" x="0" y="0" width="105" height="48"></rect>
                <g id="Science_Channel_logo" transform="translate(32.000000, 2.000000)" fill-rule="nonzero">
                    <path d="M33.6433064,40.977882 C33.5727963,40.977882 33.5147292,40.9215818 33.5147292,40.8532172 L33.5147292,39.7071046 C33.5147292,39.2788204 34.0414811,39.0918231 34.2654543,39.0294906 C34.663629,38.9309651 35.1509782,38.9309651 35.5450052,39.0294906 C35.9576967,39.1420912 36.2459585,39.4718499 36.2812136,39.8719839 C36.3143948,40.25 36.1132336,40.5757373 35.7440925,40.7386059 C35.2795554,40.9537534 34.6242263,40.9798928 34.1057697,40.9798928 C33.9813401,40.9819035 33.8589843,40.9798928 33.7469977,40.9798928 C33.7117427,40.9798928 33.6764876,40.9798928 33.6433064,40.977882 Z M32.5296616,39.7071046 L32.5296616,42.1823056 C32.5296616,42.5603217 32.6250576,42.863941 32.824145,43.1434316 C33.1476619,43.55563 33.7138165,43.8512064 34.3795148,43.9517426 C34.5454209,43.9758713 34.7051055,43.9899464 34.8710116,43.9899464 C35.0535084,43.9899464 35.2422266,43.9718499 35.4558307,43.941689 C36.1236028,43.8411528 36.6130258,43.6018767 36.9427642,43.2178284 C37.0319387,43.1152815 36.992536,42.958445 36.8743279,42.8880697 L36.4782271,42.6487936 C36.3537975,42.5764075 36.1982605,42.6105898 36.0904216,42.7030831 C35.8954819,42.8659517 35.6341797,42.9684987 35.3065152,43.0107239 C35.009958,43.0650134 34.7569512,43.0650134 34.4562463,43.0107239 C34.0829576,42.9504021 33.7801789,42.7955764 33.6204943,42.5884718 C33.5458366,42.4839142 33.5147292,42.383378 33.5147292,42.2265416 L33.5147292,41.9731903 C33.5147292,41.9068365 33.5748701,41.8525469 33.6433064,41.8565684 C33.7013735,41.8565684 33.7615145,41.8585791 33.8237293,41.8605898 C34.0311119,41.8686327 34.2467899,41.8746649 34.4749108,41.8746649 C34.9933674,41.8746649 35.6611395,41.8404826 36.2003344,41.5569705 C36.9054353,41.2010724 37.2994623,40.5113941 37.2206569,39.7634048 C37.1418515,38.9872654 36.598509,38.363941 35.8021597,38.1327078 C35.511824,38.0563003 35.2090453,38.0180965 34.9041929,38.0180965 C34.603488,38.0180965 34.3027832,38.0563003 34.0145213,38.1327078 C33.0709303,38.3820375 32.5296616,38.9591153 32.5296616,39.7071046 Z M27.0070619,39.7292225 L27.0070619,42.2828418 C27.0070619,43.0509383 27.5545521,43.6521448 28.4794787,43.8934316 C28.7677405,43.963807 29.0684454,43.9979893 29.3753717,43.9979893 C29.6843718,43.9979893 29.9850766,43.963807 30.2857815,43.8873995 L30.3666607,43.8572386 L30.3791036,43.8512064 C31.1381241,43.6280161 31.6233995,43.1514745 31.7270908,42.5482574 C31.7499029,42.4135389 31.6337686,42.3009383 31.4948222,42.3009383 L31.0261375,42.3009383 C30.8851173,42.3009383 30.7793521,42.4135389 30.7171373,42.5382038 C30.578191,42.8096515 30.2173452,42.9363271 30.0514391,42.9825737 L30.0120364,42.9906166 C29.6325261,43.0911528 29.1119957,43.0891421 28.7366331,42.9906166 C28.4545927,42.9121984 27.9838341,42.7171582 27.9838341,42.2788204 L27.9838341,39.7372654 C27.9838341,39.2828418 28.5085122,39.0978552 28.7324855,39.041555 C28.9543849,38.983244 29.1659152,38.9550938 29.3774455,38.9550938 C29.5889758,38.9550938 29.812949,38.9852547 30.0120364,39.041555 C30.1966069,39.0878016 30.5719695,39.2164879 30.7150635,39.4879357 C30.781426,39.6126005 30.8871911,39.7252011 31.0282113,39.7252011 L31.4968961,39.7252011 C31.6358424,39.7252011 31.7519767,39.6146113 31.7291646,39.4839142 C31.6275471,38.8485255 31.1111644,38.363941 30.2774861,38.1427614 C29.9518954,38.0623324 29.6491167,38.022118 29.3774455,38.022118 C29.0891836,38.0241287 28.7884788,38.0643432 28.4732572,38.1447721 C27.5524783,38.3900804 27.0070619,38.9812332 27.0070619,39.7292225 Z M23.7864095,38.0020107 C23.290765,38.0020107 22.84904,38.1065684 22.490268,38.3096515 C22.4529391,38.3317694 22.4010935,38.3096515 22.4010935,38.2654155 C22.4010935,38.1588472 22.3098451,38.0683646 22.1978585,38.0683646 L21.6711066,38.0683646 C21.5300864,38.0683646 21.4160259,38.1809651 21.4160259,38.3156836 L21.4160259,43.6863271 C21.4160259,43.8190349 21.5300864,43.9316354 21.6711066,43.9316354 L22.1501605,43.9316354 C22.2891068,43.9316354 22.4031673,43.8190349 22.4031673,43.6863271 L22.4031673,39.8398123 C22.4031673,39.2064343 23.1041206,38.9229223 23.7988525,38.9229223 C24.4873628,38.9229223 25.1820947,39.208445 25.1820947,39.7493298 L25.1820947,43.6863271 C25.1820947,43.8190349 25.298229,43.9316354 25.4371753,43.9316354 L25.9162292,43.9316354 C26.0551756,43.9316354 26.169236,43.8190349 26.169236,43.6863271 L26.169236,39.7613941 C26.169236,38.5449062 24.9913026,38.0020107 23.8258122,38.0020107 L23.7864095,38.0020107 Z M17.0609905,40.977882 C16.9904804,40.977882 16.9344871,40.9215818 16.9344871,40.8532172 L16.9344871,39.7071046 C16.9344871,39.2788204 17.4570913,39.0918231 17.6831384,39.0294906 C18.0813131,38.9309651 18.5686623,38.9309651 18.9626893,39.0294906 C19.3733069,39.1420912 19.6636426,39.4718499 19.6988977,39.8719839 C19.7300051,40.25 19.5309177,40.5757373 19.1617766,40.7386059 C18.6951657,40.9537534 18.0419104,40.9798928 17.5255276,40.9798928 C17.3948765,40.9819035 17.2745946,40.9798928 17.1667556,40.9798928 C17.1294267,40.9798928 17.0962455,40.9798928 17.0609905,40.977882 Z M15.9452719,39.7071046 L15.9452719,42.1823056 C15.9452719,42.5603217 16.0385941,42.863941 16.2397552,43.1434316 C16.5591245,43.55563 17.1273529,43.8512064 17.795125,43.9517426 C17.9610311,43.9758713 18.1207158,43.9899464 18.2866219,43.9899464 C18.4691186,43.9899464 18.6599106,43.9718499 18.8714409,43.941689 C19.539213,43.8411528 20.0265622,43.6018767 20.3583745,43.2178284 C20.447549,43.1152815 20.4081463,42.958445 20.2899382,42.8880697 L19.8938373,42.6487936 C19.7694078,42.5764075 19.6138708,42.6105898 19.5060318,42.7030831 C19.3110921,42.8659517 19.04979,42.9684987 18.7221254,43.0107239 C18.4276421,43.0650134 18.1725614,43.0650134 17.8718566,43.0107239 C17.5006417,42.9504021 17.1957892,42.7955764 17.0340307,42.5884718 C16.959373,42.4839142 16.9303394,42.383378 16.9303394,42.2265416 L16.9303394,41.9731903 C16.9303394,41.9068365 16.9863327,41.8525469 17.0568428,41.8565684 C17.11491,41.8565684 17.1750509,41.8585791 17.2372657,41.8605898 C17.4446484,41.8686327 17.6603263,41.8746649 17.8884472,41.8746649 C18.4069038,41.8746649 19.0726021,41.8404826 19.6138708,41.5569705 C20.3189718,41.2010724 20.7129988,40.5113941 20.6341934,39.7634048 C20.555388,38.9872654 20.0120454,38.363941 19.2136223,38.1327078 C18.9253604,38.0563003 18.6246556,38.0180965 18.3198031,38.0180965 C18.0211721,38.0180965 17.7163196,38.0563003 17.4280578,38.1327078 C16.4865406,38.3820375 15.9452719,38.9591153 15.9452719,39.7071046 Z M13.9917274,38.3156836 L13.9917274,43.6843164 C13.9917274,43.8190349 14.1057879,43.9296247 14.246808,43.9296247 L14.7258619,43.9296247 C14.8668821,43.9296247 14.9809426,43.8190349 14.9809426,43.6843164 L14.9809426,38.3156836 C14.9809426,38.1809651 14.8668821,38.0683646 14.7258619,38.0683646 L14.246808,38.0683646 C14.1057879,38.0683646 13.9917274,38.1809651 13.9917274,38.3156836 Z M8.31359071,39.7292225 L8.31359071,42.2828418 C8.31359071,43.0509383 8.86522853,43.6521448 9.79015511,43.8934316 C10.0742693,43.963807 10.377048,43.9979893 10.6839743,43.9979893 C10.9888268,43.9979893 11.2936792,43.963807 11.5923103,43.8873995 L11.6752633,43.8572386 L11.6877063,43.8512064 C12.4405053,43.6280161 12.9299283,43.1514745 13.0336196,42.5482574 C13.0564317,42.4135389 12.9402974,42.3009383 12.801351,42.3009383 L12.3326663,42.3009383 C12.1937199,42.3009383 12.0858809,42.4135389 12.0236661,42.5402145 C11.8847198,42.8096515 11.523874,42.9363271 11.3579679,42.9825737 L11.320639,42.9906166 C10.9390549,43.0891421 10.4185245,43.0891421 10.0410881,42.9906166 C9.76319536,42.9121984 9.29036294,42.7171582 9.29036294,42.2788204 L9.29036294,39.7372654 C9.29036294,39.2828418 9.81504102,39.0978552 10.0390143,39.041555 C10.2609137,38.983244 10.472444,38.9550938 10.6860481,38.9550938 C10.8955046,38.9550938 11.1194778,38.9852547 11.3185652,39.041555 C11.5031357,39.0878016 11.8764245,39.2164879 12.0215923,39.4879357 C12.0879548,39.6126005 12.1937199,39.7252011 12.3347401,39.7252011 L12.8034249,39.7252011 C12.9423712,39.7252011 13.0585055,39.6146113 13.0356934,39.4839142 C12.9340759,38.8485255 12.4176932,38.363941 11.5840149,38.1427614 C11.260498,38.0623324 10.9597932,38.022118 10.6860481,38.022118 C10.4019339,38.0241287 10.0991552,38.0643432 9.78600745,38.1447721 C8.8631547,38.3900804 8.31359071,38.9812332 8.31359071,39.7292225 Z M3.02118573,39.7613941 C3.00874277,41.2010724 4.21778356,41.3518767 5.28373033,41.4845845 L5.30861625,41.4865952 C6.29575762,41.6092493 6.76029473,41.7258713 6.75199943,42.2707775 C6.75199943,42.7211796 6.21695221,42.9081769 5.98883131,42.9705094 C5.76900571,43.0288204 5.50977741,43.0630027 5.26091824,43.0630027 C4.88970332,43.0630027 4.26340774,42.9845845 3.91915256,42.5281501 C3.83827333,42.4215818 3.69310548,42.3612601 3.5686759,42.4256032 L3.14976296,42.6407507 C3.02118573,42.7071046 2.95897093,42.8558981 3.02948103,42.980563 C3.44632014,43.7285523 4.44175681,44 5.28580416,44 C5.62383786,44 5.95565009,43.9577748 6.24598578,43.8793566 C7.17713384,43.6280161 7.7163287,43.0428954 7.72877166,42.2747989 C7.74121462,40.8371314 6.46581138,40.6742627 5.44134114,40.5455764 C4.45419977,40.424933 3.98758883,40.308311 3.99795796,39.7634048 C3.99795796,39.3130027 4.47701186,39.113941 4.76112608,39.0294906 C4.99132081,38.9651475 5.2422538,38.9349866 5.48696532,38.9349866 C5.7835225,38.9349866 6.28124083,38.9872654 6.6089054,39.2908847 C6.7105229,39.3914209 6.86605988,39.4376676 6.99048946,39.3672922 L7.36585204,39.1541555 C7.49235545,39.0817694 7.54005346,38.924933 7.45917423,38.8063003 C6.95316059,38.0824397 5.91832121,38 5.46830088,38 C5.132341,38 4.79638113,38.0422252 4.49982395,38.1226542 C3.57282355,38.386059 3.03362868,38.983244 3.02118573,39.7613941 Z M38.043966,38.1668901 L38.043966,38.7801609 L37.9340532,38.7801609 L37.9340532,38.1668901 L37.745335,38.1668901 L37.745335,38.0683646 L38.2347581,38.0683646 L38.2347581,38.1668901 L38.043966,38.1668901 Z M38.713812,38.6816354 L38.6101206,38.6816354 L38.4255501,38.2432976 L38.4296977,38.7781501 L38.3218588,38.7781501 L38.3218588,38.0663539 L38.462879,38.0663539 L38.6598925,38.5509383 L38.8589798,38.0663539 L39,38.0663539 L39,38.7781501 L38.892161,38.7781501 L38.8942349,38.2432976 L38.713812,38.6816354 Z" id="Shape" fill="#4B4B4B"></path>
                    <path d="M19.7776384,0 C19.4929934,0 19.2187368,0.00616486613 18.9548687,0.016439643 C16.9581978,0.092472992 14.8867296,0.544563175 12.8235723,1.35627055 C12.0382012,1.6624589 11.2528301,2.026186 10.4736921,2.43923203 C9.54911506,2.93036637 8.65985891,3.48109441 7.81215679,4.07908643 C6.53229281,4.9873767 5.35631389,6.00457961 4.31746325,7.1060357 C3.31808894,8.15817285 2.40390037,9.31922264 1.65385021,10.5583607 C1.35466123,11.053605 1.08248236,11.5632339 0.839391315,12.0851926 C0.307499789,13.215418 0.0415540255,14.4381165 0,15.7142438 L0,16.4499178 C0.0207770127,17.0807891 0.0934965574,17.7219352 0.21192553,18.3671912 C0.465405086,19.7440113 0.937043275,21.1475458 1.57905297,22.5264209 C2.32079232,24.1231212 3.29731192,25.6889972 4.43796992,27.1541804 C6.843948,30.2366134 9.99166543,32.8628464 13.2744334,34.3444692 C13.7751595,34.5705143 14.3112064,34.7349108 14.8804965,34.8417684 C15.4664083,34.9506811 16.0606309,35 16.6548534,35 C17.5233325,35 18.3876563,34.8972522 19.2332807,34.7410756 C20.9162187,34.4205026 22.7092749,33.8245655 24.5210304,33.0251879 C24.795287,32.9060005 25.0674659,32.7785932 25.3438001,32.649131 C26.7026168,32.0038751 28.0676665,31.2517614 29.3953176,30.4215594 C32.0443868,28.7673203 34.5313952,26.8521019 36.7524578,24.6943988 C37.9679131,23.5127994 39.0358515,22.3127055 39.8960199,21.1413809 C40.5130972,20.3050141 41.0242117,19.4830319 41.4085864,18.6939291 C41.6288227,18.237729 41.7825726,17.775364 41.8802246,17.3047792 C42.2168122,15.656705 41.8199713,13.953147 40.9909684,12.4304251 C40.882928,12.2290395 40.764499,12.0276538 40.6377592,11.8262682 C39.8066787,10.498767 38.6514768,9.20825505 37.2864271,7.99583138 C36.0439617,6.89437529 34.6934559,5.90594176 33.2847744,5.01203617 C30.1848441,3.04133396 27.2469745,1.39120479 24.1428888,0.484969469 C22.9440552,0.135627055 21.3151374,0.00410991076 19.8836012,0 L19.7776384,0 Z" id="Path" fill="#4B4B4B"></path>
                    <path d="M28.0129788,15.0907461 C25.6109528,15.5343939 24,17.2948689 24,19.4223616 C24,19.7369482 24.0354543,20.0616177 24.1085787,20.3883038 C24.5428933,22.3383374 26.461855,24 28.7287116,24 C28.9591643,24 29.1918329,23.9838674 29.4267173,23.9475689 C29.8787591,23.8810217 30.2798354,23.5099709 30.2776195,23.0481739 C30.2776195,23.0320412 30.2776195,23.0118754 30.2754036,22.9957428 C30.2244381,22.4290836 29.8499525,22.090298 29.1940487,22.0600493 C27.7426401,21.989469 26.563786,21.291732 26.2735043,19.9890208 C26.2314023,19.8075286 26.2136752,19.6280529 26.2136752,19.4526104 C26.2114593,18.319292 27.0202596,17.308985 28.4295663,17.0468295 C28.6024058,17.0145642 28.7730294,17.0064979 28.9370054,17.0064979 C29.1054131,17.0064979 29.2671732,17.0185974 29.4267173,17.0266637 C29.5840456,17.0387632 29.7369421,17.0488461 29.8831909,17.0488461 C29.9984172,17.0488461 30.1069959,17.0407797 30.2133587,17.0246471 C30.71415,16.9318844 30.9977841,16.5870491 31,16.1514676 C31,16.0768541 30.9911364,15.9982075 30.9734093,15.9155277 C30.8138651,15.1895586 29.9230769,15 29.087686,15 C28.6866097,15 28.3010446,15.0403316 28.0129788,15.0907461" id="Path" fill="#FFFFFF"></path>
                    <path d="M19.9392737,15.0040232 C18.3521514,15.0040232 17,15.9132767 17,17.5889584 C17,19.5945463 18.7430577,20.0572195 20.3963991,20.3710326 C21.3298749,20.5540903 21.8916692,20.8357175 21.8916692,21.3486813 C21.8916692,21.712785 21.5584376,22.1271793 20.4498016,22.1271793 C19.3390296,22.1271793 18.8327739,21.6464014 18.2837962,21.5136343 C18.2197132,21.499553 18.1513579,21.4915065 18.0765944,21.4915065 C17.6429661,21.4915065 17.1046689,21.7811802 17.1046689,22.3484578 C17.1046689,22.4510505 17.1196216,22.5576665 17.1559353,22.6743406 C17.4720781,23.7525704 19.3368935,24 20.4989319,24 C22.6286237,24 24,22.9217702 24,21.2822977 C24,19.5442557 22.7162038,18.8643272 20.6036009,18.417747 C19.2664022,18.1341082 19.0741532,18.0013411 19.0741532,17.5205633 C19.0741532,17.1745641 19.3646628,17.0055878 19.7085749,16.9271346 C19.8324687,16.9029951 19.9435459,16.8909253 20.0482148,16.8909253 C20.3109551,16.8909253 20.5096125,16.9552973 20.691181,17.0096111 C20.7894416,17.0397854 20.8877022,17.0538668 20.9816906,17.0538668 C21.353372,17.0538668 21.673787,16.8325883 21.8126335,16.4684846 C21.8532194,16.3578453 21.8767165,16.2451945 21.8767165,16.1285203 C21.8767165,15.7925793 21.695148,15.4666965 21.3555081,15.303755 C20.9218798,15.0965579 20.3771742,15.0301743 20.1058895,15.0080465 C20.0610314,15.0020116 20.0119011,15.0020116 19.9627708,15 L19.9392737,15 L19.9392737,15.0040232 Z" id="Path" fill="#FFFFFF"></path>
                    <path d="M34,24 L34,24 C33.4468938,24 33,23.5442779 33,22.9802452 L33,16.0197548 C33,15.4557221 33.4468938,15 34,15 L34,15 C34.5531062,15 35,15.4557221 35,16.0197548 L35,22.9782016 C35,23.5422343 34.5511022,24 34,24 Z" id="Path" fill="#FFFFFF"></path>
                </g>
            </g>
        </g>
    </g>
</svg>