<?xml version="1.0" encoding="UTF-8"?>
<svg width="105px" height="48px" viewBox="0 0 105 48" version="1.1" xmlns="http://www.w3.org/2000/svg" xmlns:xlink="http://www.w3.org/1999/xlink">
    <!-- Generator: Sketch 53.2 (72643) - https://sketchapp.com -->
    <title>Group 19 Copy</title>
    <desc>Created with Sketch.</desc>
    <g id="Page-1" stroke="none" stroke-width="1" fill="none" fill-rule="evenodd">
        <g id="03-Navigation-Copy-2" transform="translate(-1140.000000, -1079.000000)">
            <g id="Group-19-Copy" transform="translate(1140.000000, 1079.000000)">
                <g id="g14" transform="translate(51.500000, 23.500000) scale(-1, 1) rotate(-180.000000) translate(-51.500000, -23.500000) translate(2.000000, 10.000000)" fill-rule="nonzero">
                    <g id="g20" transform="translate(0.473140, 0.277373)" fill="#98C21F">
                        <path d="M28.0404624,14.7727273 C29.0596474,14.7727273 29.8888439,13.9159091 29.8888439,12.8640909 C29.8888439,11.8116818 29.0596474,10.9560455 28.0404624,10.9560455 C27.9019769,10.9560455 27.6106994,11.0086364 27.6049769,11.0098182 C27.5111272,11.0316818 27.0807919,11.1226818 26.7763526,10.9974091 C26.3649017,10.8248636 26.0736243,10.4059091 26.0736243,9.91781818 C26.0736243,9.451 26.406104,8.98122727 26.763763,8.84531818 C27.1219942,8.70940909 27.6438902,8.62845455 28.0404624,8.62845455 C30.3025838,8.62845455 32.1429538,10.5288182 32.1429538,12.8640909 C32.1429538,15.1999545 30.3025838,17.1003182 28.0404624,17.1003182 C26.9125491,17.1003182 25.8229769,16.6116364 25.0532948,15.7642727 C25.0532948,15.7642727 17.8114162,8.08009091 16.1026647,6.56322727 C14.582185,5.21359091 12.7463931,4.36386364 10.5849884,4.36386364 C8.38638728,4.36386364 6.31883237,5.24786364 4.7645896,6.85336364 C3.20977457,8.45886364 2.35310983,10.5938182 2.35310983,12.8640909 C2.35310983,17.5511818 6.04643931,21.3637273 10.5861329,21.3637273 C11.4628266,21.3637273 12.0568266,21.1970909 12.2897341,21.1840909 C12.8568382,21.1527727 13.3186474,21.6343636 13.3186474,22.191 C13.3186474,22.6779091 12.973578,23.1086818 12.5152023,23.1943636 C12.5152023,23.1943636 11.6293526,23.3840455 10.5838439,23.3840455 C4.96659538,23.3840455 0.396572254,18.6650455 0.396572254,12.8640909 C0.396572254,10.0543182 1.45638728,7.41236364 3.38087861,5.42513636 C5.30479769,3.43790909 7.86334682,2.34295455 10.5849884,2.34295455 C13.2236532,2.34295455 15.7123873,3.37704545 17.6185665,5.26027273 L26.73,14.1889091 C27.0985318,14.5493636 27.4647746,14.7727273 28.0404624,14.7727273 M28.0393179,6.80372727 C27.1122659,6.80372727 26.7174104,7.00404545 26.3975202,7.00404545 C25.776052,7.00404545 25.2707514,6.48168182 25.2707514,5.83995455 C25.2707514,5.34359091 25.6015145,4.87381818 26.037,4.7385 C26.4724855,4.60259091 27.2576185,4.47554545 28.0398902,4.47554545 C32.5189249,4.47554545 36.164185,8.23845455 36.164185,12.8640909 C36.164185,17.4891364 32.5200694,21.2526364 28.0404624,21.2526364 C25.8493006,21.2526364 23.726237,20.3184091 22.1994624,18.6857273 L14.0213757,9.30386364 C13.1011908,8.35663636 11.8811445,7.83486364 10.5855607,7.83486364 C7.8999711,7.83486364 5.7156763,10.0909545 5.7156763,12.8640909 C5.7156763,15.6366364 7.90111561,17.8927273 10.5878497,17.8927273 C11.2156127,17.8927273 11.4113237,17.7704091 11.6791387,17.7704091 C12.1460983,17.7704091 12.6296532,18.1822727 12.6296532,18.7802727 C12.6296532,19.2600909 12.3057572,19.6902727 11.8662659,19.7883636 C11.517763,19.8663636 10.9998728,19.9136364 10.5849884,19.9136364 C6.82069942,19.9136364 3.75913873,16.7510909 3.75913873,12.8640909 C3.75913873,8.97709091 6.82127168,5.81454545 10.5855607,5.81454545 C13.6774509,5.81454545 15.3879191,7.85909091 15.6608844,8.151 L23.6455491,16.8751818 C24.7614451,18.1775455 26.3637572,18.9250455 28.0404624,18.9250455 C31.2765607,18.9250455 33.9100751,16.2056818 33.9100751,12.8640909 C33.9100751,9.5225 31.2765607,6.80372727 28.0393179,6.80372727 M36.6282832,21.7312727 C34.3346879,24.1002273 31.2851445,25.4055455 28.0404624,25.4055455 C24.1834682,25.4055455 20.5158902,23.478 18.2343121,20.2545909 C18.2343121,20.2545909 12.0837225,12.3127727 11.778711,11.9133182 C11.4731272,11.5138636 11.0261965,11.3064545 10.5855607,11.3064545 C9.75350289,11.3064545 9.07652601,12.0049091 9.07652601,12.8640909 C9.07652601,13.7226818 9.75350289,14.4217273 10.5855607,14.4217273 C10.7417861,14.4217273 10.8602428,14.4045909 10.986711,14.4045909 C11.515474,14.4045909 11.9446647,14.8708182 11.9446647,15.4097273 C11.9446647,15.8298636 11.6631156,16.458 10.7063064,16.458 C8.65763584,16.458 7.12056069,14.8371364 7.12056069,12.8640909 C7.12056069,10.8916364 8.67480347,9.28672727 10.5855607,9.28554545 C11.5595376,9.28554545 12.4843006,9.70863636 13.1412486,10.4496364 L20.229763,19.1188636 C22.1233526,21.6343636 24.9703179,23.0773636 28.0404624,23.0773636 C30.6825607,23.0773636 33.1667168,22.0149091 35.0345549,20.0861818 C36.9023931,18.1568636 37.9313064,15.5917273 37.9313064,12.8640909 C37.9313064,7.23272727 33.493474,2.65140909 28.0387457,2.65140909 C26.4919422,2.65140909 25.9837803,2.94272727 25.6043757,2.94272727 C24.9628786,2.94272727 24.4518555,2.42154545 24.4518555,1.76977273 C24.4518555,1.28345455 24.7311156,0.870409091 25.1866301,0.679545455 C25.5763353,0.516454545 27.0870867,0.323227273 28.0404624,0.323227273 C34.7369827,0.323227273 40.1854162,5.94927273 40.1854162,12.8640909 C40.1854162,16.2139545 38.9218786,19.3629091 36.6282832,21.7312727" id="path22"></path>
                    </g>
                    <g id="g24" transform="translate(44.651060, 0.975414)" fill="#969696">
                        <path d="M5.2206763,3.02072727 L5.21037572,3.02072727 L5.21037572,3.44795455 L4.68619075,3.44795455 L4.68619075,0.613363636 L5.21037572,0.613363636 L5.21037572,2.24663636 C5.21037572,2.80445455 5.63498844,3.09104545 6.1116763,3.09104545 C6.67248555,3.09104545 6.9237052,2.85290909 6.9237052,2.43631818 L6.9237052,0.613363636 L7.44789017,0.613363636 L7.44789017,2.54445455 C7.44789017,3.25295455 6.95517919,3.54545455 6.29479769,3.54545455 C5.90165896,3.54545455 5.46674566,3.41545455 5.2206763,3.02072727 Z M10.334341,1.20781818 L9.39183815,3.44795455 L8.78925434,3.44795455 L10.0361965,0.613363636 L10.6124566,0.613363636 L11.8490983,3.44795455 L11.2619653,3.44795455 L10.334341,1.20781818 Z M13.1904624,0.613363636 L13.7146474,0.613363636 L13.7146474,3.44854545 L13.1904624,3.44854545 L13.1904624,0.613363636 Z M13.1904624,3.913 L13.7146474,3.913 L13.7146474,4.50804545 L13.1904624,4.50804545 L13.1904624,3.913 Z M16.0145376,2.92854545 L16.0145376,3.44795455 L15.4903526,3.44795455 L15.4903526,0.613363636 L16.0145376,0.613363636 L16.0145376,2.05222727 C16.0145376,2.66913636 16.3762023,2.98231818 16.895237,2.98231818 C17.0365838,2.98231818 17.1361561,2.96045455 17.2672023,2.92854545 L17.2672023,3.51295455 C17.1670578,3.54013636 17.0989595,3.54545455 16.9684855,3.54545455 C16.6222717,3.54545455 16.2714798,3.37763636 16.0248382,2.92854545 L16.0145376,2.92854545 Z M18.3241561,2.03036364 C18.3241561,1.21372727 18.8477688,0.515272727 19.9167399,0.515272727 C20.985711,0.515272727 21.509896,1.21372727 21.509896,2.03036364 C21.509896,2.84759091 20.985711,3.54545455 19.9167399,3.54545455 C18.8477688,3.54545455 18.3241561,2.84759091 18.3241561,2.03036364 Z M18.879815,2.03036364 C18.879815,2.54445455 19.1573584,3.09104545 19.9167399,3.09104545 C20.6766936,3.09104545 20.954237,2.54445455 20.954237,2.03036364 C20.954237,1.51627273 20.6766936,0.969681818 19.9167399,0.969681818 C19.1573584,0.969681818 18.879815,1.51627273 18.879815,2.03036364 Z M23.6112139,3.02072727 L23.6009133,3.02072727 L23.6009133,3.44795455 L23.0767283,3.44795455 L23.0767283,0.613363636 L23.6009133,0.613363636 L23.6009133,2.24663636 C23.6009133,2.80445455 24.0249538,3.09104545 24.5022139,3.09104545 C25.0624509,3.09104545 25.3136705,2.85290909 25.3136705,2.43631818 L25.3136705,0.613363636 L25.8378555,0.613363636 L25.8378555,2.54445455 C25.8378555,3.25295455 25.3451445,3.54545455 24.684763,3.54545455 C24.2921965,3.54545455 23.8572832,3.41545455 23.6112139,3.02072727 Z M28.1285896,3.02072727 L28.1177168,3.02072727 L28.1177168,3.44795455 L27.5935318,3.44795455 L27.5935318,0.613363636 L28.1177168,0.613363636 L28.1177168,2.24663636 C28.1177168,2.80445455 28.5423295,3.09104545 29.0190173,3.09104545 C29.5792543,3.09104545 29.8310462,2.85290909 29.8310462,2.43631818 L29.8310462,0.613363636 L30.3552312,0.613363636 L30.3552312,2.54445455 C30.3552312,3.25295455 29.8625202,3.54545455 29.2021387,3.54545455 C28.8095723,3.54545455 28.374659,3.41545455 28.1285896,3.02072727 Z M39.1061445,3.02072727 C38.8858266,3.39418182 38.5293121,3.54545455 38.1727977,3.54545455 C37.7802312,3.54545455 37.3453179,3.41545455 37.0986763,3.02072727 L37.088948,3.02072727 L37.088948,3.44795455 L36.5641908,3.44795455 L36.5641908,0.613363636 L37.088948,0.613363636 L37.088948,2.24663636 C37.088948,2.80445455 37.5124162,3.09104545 37.989104,3.09104545 C38.3301676,3.09104545 38.6500578,2.93386364 38.6500578,2.41445455 L38.6500578,0.613363636 L39.1736705,0.613363636 L39.1736705,2.32818182 C39.1736705,2.85822727 39.5982832,3.09104545 40.0749711,3.09104545 C40.4154624,3.09104545 40.7353526,2.93386364 40.7353526,2.41445455 L40.7353526,0.613363636 L41.2589653,0.613363636 L41.2589653,2.54445455 C41.2589653,3.41013636 40.4944335,3.54545455 40.2163179,3.54545455 C39.6927052,3.54545455 39.3567919,3.34513636 39.1061445,3.02072727 Z M48.0235838,3.02072727 L48.012711,3.02072727 L48.012711,3.44795455 L47.4890983,3.44795455 L47.4890983,0.613363636 L48.012711,0.613363636 L48.012711,2.24663636 C48.012711,2.80445455 48.4373237,3.09104545 48.9140116,3.09104545 C49.4753931,3.09104545 49.7266127,2.85290909 49.7266127,2.43631818 L49.7266127,0.613363636 L50.2502254,0.613363636 L50.2502254,2.54445455 C50.2502254,3.25295455 49.7580867,3.54545455 49.0977052,3.54545455 C48.7045665,3.54545455 48.2702254,3.41545455 48.0235838,3.02072727 Z M53.5469827,3.44795455 L52.7607052,3.44795455 L52.7607052,4.31954545 L52.2370925,4.31954545 L52.2370925,3.44795455 L51.6711329,3.44795455 L51.6711329,3.02604545 L52.2370925,3.02604545 L52.2370925,1.18654545 C52.2370925,0.775272727 52.4465376,0.515272727 52.9598497,0.515272727 C53.1744451,0.515272727 53.3690116,0.521181818 53.5469827,0.553681818 L53.5469827,1.00809091 C53.426237,0.986227273 53.3060636,0.970272727 53.1853179,0.970272727 C52.9186474,0.970272727 52.7607052,1.05122727 52.7607052,1.27813636 L52.7607052,3.02604545 L53.5469827,3.02604545 L53.5469827,3.44795455 Z M0.402867052,3.08868182 C0.149358382,2.82336364 0.0097283237,2.44813636 0.0097283237,2.03036364 C0.0097283237,1.61318182 0.149358382,1.23736364 0.402867052,0.972045455 C0.683843931,0.678363636 1.09643931,0.522954545 1.59487283,0.522954545 C2.05610983,0.522954545 2.62550289,0.733909091 2.92593642,1.30827273 L2.36569942,1.30827273 C2.13221965,0.999818182 1.74251445,0.962 1.56912139,0.962 C1.32763006,0.962 1.08384971,1.0465 0.899583815,1.19422727 C0.690710983,1.36086364 0.569965318,1.59427273 0.550508671,1.86786364 L0.549936416,1.87613636 L3.07586705,1.87613636 L3.07586705,1.93877273 C3.07586705,3.11763636 2.31133526,3.53777273 1.59487283,3.53777273 C1.09643931,3.53777273 0.683843931,3.38236364 0.402867052,3.08868182 Z M0.564815029,2.28268182 L0.566531792,2.29154545 C0.640924855,2.77431818 1.04379191,3.09813636 1.56912139,3.09813636 C2.08930058,3.09813636 2.45897688,2.78909091 2.53508671,2.29154545 L2.53680347,2.28268182 L0.564815029,2.28268182 Z M32.3106243,3.08868182 C32.0565434,2.82336364 31.9169133,2.44813636 31.9169133,2.03036364 C31.9169133,1.61318182 32.0565434,1.23736364 32.3106243,0.972045455 C32.5910289,0.678363636 33.003052,0.522954545 33.5020578,0.522954545 C33.9632948,0.522954545 34.5326879,0.733909091 34.8331214,1.30827273 L34.2728844,1.30827273 C34.0394046,0.999818182 33.6496994,0.962 33.4763064,0.962 C33.234815,0.962 32.9904624,1.0465 32.8067688,1.19422727 C32.597896,1.36086364 32.4771503,1.59427273 32.4576936,1.86786364 L32.4565491,1.87613636 L34.983052,1.87613636 L34.983052,1.93877273 C34.983052,3.11763636 34.217948,3.53777273 33.5020578,3.53777273 C33.003052,3.53777273 32.5910289,3.38236364 32.3106243,3.08868182 Z M32.472,2.28268182 L32.4737168,2.29154545 C32.5481098,2.77431818 32.9509769,3.09813636 33.4763064,3.09813636 C33.9959133,3.09813636 34.3661618,2.78909091 34.4422717,2.29154545 L34.4439884,2.28268182 L32.472,2.28268182 Z M43.2406821,3.08868182 C42.9866012,2.82336364 42.8469711,2.44813636 42.8469711,2.03036364 C42.8469711,1.61318182 42.9866012,1.23736364 43.2406821,0.972045455 C43.5210867,0.678363636 43.9336821,0.522954545 44.4326879,0.522954545 C44.8933526,0.522954545 45.4633179,0.733909091 45.7637514,1.30827273 L45.2029422,1.30827273 C44.9694624,0.999818182 44.5803295,0.962 44.4063642,0.962 C44.1648728,0.962 43.9210925,1.0465 43.7368266,1.19422727 C43.5279538,1.36086364 43.4072081,1.59427273 43.3877514,1.86786364 L43.3871792,1.87613636 L45.9131098,1.87613636 L45.9131098,1.93877273 C45.9131098,3.11763636 45.148578,3.53777273 44.4326879,3.53777273 C43.9336821,3.53777273 43.5210867,3.38236364 43.2406821,3.08868182 Z M43.4037746,2.29154545 C43.4781676,2.77431818 43.8816069,3.09813636 44.4063642,3.09813636 C44.9265434,3.09813636 45.2962197,2.78909091 45.3729017,2.29154545 L45.3740462,2.28268182 L43.4020578,2.28268182 L43.4037746,2.29154545 Z" id="path26"></path>
                    </g>
                    <g id="g28" transform="translate(44.531745, 6.266414)" fill="#969696">
                        <path d="M3.29160694,9.52545455 C2.96828324,9.6525 2.73823699,9.97631818 2.73823699,10.3550909 C2.73823699,10.8443636 3.12279191,11.2420455 3.59719075,11.2420455 L10.5838439,11.2420455 L10.5838439,13.8497273 L3.52565896,13.8497273 C1.6566763,13.8497273 0.141346821,12.285 0.141346821,10.3550909 C0.141346821,8.86422727 1.04493642,7.592 2.31763006,7.08913636 L8.75377457,4.65518182 C9.08053179,4.53345455 9.30771676,4.20431818 9.30771676,3.82554545 C9.30771676,3.33568182 8.92316185,2.93859091 8.44819075,2.93859091 L0.129901734,2.93859091 L0.129901734,0.330909091 L8.5202948,0.330909091 C10.3892775,0.330909091 11.9755665,1.89563636 11.9755665,3.82554545 C11.9755665,5.31640909 11.0004451,6.58863636 9.7283237,7.09090909 L3.29160694,9.52545455 Z M45.3482948,2.93859091 C44.8733237,2.93859091 44.4887688,3.33568182 44.4887688,3.82554545 C44.4887688,4.20431818 44.7159538,4.53345455 45.042711,4.65518182 L51.4794277,7.08913636 C52.7515491,7.592 53.6551387,8.86422727 53.6551387,10.3550909 C53.6551387,12.285 52.1398092,13.8497273 50.2708266,13.8497273 L43.2126416,13.8497273 L43.2126416,11.2420455 L50.1992948,11.2420455 C50.6736936,11.2420455 51.0588208,10.8443636 51.0588208,10.3550909 C51.0588208,9.97631818 50.8282023,9.6525 50.5048786,9.52545455 L44.0681618,7.09090909 C42.7960405,6.58863636 41.8209191,5.31640909 41.8209191,3.82554545 C41.8209191,1.89563636 43.4072081,0.330909091 45.276763,0.330909091 L53.6660116,0.330909091 L53.6660116,2.93859091 L45.3482948,2.93859091 Z M22.5250751,5.7785 C22.5325145,3.73040909 21.3307803,2.67327273 19.4892659,2.67327273 C17.6477514,2.67327273 16.4460173,3.73040909 16.4534566,5.7785 L16.4534566,13.8497273 L13.7049191,13.8497273 L13.7049191,5.58881818 C13.7049191,2.56690909 15.8222601,0.153045455 19.4892659,0.153045455 C23.1568439,0.153045455 25.2736127,2.56690909 25.2736127,5.58881818 L25.2736127,13.8497273 L22.5250751,13.8497273 L22.5250751,5.7785 Z M27.3468902,7.08972727 C27.3468902,3.25945455 30.3329133,0.153045455 34.1092197,0.153045455 C36.4463064,0.153045455 38.3473353,1.15404545 39.7241792,2.85409091 L37.6217168,4.40109091 C36.6643353,3.25354545 35.507237,2.60177273 34.1080751,2.60177273 C32.1606936,2.60177273 30.5320578,4.10445455 30.125185,6.11531818 L40.6643931,6.11531818 C40.7044509,6.41963636 40.7313468,6.77418182 40.7313468,7.08972727 C40.7313468,10.9194091 37.8860983,14.0275909 34.1092197,14.0275909 C30.3329133,14.0275909 27.3468902,10.9211818 27.3468902,7.08972727 Z M30.1892775,8.35781818 C30.6831329,10.2286364 32.2499653,11.5965909 34.1069306,11.5965909 C35.963896,11.5965909 37.5313006,10.2286364 38.0251561,8.35781818 L30.1892775,8.35781818 Z" id="path30"></path>
                    </g>
                </g>
            </g>
        </g>
    </g>
</svg>