<?xml version="1.0" encoding="UTF-8"?>
<svg width="105px" height="48px" viewBox="0 0 105 48" version="1.1" xmlns="http://www.w3.org/2000/svg" xmlns:xlink="http://www.w3.org/1999/xlink">
    <!-- Generator: Sketch 53.2 (72643) - https://sketchapp.com -->
    <title>Group 26</title>
    <desc>Created with Sketch.</desc>
    <g id="Page-1" stroke="none" stroke-width="1" fill="none" fill-rule="evenodd">
        <g id="03-Navigation-Copy-2" transform="translate(-448.000000, -289.000000)">
            <g id="Group-26" transform="translate(448.000000, 289.000000)">
                <rect id="Rectangle-Copy-46" fill="#FFFFFF" x="0" y="0" width="105" height="48"></rect>
                <g id="Group-10" transform="translate(15.000000, 12.000000)" fill="#4B4B4B" fill-rule="nonzero">
                    <path d="M9.02058822,15.3012275 L9.60712894,13.8609453 C9.54413439,13.8333989 9.48997444,13.805459 9.42659578,13.7775191 L8.66874062,15.3567138 L8.66874062,15.3661583 C8.62341527,15.3752092 8.57847404,15.3846537 8.52431409,15.3846537 L5.48290652,21.7100898 C5.81708492,21.8025669 6.15087921,21.8761551 6.4935081,21.9316414 L9.17384935,15.2736811 C9.12007352,15.2831256 9.07474817,15.2921765 9.02020411,15.3012275 L9.02058822,15.3012275 Z M8.28040227,15.4122001 L8.35261553,15.2831256 L9.25528133,13.6854355 C9.20112138,13.6484447 9.13774272,13.6114538 9.08358277,13.5744629 L7.86556011,15.4306955 L7.86556011,15.4397464 C7.82023477,15.4397464 7.76607482,15.4397464 7.72113358,15.4491909 L4.02980664,21.1190231 C4.33538844,21.2862126 4.65203343,21.4312521 4.97741367,21.5530754 L8.44288211,15.4031491 C8.38910628,15.4031491 8.33456221,15.4031491 8.28040227,15.4122001 L8.28040227,15.4122001 Z M9.66128888,15.1442131 L9.69739551,15.0151387 L9.96819525,13.9809688 C9.90764318,13.9637768 9.84745205,13.9452772 9.78766209,13.9254825 L9.43581449,14.9966432 L9.42659578,15.0151387 L9.35438251,15.2181948 L9.35438251,15.2276393 C9.30550324,15.2365525 9.25725509,15.2487784 9.20995598,15.2642366 L6.99900095,21.9776832 C7.34201395,22.0056231 7.68502695,22.0056231 8.01882124,21.9871276 L9.80571541,15.0981713 C9.76077418,15.1076158 9.71544883,15.1257177 9.66128888,15.1442131 Z M5.46408497,15.1442131 L8.34339682,12.8728173 L8.35223142,12.8633728 C8.11877091,12.5369418 7.95015573,12.1667179 7.85595728,11.7737167 C7.75833659,11.3817473 7.7368029,10.9739526 7.79257862,10.5734815 C7.81949733,10.3725226 7.86489654,10.1746203 7.92817055,9.98241489 C7.97311178,9.8529469 8.02727173,9.71482147 8.08181579,9.59440444 L8.11753831,9.52042273 L8.14442623,9.46532997 C8.15364494,9.44683454 8.16286366,9.42833911 8.17169826,9.41889464 L8.23507692,9.31736655 C8.25313024,9.28037569 8.28001815,9.25282931 8.29807147,9.21583846 L8.3341781,9.16979665 L8.37028473,9.12336132 C8.39717265,9.09581494 8.41561008,9.05882409 8.442498,9.03127771 C8.48743923,8.96634695 8.54198329,8.91125419 8.59614324,8.84632344 C8.62303116,8.81877706 8.64991907,8.7817862 8.67680699,8.75423982 C8.85734015,8.57873002 9.03787331,8.41227118 9.22762519,8.25565033 L9.2545131,8.31074309 C9.30905716,8.27414576 9.37205171,8.24620586 9.42621166,8.21865947 L9.41699295,8.209215 C9.41699295,8.209215 9.41699295,8.20016405 9.40815835,8.19071957 L9.39893963,8.17222415 C9.3877003,8.15960875 9.38128889,8.14325757 9.38088632,8.12618234 C9.43504626,8.08014053 9.48920621,8.04314968 9.54336616,7.99671435 L9.54336616,8.00615882 L9.55258487,8.02465425 L9.58869151,8.10768691 L9.59752611,8.13523329 C9.65168606,8.10768691 9.71506472,8.08919148 9.77805927,8.07069606 L9.75117135,7.98805691 L9.71506472,7.87708435 C9.77312993,7.83371532 9.83339168,7.79352026 9.89559788,7.75666732 L9.89559788,7.76611179 L9.95859243,8.00615882 C10.0219711,7.9876634 10.0849656,7.97861244 10.1479602,7.96011701 L10.103019,7.74761636 L10.0849656,7.6366438 C10.1483443,7.59965295 10.2201735,7.55400466 10.2835521,7.51662028 L10.2835521,7.55361114 L10.2923867,7.64608827 L10.3284933,7.93217711 C10.3942058,7.9214297 10.4605529,7.91525044 10.5270798,7.91368169 L10.4909732,7.40604124 L10.4909732,7.39659677 L10.707613,7.28601772 L10.707613,7.90463073 L10.7437196,7.90463073 C10.8159329,7.90463073 10.8793115,7.90463073 10.9511407,7.91368169 L10.9876314,7.25807782 L10.996466,7.16599421 C11.0325727,7.14749878 11.0594606,7.13844783 11.0955672,7.11955888 L11.1589459,7.0920125 C11.1950525,7.07351707 11.2311591,7.06446612 11.2672658,7.04597069 L11.2672658,7.05502164 L11.1589459,7.93257063 L11.3483136,7.96011701 L11.5288468,7.01803079 L11.5469001,6.93499813 C11.5922255,6.9165027 11.6371667,6.90745175 11.6913266,6.88895632 L13,0.064537235 C12.6649059,0.109045022 12.3331604,0.176887467 12.0070676,0.267593414 L11.1589459,6.99048441 L11.5561188,0.405718837 C11.2861958,0.499789678 11.0210769,0.607751292 10.7617729,0.729192052 C10.7079971,0.756738433 10.6626718,0.77523386 10.6081277,0.802780241 L10.6173464,7.04557717 L10.2201735,1.01567441 C10.1752322,1.04322079 10.1391256,1.06171622 10.0941844,1.08965612 L10.0669123,0.609562055 L10.0576936,0.434052258 C9.82435709,0.349281121 9.58645425,0.278330391 9.3451638,0.221551606 L9.48037161,1.26516592 L9.50725953,1.49576848 L9.39893963,1.57880114 L10.1122377,7.08256803 L9.08319866,1.8373436 C9.04709203,1.87433445 9.01098539,1.90227435 8.96604416,1.93926521 L8.91188421,1.66222732 L8.60497784,0.064537235 C8.35608029,0.0344368604 8.10626585,0.0129123066 7.85595728,0 L8.43327928,2.1883632 L8.4601672,2.28084033 L8.48705512,2.40086385 L8.48705512,2.4099148 C8.4601672,2.43746118 8.43327928,2.46540108 8.41522597,2.49334098 C8.39717265,2.49334098 8.39717265,2.50239194 8.38833805,2.51183641 L9.61519531,7.17504516 L8.15326083,2.7888743 C8.14442623,2.79792525 8.13520751,2.8069762 8.13520751,2.81642068 C8.1083196,2.84396706 8.09026628,2.88095791 8.06299425,2.90889781 L7.98194638,2.65940631 L7.0884993,0.00905095369 C6.83575288,0.0275463808 6.57378774,0.0550927616 6.32142543,0.0920836158 L7.5398322,3.08401409 L7.67504001,3.42598273 C7.66620541,3.43503369 7.66620541,3.44447816 7.6569867,3.45352911 C7.63893338,3.49051997 7.61204546,3.51806635 7.59399215,3.5550572 L9.14580909,7.36905039 L7.4315123,3.83209509 C7.40462439,3.8781369 7.37735235,3.92457223 7.35929904,3.96156308 L7.34124572,3.9340167 L5.56318616,0.267593414 C5.31082384,0.341575122 5.06691202,0.425001304 4.82338431,0.51708492 L7.06122727,4.46920353 L7.07928058,4.49674991 L7.0884993,4.50619438 L7.0884993,4.51563885 C7.07044598,4.56168066 7.05239267,4.598278 7.03433935,4.64471332 C7.03433935,4.64471332 7.03433935,4.6541578 7.02550475,4.6541578 L8.73980154,7.6645837 L6.93523817,4.91270026 L6.93523817,4.92175121 L6.88069411,5.06027015 L6.88069411,5.0512192 L4.11047039,0.840558134 C3.87577728,0.960188131 3.65030289,1.09870707 3.42444438,1.24667049 L6.61027848,5.47582699 L6.64638511,5.52226231 L6.69132635,5.58679955 L6.69132635,5.5958505 C6.69132635,5.60529497 6.68249175,5.62339688 6.68249175,5.63284136 L6.65560383,5.74381392 L8.3518473,7.99671435 L6.61027848,5.96536552 C6.60105977,5.9929119 6.60105977,6.02045829 6.59222517,6.03934723 C6.58300645,6.06689361 6.58300645,6.09443999 6.57417185,6.11293542 L6.51079319,6.03029628 L2.79257832,1.72676456 C2.59377151,1.89467116 2.40119492,2.07017366 2.21525632,2.25290043 L2.20603761,2.2623449 L6.37558537,6.5194413 L6.49273987,6.63946481 C6.48390527,6.69455758 6.47468656,6.75043738 6.47468656,6.79647919 L7.99961559,8.34773394 L6.45663324,6.96254451 C6.44779864,7.01803079 6.44779864,7.0640726 6.44779864,7.1199524 L6.36636666,7.04597069 L6.34831334,7.02747526 L1.67365684,2.87190696 C1.5023424,3.08440761 1.34908127,3.30595922 1.21348934,3.52751082 L6.41207612,7.59925943 L6.41207612,7.76571827 L7.70269616,8.78139268 L6.41207612,7.89479274 C6.41207612,7.95027902 6.41207612,7.99632083 6.42091072,8.05220063 L6.41207612,8.05220063 L0.816316392,4.22876297 C0.699161895,4.46881001 0.590841999,4.71830151 0.500575419,4.95834855 L6.43896404,8.45831299 L6.44779864,8.46736394 C6.45663324,8.52285022 6.45663324,8.5783365 6.46585195,8.62477183 L7.34124572,9.14146323 L6.47468656,8.70741097 C6.48390527,8.7538463 6.48390527,8.80933258 6.49273987,8.85537439 L6.42974532,8.82782801 L0.25704771,5.7154805 C0.194272852,5.97218192 0.140081262,6.23100667 0.0945678659,6.4915014 L6.44779864,9.17845409 L6.48390527,9.18789856 L6.55611853,9.21544494 C6.56495314,9.2705377 6.57417185,9.31697303 6.58300645,9.37245931 L7.07928058,9.58495996 L6.59222517,9.41850112 C6.60105977,9.46493645 6.61027848,9.51097825 6.6283318,9.55702006 L0.0135200005,7.28601772 C-0.00450666685,7.54409904 -0.00450666685,7.80317027 0.0135200005,8.06125158 L6.70976378,9.8808868 C6.72781709,9.9269286 6.73665169,9.98241489 6.75508912,10.0284567 L6.76392372,10.0469521 C6.78197704,10.0929939 6.79081164,10.1394293 6.80924907,10.1854711 L6.78236115,10.1764201 L0.0857332645,8.83727248 C0.121839896,9.08676399 0.167165243,9.33586198 0.230159792,9.58495996 L6.90835025,10.462509 L6.9625102,10.6010279 C6.98056352,10.6470697 6.99861683,10.6840606 7.01667015,10.7304959 L0.446799584,10.3054946 C0.528231563,10.5364907 0.618114029,10.7670932 0.717599324,10.9890383 C0.717599324,10.9980893 0.726433925,11.0075338 0.726433925,11.0075338 L7.13382465,11.0075338 C7.16993128,11.081122 7.20603791,11.1641546 7.24214454,11.2381363 L1.06061233,11.6536932 L1.05139361,11.6536932 C1.03576573,11.6166519 1.01450354,11.5823837 0.988399063,11.5521651 L0.4648529,11.5891559 C0.345503868,11.9140747 0.248973621,12.2473166 0.175999844,12.5863349 L1.53883314,12.4017742 C1.50272651,12.3557324 1.47545448,12.309297 1.43934785,12.2723062 L1.57493978,12.2538107 L7.35046444,11.4785769 C7.38657107,11.5521651 7.43189642,11.6167023 7.46800305,11.6910775 L2.26058167,12.7429558 L1.99938476,12.798442 L1.88184615,12.8259884 L1.87262743,12.8259884 C1.84342848,12.7940382 1.81635189,12.7601195 1.79157957,12.7244603 L0.094951979,13.0754799 C0.0421112737,13.4208912 0.0119546685,13.7695459 0.0046853991,14.1190942 L2.46838686,13.4355505 C2.424824,13.4003162 2.38538269,13.3600411 2.35084825,13.315527 L2.56748804,13.2509897 L7.59437626,11.8658003 C7.63048289,11.9303375 7.67542413,11.9858238 7.71153076,12.0507546 L3.10908752,13.6571021 L3.05492757,13.6755975 L2.8475065,13.7495792 L2.83828778,13.7495792 C2.8034852,13.7241946 2.77037768,13.6964553 2.7391866,13.6665466 L0.0135200005,14.6267347 C0.0315733165,14.9777543 0.0676799485,15.3287739 0.131058611,15.670349 L3.48820716,14.2391178 C3.44288181,14.2115714 3.39794058,14.1745805 3.34378063,14.1466406 L3.6595216,14.0081217 L7.82868525,12.2353153 C7.86479189,12.2904081 7.91011723,12.3458944 7.95544258,12.4013806 L4.12890782,14.3406458 L4.01136921,14.3957386 L3.87616139,14.4697203 L3.86694268,14.4697203 C3.83122016,14.4512249 3.78589481,14.4236785 3.74978818,14.4051831 L0.230159792,16.1976654 C0.311591771,16.5392406 0.419911667,16.8717647 0.55511948,17.2042889 L4.55296869,14.8309714 C4.49933647,14.8119657 4.44783125,14.7871654 4.39932344,14.7569897 L4.55296869,14.6645126 L8.07259708,12.5776775 C8.11753831,12.6327702 8.15364494,12.6792056 8.19897029,12.7346918 L5.12145608,14.8494669 L5.11262148,14.8494669 L4.92286961,14.9785413 L4.91403501,14.9785413 C4.86870966,14.9600459 4.82376843,14.9415505 4.78727768,14.9324995 L0.762540557,17.7024849 C0.9161858,18.0161201 1.08750024,18.3301488 1.28608672,18.6256821 L5.60889562,15.2091439 C5.57278898,15.1815975 5.51862904,15.1627086 5.46446909,15.1442131 L5.46408497,15.1442131 Z M6.4846735,15.3752092 L6.58415879,15.2736811 L8.61458067,13.186846 C8.56925532,13.1404107 8.52431409,13.0853179 8.47898874,13.0388826 L6.16893252,15.1166667 L5.97918065,15.2921765 C5.93132626,15.2821384 5.88330484,15.2729548 5.83513823,15.2646302 L1.61143052,19.0691789 C1.79196368,19.3092259 1.99055016,19.5307775 2.20680584,19.7523291 C2.24329658,19.78932 2.27940321,19.8263108 2.31550984,19.8538572 L6.64715334,15.4031491 C6.59480397,15.385025 6.53993117,15.375722 6.4846735,15.3756027 L6.4846735,15.3752092 Z M7.43228053,15.4491909 L7.54060042,15.310672 L8.93032164,13.4638839 C8.87654581,13.4174486 8.82200175,13.3804577 8.7678418,13.3344159 L6.97211303,15.421251 L6.96289431,15.4306955 C6.91795308,15.4306955 6.87262773,15.4216445 6.81846779,15.4216445 L2.71229868,20.2233722 C2.98009988,20.4490054 3.26032322,20.6587029 3.55158582,20.8514297 L7.58554166,15.4578484 C7.54060042,15.4487974 7.48644048,15.4487974 7.43228053,15.4487974 L7.43228053,15.4491909 Z M11.4028577,20.9250179 L11.4481831,21.5625199 C11.682492,21.645159 11.9175693,21.7191407 12.161097,21.7750205 L11.9986171,20.5189055 C11.8000307,20.6759199 11.6106629,20.8049944 11.4032418,20.9250179 L11.4028577,20.9250179 Z" id="Shape"></path>
                    <path d="M15.3971803,12.1630689 L15.1928784,12.1080679 C15.1751294,12.0530669 15.1664438,12.0067089 15.1483172,11.951315 L15.1396315,11.9328504 C15.1305682,11.8868852 15.1131969,11.849956 15.1041336,11.8039908 L21.7139238,13.1593729 C21.6794404,12.9048574 21.6320437,12.6524169 21.5719321,12.403109 L15.0063254,11.5179856 C14.9889541,11.4720204 14.9712051,11.4166266 14.9534562,11.3706614 C14.9347741,11.3323775 14.9198451,11.2922338 14.9088949,11.2508378 L21.3680078,11.6837743 C21.2893769,11.4449823 21.1975847,11.2111022 21.0930877,10.9832972 C21.0840244,10.9648325 21.0753387,10.9557966 21.0753387,10.937332 L14.7759665,10.937332 C14.7404686,10.8634735 14.7136563,10.789615 14.6781584,10.7251853 L20.746794,10.3008917 L20.7558573,10.3008917 C20.7822919,10.3382138 20.8000409,10.3747502 20.8177899,10.4211082 L21.3325099,10.384179 C21.4498714,10.0596759 21.5447746,9.72685658 21.6164933,9.38826778 L20.2766352,9.57291404 C20.3030699,9.60984329 20.3389454,9.65541556 20.3653801,9.69273768 L20.2856986,9.70177356 L14.5539156,10.4945739 C14.5184177,10.4211082 14.4742341,10.3562856 14.4387362,10.2824271 L19.8419744,9.15804926 L19.9307192,9.13958463 C19.9571539,9.17651389 19.9926518,9.21344314 20.0194641,9.24997952 L21.6961748,8.89993736 C21.7494217,8.55853822 21.776234,8.20849606 21.7849197,7.85806104 L19.3627523,8.55853822 L19.4692461,8.66932598 L19.3540667,8.69682648 L14.3144934,10.1072096 C14.2789955,10.0431727 14.2344343,9.98777882 14.1989363,9.92334907 L18.9813384,8.22696069 L18.9900241,8.22696069 C19.025522,8.25446119 19.0610199,8.29139045 19.0965179,8.31889095 L21.776234,7.36933775 C21.7601473,7.01987875 21.7215416,6.67193625 21.6606769,6.32785429 L18.3601246,7.75670203 C18.4046859,7.78420254 18.4488694,7.81170304 18.4934307,7.84863229 L18.4843674,7.84863229 L14.0924425,9.75716743 C14.0539376,9.69971346 14.0125937,9.64437618 13.9685774,9.59137867 L17.970025,7.52609064 L17.9787107,7.52609064 C18.0228943,7.55359115 18.0587698,7.57244864 18.1029534,7.59994914 L21.5632464,5.81123764 C21.4822066,5.46819839 21.3753841,5.13231342 21.243765,4.80668343 L17.3133133,7.17565562 C17.3574969,7.19412024 17.4107438,7.22201361 17.455305,7.24047824 L17.321999,7.32337262 L13.843957,9.42519704 C13.7997734,9.37019602 13.7646531,9.32383803 13.7200919,9.26844415 L16.9228361,7.02833148 L16.9318994,7.01929559 C16.976083,7.03776022 17.0206442,7.05583198 17.0738911,7.07429661 L21.0307775,4.3085314 C20.8797224,3.99541849 20.7112961,3.68191272 20.5160575,3.38687157 L16.266502,6.79772009 C16.3193712,6.80714883 16.3639325,6.82522059 16.417557,6.84407808 L16.3284345,6.91754372 L13.5958491,9.11169126 L13.5867858,9.12112001 C13.6132205,9.15804926 13.6400327,9.19497851 13.666845,9.24094364 C13.6404104,9.20401439 13.6135981,9.15804926 13.5781002,9.12112001 C13.8076419,9.44699694 13.9734161,9.81660795 14.0660079,10.2089615 C14.1634384,10.5963257 14.1811874,11.0107977 14.1279405,11.4071978 C14.1015542,11.6078006 14.0570478,11.8053688 13.995012,11.9972801 C13.950055,12.1286079 13.8996562,12.2578502 13.843957,12.3846444 L13.8088367,12.4585029 L13.7824021,12.5135039 C13.7755081,12.53014 13.7664894,12.5457331 13.7555898,12.5598619 L13.6932796,12.6612209 C13.6755307,12.6981502 13.649096,12.7256507 13.6313471,12.7625799 L13.5958491,12.808545 L13.5603512,12.854903 C13.5339166,12.8824035 13.51579,12.9193328 13.4893553,12.9468333 C13.4451717,13.0116559 13.3919249,13.0670498 13.3383003,13.1314796 C13.2786253,13.2013785 13.2165258,13.2689959 13.152125,13.3341976 C13.1256904,13.3616981 13.0901924,13.3891986 13.0633802,13.4265207 C13.0456312,13.4449853 13.0278822,13.4540212 13.0105109,13.4724858 L13.0278822,13.4540212 C12.9350784,13.5393117 12.840392,13.6223592 12.7438988,13.7030972 L12.7174642,13.7305977 L12.6997152,13.7030972 L12.6819662,13.6755967 C12.6287193,13.7121331 12.5664091,13.7400265 12.5135399,13.767527 L12.5577235,13.8504214 L12.5577235,13.8598501 C12.5048542,13.9058153 12.4512297,13.9423516 12.3979828,13.9887096 L12.3715482,13.9242799 L12.3451135,13.8504214 C12.291489,13.8779219 12.2295564,13.8963865 12.1676239,13.9148511 L12.2027442,14.0162101 L12.2118075,14.0437106 L12.2295564,14.0994974 L12.2295564,14.1085333 C12.1724464,14.1516734 12.1132019,14.1916695 12.0520668,14.2283569 L12.0343178,14.1733559 L11.9810709,13.9796738 C11.9187607,13.9981384 11.8568282,14.0071743 11.794518,14.0256389 L11.8568282,14.3481805 L11.8568282,14.3576093 C11.794518,14.3945385 11.7238997,14.4405037 11.6529039,14.4774329 L11.6438406,14.4130032 L11.599657,14.0625681 C11.5350499,14.0732775 11.4698227,14.0794463 11.4044184,14.0810328 L11.4399163,14.5878278 L11.4399163,14.5972566 C11.3598571,14.6341858 11.2888613,14.6801509 11.2091797,14.7170802 L11.2091797,14.0810328 L11.2001164,14.0810328 C11.1291206,14.0810328 11.0585024,14.0810328 10.9961922,14.071604 L10.9606942,14.6805438 L10.9520086,14.7905458 L10.9520086,14.8278679 C10.9255739,14.8369038 10.8896984,14.8553684 10.8632637,14.8644043 L10.8009535,14.8919048 C10.7654556,14.9107623 10.7299577,14.9197982 10.6857741,14.9382628 L10.703523,14.8094033 L10.8009535,14.0531394 L10.6147782,14.0256389 L10.4195396,15.0396218 L10.4195396,15.0490506 C10.375356,15.0675152 10.3307948,15.0765511 10.2866112,15.0950157 L9,21.9355702 C9.32931219,21.891083 9.65533584,21.8233542 9.97581546,21.7328522 L10.8100168,15.0211572 L10.4195396,21.594564 C10.6847283,21.5006279 10.9452447,21.3929801 11.2001164,21.2720223 C11.2533633,21.2445218 11.2979246,21.2256643 11.3511715,21.1981638 L11.3421082,14.9661562 L11.7235221,20.9954458 C12.0083666,20.8284574 12.2813424,20.6404487 12.5403521,20.432864 L11.8394568,14.9382628 L12.8507702,20.175145 C12.8862682,20.1472516 12.9217661,20.1103223 12.9485784,20.082429 L12.9840763,20.2486106 L13.3035577,21.9261415 C13.5480721,21.9601136 13.7937014,21.9847496 14.0399509,22 L13.4274228,19.6215991 L13.4274228,19.6125632 C13.454235,19.5850627 13.4810473,19.5477406 13.5074819,19.5202401 C13.5161676,19.5112042 13.5252309,19.5017754 13.5252309,19.4927395 L12.3186789,14.8369038 L13.7737164,19.1792338 C13.7824021,19.169805 13.7914654,19.1607692 13.7914654,19.1517333 C13.8092144,19.1238399 13.835649,19.0959465 13.853398,19.068446 L13.8979592,19.216163 L14.7940931,21.9544277 C15.0462845,21.9352847 15.2978015,21.9075073 15.5482353,21.8711405 L14.2793731,18.7085823 L14.2170629,18.5522222 C14.2261262,18.5431864 14.2348119,18.5247217 14.2438752,18.515293 C14.2616242,18.4783637 14.2880588,18.4508632 14.3058078,18.413934 L12.780152,14.6062924 L14.4655484,18.1373575 C14.4919831,18.1004282 14.5101097,18.0544631 14.5365443,18.0175338 L14.5811055,18.1188928 L16.2933142,21.7143876 C16.5412679,21.6494693 16.7844543,21.5662327 17.0210218,21.4653116 L14.84734,17.5657398 L14.7940931,17.4734167 C14.7940931,17.4734167 14.7940931,17.4643808 14.8027788,17.4643808 C14.8205277,17.4184156 14.8382767,17.3814864 14.8560257,17.3351284 C14.8560257,17.3351284 14.8560257,17.3260925 14.865089,17.3260925 L13.1883782,14.32068 L14.9625195,17.0679806 L14.9625195,17.0585519 C14.9802684,17.0125867 14.9980174,16.9760504 15.0067031,16.9296924 L15.0067031,16.9387282 L17.7128538,21.133734 C17.944382,21.0108991 18.1695155,20.8754343 18.3873145,20.7279051 L15.2461253,16.4778983 L15.1751294,16.3855752 C15.1838151,16.3671106 15.1838151,16.3490388 15.1928784,16.3305742 L15.219313,16.2197864 L13.5512879,13.970245 L15.2725599,16.0076397 C15.2816232,15.9801392 15.2816232,15.9526387 15.2903089,15.9337812 C15.2993722,15.9157094 15.2993722,15.887816 15.2993722,15.8693514 L15.370368,15.9616745 L19.007773,20.2670752 C19.2085029,20.0957126 19.400956,19.914118 19.5844256,19.7229581 L15.4681762,15.4454507 L15.388117,15.3625564 C15.3968027,15.3071625 15.405866,15.2517686 15.405866,15.1963747 L13.9066448,13.6477034 L15.4236149,15.030586 C15.4323006,14.9846208 15.4323006,14.929227 15.4323006,14.882869 L15.4587352,14.9013336 L20.1082089,19.1423045 C20.2725989,18.9325076 20.4265009,18.714048 20.5693044,18.4877925 L15.5920413,14.5045406 L15.4677985,14.4031816 L15.4677985,14.227964 L14.1989363,13.2139811 L15.4677985,14.0991045 C15.4677985,14.0527465 15.4677985,14.0067814 15.4591129,13.9513875 L15.5565434,14.0158173 L20.9597816,17.7778865 C21.0753387,17.5382393 21.1818325,17.2891633 21.2705773,17.0404801 L15.4768618,13.5557731 L15.4323006,13.5278797 C15.4236149,13.4724858 15.4236149,13.417092 15.4145516,13.3616981 L14.5539156,12.8454743 L15.405866,13.2788037 C15.3968027,13.2328386 15.3968027,13.1868734 15.388117,13.1314796 L21.5096219,16.2751803 C21.5714625,16.0190424 21.6248665,15.7607796 21.6697402,15.5008446 L15.3254292,12.7720087 C15.3179341,12.7157076 15.3060626,12.6601315 15.2899312,12.605827 L14.8020235,12.3936803 L15.2812456,12.5598619 C15.2733495,12.5165806 15.2645358,12.473486 15.2548109,12.4306095 L15.3786761,12.4769675 L21.7494217,14.7170802 C21.7667931,14.4589683 21.7667931,14.2008564 21.7581074,13.9333158 L15.396425,12.1634617 L15.3971803,12.1630689 Z" id="Path"></path>
                    <path d="M12.9123251,6.69636108 L12.8949538,6.75175495 L12.3447359,8.13463756 C12.4070461,8.16213807 12.4599153,8.19003144 12.5222255,8.21753194 L13.2321842,6.7148257 L13.2673045,6.63232418 C13.320929,6.62289544 13.3651126,6.61346669 13.4183595,6.61346669 L16.4084937,0.298564705 C16.0812412,0.206308353 15.7494457,0.132473656 15.4145516,0.0773820613 L12.7793967,6.72425445 C12.8148947,6.7148257 12.8594559,6.70578982 12.9127028,6.69675394 L12.9123251,6.69636108 Z" id="Path"></path>
                    <path d="M13.6400327,6.58596619 L13.6045348,6.65039594 L12.6819662,8.30985507 C12.7348355,8.34678432 12.7971457,8.38371357 12.8503926,8.42064283 L13.9863264,6.6409672 L14.0391956,6.55846568 C14.0928202,6.55846568 14.1370038,6.55846568 14.1902507,6.54903694 L17.8193476,0.888254134 C17.5187865,0.721457085 17.2073529,0.576790135 16.8873381,0.455317592 L13.480292,6.59500207 C13.5335389,6.59500207 13.5867858,6.58596619 13.6400327,6.58596619 L13.6400327,6.58596619 Z" id="Path"></path>
                    <path d="M12.2828033,6.85311396 L12.2563687,6.94543709 L11.9806933,8.00538518 C12.0430035,8.02384981 12.1053137,8.04231443 12.1581829,8.06077906 L12.5667868,6.80714883 L12.5754724,6.77021958 C12.619656,6.7611837 12.6729029,6.74271907 12.7174642,6.73329033 L14.891146,0.0219881842 C14.5539156,-0.00551232215 14.2170629,-0.00551232215 13.8885182,0.0125594392 L12.1317483,6.89004321 C12.1849952,6.88100733 12.2295564,6.87157859 12.2828033,6.85311396 L12.2828033,6.85311396 Z" id="Path"></path>
                    <path d="M15.405866,6.62289544 L15.370368,6.65943183 L13.3118657,8.80761424 C13.3560493,8.85357937 13.4006105,8.90897325 13.4447941,8.95533124 L15.8937737,6.7148257 L15.9024594,6.70578982 C15.9557063,6.7148257 16.0002675,6.72425445 16.0535144,6.74271907 L20.2056394,2.94411342 C20.0249133,2.70384291 19.8293897,2.47602669 19.6203012,2.26210086 C19.5844256,2.22517161 19.5493053,2.18824236 19.5138074,2.16074185 L15.2548109,6.60403795 C15.2993722,6.60403795 15.3526191,6.61346669 15.405866,6.62250257 L15.405866,6.62289544 Z" id="Path"></path>
                    <path d="M14.4742341,6.54903694 L14.4296729,6.61346669 L13.0101333,8.5400736 C13.0633802,8.57700285 13.1166271,8.62336084 13.1611883,8.66932598 L14.9175806,6.58596619 L14.9266439,6.57653744 C14.9795132,6.57653744 15.0240744,6.58596619 15.0776989,6.58596619 L19.1142668,1.79144934 C18.8508576,1.56618025 18.5752321,1.35683185 18.2887511,1.16443779 L14.3144934,6.54903694 L14.4742341,6.54903694 L14.4742341,6.54903694 Z" id="Path"></path>
                </g>
                <text id="U.S-Chamber-of-Comme" font-family="HelveticaNeue-Light, Helvetica Neue" font-size="10" font-weight="300" line-spacing="11" letter-spacing="-0.300000012" fill="#4B4B4B">
                    <tspan x="39" y="21">U.S Chamber</tspan>
                    <tspan x="39" y="32">of Commerce</tspan>
                </text>
            </g>
        </g>
    </g>
</svg>