<?xml version="1.0" encoding="UTF-8"?>
<svg width="105px" height="48px" viewBox="0 0 105 48" version="1.1" xmlns="http://www.w3.org/2000/svg" xmlns:xlink="http://www.w3.org/1999/xlink">
    <!-- Generator: Sketch 53.2 (72643) - https://sketchapp.com -->
    <title>Group 20 Copy</title>
    <desc>Created with Sketch.</desc>
    <g id="Page-1" stroke="none" stroke-width="1" fill="none" fill-rule="evenodd">
        <g id="03-Navigation-Copy-2" transform="translate(-1140.000000, -1169.000000)">
            <g id="Group-20-Copy" transform="translate(1121.000000, 1151.000000)">
                <text id="Department-of-Health" font-family="HelveticaNeue-Bold, Helvetica Neue" font-size="8" font-weight="bold" line-spacing="9" letter-spacing="-0.300000012" fill="#969696">
                    <tspan x="63" y="35">Department </tspan>
                    <tspan x="63" y="44">of Health and</tspan>
                    <tspan x="63" y="53">Human Service</tspan>
                    <tspan x="116.884" y="53" letter-spacing="-0.5">s</tspan>
                </text>
                <g id="Group-7">
                    <path d="M50.3928432,25.82601 L49.9190832,25.58913 L49.4394432,25.363842 L48.9488832,25.150146 L48.4516032,24.953754 L47.9434032,24.76887 L47.4352032,24.601374 L46.9152432,24.445386 L46.3894032,24.306786 L45.8635632,24.185406 L45.3268032,24.075702 L44.7833232,23.983302 L44.2348032,23.908122 L43.6862832,23.850414 L43.1310432,23.809926 L42.5716032,23.78103 L42.0054432,23.775318 C31.9254432,23.775318 23.7749232,31.937598 23.7749232,41.999958 C23.7749232,42.726306 23.817439,43.442826 23.9001168,44.147082 C24.9622968,53.193882 32.6537568,60.224682 42.0054768,60.224682 C52.0678368,60.224682 60.2250768,52.05669 60.2250768,42.000042 C60.2250768,36.154146 57.4754208,30.943962 53.1892368,27.610842" id="Path" stroke="#969696" stroke-width="0.945938794" stroke-linecap="square"></path>
                    <path d="M52.8775445,23 C52.8775445,23 52.9095417,23.0700022 52.9406637,23.19551 C52.9717866,23.3210228 53.0019451,23.5019336 52.998087,23.723702 C52.9973864,23.7606637 52.9957652,23.7989274 52.9930697,23.8380932 C52.987692,23.9164156 52.9779152,23.999012 52.9625357,24.085322 C52.9548471,24.1284778 52.9458415,24.1725308 52.935192,24.2174876 C52.9245408,24.2624368 52.9124238,24.3082832 52.898505,24.3548864 C52.8845879,24.4014921 52.8688269,24.4487144 52.8513365,24.4968464 C52.8338468,24.5449776 52.8145999,24.5938412 52.7932311,24.6433676 C52.7504928,24.7424036 52.6997391,24.8442452 52.6396791,24.9480188 C52.5495471,25.1036792 52.4384991,25.2639428 52.3024191,25.427222 C52.2570633,25.4816473 52.2087591,25.5365228 52.1576871,25.5915092 C51.8512551,25.9215116 51.4392351,26.2606784 50.8884471,26.5943852 C50.7966351,26.6499957 50.7009591,26.7052652 50.6013351,26.7605372 C50.4605511,26.8715852 50.3182551,26.9817932 50.1745311,27.0911612 C50.0308071,27.2005292 49.8856551,27.3090572 49.7393271,27.4167452 C49.5929991,27.5245172 49.4454111,27.6316172 49.2968151,27.7377932 C49.1482191,27.8439692 48.9984471,27.9493052 48.8479191,28.0538852 C48.5467791,28.2630452 48.2421951,28.4691812 47.9353431,28.6721252 C47.3215551,29.0781812 46.6987791,29.4720572 46.0777671,29.8547612 C45.1462911,30.4287332 44.2186791,30.9772532 43.3307991,31.5031772 C43.0348671,31.6784852 42.7433871,31.8512732 42.4576191,32.0215412 C42.1718511,32.1918932 41.8916271,32.3598092 41.6186271,32.5253732 C41.3456271,32.6909372 41.0797671,32.8542332 40.8222231,33.0152612 C40.4359071,33.2567612 40.0684071,33.4932212 39.7243431,33.7250612 C39.6096831,33.8023294 39.4975431,33.8789492 39.3882591,33.9552212 C38.7322191,34.4126852 38.1756351,34.8517532 37.7542071,35.2751972 C37.6993232,35.336571 37.6384551,35.4023732 37.5735231,35.4731852 C37.3463031,35.7212372 37.0703631,36.0314492 36.8340711,36.4311212 C36.8003258,36.4882227 36.7675112,36.5471252 36.7356231,36.6079412 C36.5444391,36.9730052 36.3917271,37.4066972 36.3331791,37.9266572 L35.6227071,40.4684972 L35.6227071,40.514756 L35.6170136,40.5493917 L35.6113201,40.595648 L35.6053931,40.6476012 L35.5939951,40.705252 L35.5823745,40.7631306 L35.5650571,40.832402 L35.5418143,40.907598 L35.5131031,40.9827931 L35.4841643,41.0634583 L35.4436032,41.1443511 L35.4032714,41.2252423 L35.3513183,41.3061351 L35.2934397,41.3927391 L35.2298652,41.473632 L35.1548969,41.5545248 L35.1143375,41.5948566 L35.074004,41.6294923 L35.0277477,41.6700525 L34.9814915,41.7046882 L34.9352335,41.7393248 L34.8313255,41.8085946 L34.7736755,41.8432311 L34.7157969,41.8721708 L34.6522224,41.9011088 L34.5886478,41.9298208 L34.5250733,41.9530636 L34.4558018,41.981774 L34.3808335,42.0050168 L34.2304399,42.0396517 L34.1438359,42.05697 L34.0629431,42.0685897 L33.9763391,42.0799885 L33.8838551,42.0916082 L33.7915391,42.0975352 L33.6933431,42.1032288 L33.4855271,42.1032288 L33.3811991,42.0975352 L33.2658671,42.0916082 L33.1503671,42.0799885 L33.0348671,42.0626702 C32.3907551,41.9803494 31.7050631,41.9071862 31.0536431,41.8845062 C30.8092871,41.8759777 30.5698871,41.8745782 30.3390551,41.8824532 C30.1851671,41.8877032 30.0350591,41.8969995 29.8901591,41.9111636 C29.7452591,41.9253285 29.6055671,41.9442109 29.4720071,41.968586 C29.4052321,41.9807736 29.3398751,41.99439 29.2764551,42.0093747 C29.2129561,42.0243578 29.1511271,42.040653 29.0912351,42.0585928 C29.0313086,42.0765369 28.9731311,42.0960921 28.9171031,42.117156 C28.861044,42.1382156 28.8072311,42.1609435 28.7553191,42.1852875 C28.5996671,42.2583196 28.4633351,42.3463995 28.3504391,42.4519035 C28.3127987,42.4870668 28.2777287,42.5241922 28.2453551,42.5633715 C28.2130579,42.6024668 28.1833555,42.6434193 28.1567351,42.6866835 C28.1300751,42.7298713 28.106367,42.7753035 28.08564,42.8226795 C28.0649113,42.8701244 28.0472747,42.9196155 28.0327754,42.9714435 C27.989276,43.1270115 27.9743543,43.3029915 27.9922152,43.5012315 C28.0100753,43.6994715 28.0606365,43.9202235 28.1478672,44.1655035 C28.1617667,44.1290383 28.1777435,44.094327 28.1957195,44.0613435 C28.2136946,44.0284105 28.2337715,43.997233 28.2556484,43.9676835 C28.2775254,43.9381491 28.3013654,43.9103283 28.3269703,43.8840573 C28.3525743,43.8577846 28.3798466,43.8331432 28.4090022,43.8100004 C28.4381586,43.7868584 28.4690109,43.7652066 28.5014862,43.7450583 C28.5665551,43.7047627 28.6384062,43.6702765 28.7159382,43.6411503 C28.793471,43.612025 28.8768822,43.5883975 28.9654182,43.5693715 C29.0097181,43.5598635 29.0552982,43.5514971 29.1021702,43.5443067 C29.1489767,43.5371205 29.1970062,43.5310792 29.2461462,43.5260779 C29.3935662,43.5110721 29.5509822,43.5055718 29.7162102,43.5078482 C30.4873302,43.518465 31.4271222,43.6971842 32.2958502,43.8603962 C32.5440702,43.9070019 32.7864102,43.9526282 33.0174942,43.9923602 C34.0616142,43.9923602 34.5078222,44.0182288 35.0580222,43.8777842 C35.1497502,43.8543625 35.2444182,43.826367 35.3451342,43.7927762 C35.4458502,43.7592148 35.5526982,43.7200129 35.6689542,43.6745042 C35.8584582,43.5481682 36.0258702,43.4162882 36.1743822,43.2791162 C36.2114951,43.2448442 36.2473723,43.2103219 36.2821542,43.1754602 C36.3169512,43.1405532 36.3507864,43.1052832 36.3832902,43.0697042 C36.4158671,43.0341772 36.4471739,42.9982496 36.4776222,42.9621842 C36.6908142,42.7092602 36.8534382,42.4416362 36.9823782,42.1619162 C37.0928382,41.9221802 37.1785182,41.6735402 37.2503382,41.4175082 C37.2742715,41.3321642 37.2965558,41.2458122 37.3177868,41.1588722 C37.3814807,40.8980522 37.4348828,40.6303442 37.4886428,40.3575122 C37.5244587,40.1755682 37.5602679,39.9913562 37.5996068,39.8051282 C37.6586387,39.5258282 37.7254388,39.2420762 37.8103628,38.9558882 C37.9235948,38.5742762 38.0695028,38.1880442 38.2733708,37.8006362 C38.3752628,37.6069322 38.4915188,37.4128922 38.6256668,37.2191042 C38.692745,37.1222522 38.7641828,37.0253162 38.8405388,36.9285482 C38.9168671,36.8318642 38.9981228,36.7353482 39.0845588,36.6389162 C39.2573468,36.4460522 39.4508828,36.2537762 39.6686108,36.0626762 C39.7774748,35.9671682 39.8923028,35.8718282 40.0135988,35.7769082 C40.1955428,35.6345282 40.3920188,35.4928202 40.6042028,35.3522042 C40.6749275,35.3053188 40.7475068,35.2587122 40.8218468,35.2120922 C41.2644428,34.8864242 41.7117428,34.5684002 42.1630748,34.2564242 C42.6144068,33.9444482 43.0700228,33.6382682 43.5291668,33.3358682 C43.7587388,33.1846682 43.9891508,33.0343082 44.2204868,32.8847042 C44.4518228,32.7351002 44.6840828,32.5861682 44.9170988,32.4376562 C45.3830468,32.1406322 45.8521028,31.8453722 46.3240148,31.5496922 C47.7396668,30.6626522 49.1798468,29.7722522 50.6313668,28.8233042 C50.8732868,28.6651322 51.1155428,28.5053642 51.3580508,28.3436642 C51.6005588,28.1819642 51.8433188,28.0185842 52.0863308,27.8528522 C52.2161108,27.7438202 52.3384148,27.6367202 52.4539148,27.5318042 C52.5693308,27.4268882 52.6777748,27.3240722 52.7794988,27.2232722 C52.8812228,27.1224722 52.9764788,27.0238562 53.0652668,26.9270042 C53.3314628,26.6366162 53.5407908,26.3642882 53.7017348,26.1094322 C53.7554075,26.0245082 53.8035428,25.941491 53.8468868,25.8603722 C54.1066988,25.3737182 54.1860788,24.9557762 54.1565948,24.6018842 C54.1516716,24.5428935 54.1437689,24.4857626 54.1331252,24.4302974 C54.1224849,24.3748305 54.1091709,24.3209546 54.0934772,24.268967 C54.0777818,24.2169777 54.0595555,24.1666802 54.0394728,24.1181114 C53.9993065,24.0209906 53.9510208,23.9308586 53.8972608,23.8471778 C53.8703934,23.8053399 53.8422391,23.7651829 53.8129248,23.7266378 C53.7251448,23.610995 53.6280408,23.509985 53.5306008,23.4231122 C53.4981306,23.3941582 53.4657729,23.3667003 53.4334968,23.3408518 C53.3368968,23.2633064 53.2428168,23.1996646 53.1604968,23.1492142 C53.1055986,23.1155874 53.0559168,23.0878615 53.0140008,23.0658157 C52.9301831,23.0217249 52.8777528,23.0004175 52.8777528,23.0004175 L52.8775193,23.0004175 L52.8775445,23 Z M51.9743765,28.6433014 L51.9741438,28.643535 L51.7487718,29.746875 C47.9130798,34.593339 39.4276518,34.911279 38.9891718,42.298995 L39.1623798,42.553095 C39.5898558,43.171167 38.5616118,44.072235 38.3074278,44.499795 C37.7528598,45.031263 37.7704158,45.412539 38.9372598,45.649419 C38.9372598,45.903603 38.9082773,46.203987 38.7984918,46.406175 C38.8157958,46.579551 39.0987918,46.816347 39.0987918,46.816347 C39.2257998,46.960743 38.9890038,47.070531 39.0352181,47.243823 C39.0814181,47.498007 39.3645821,47.417199 39.5898701,47.862063 C38.9371061,50.675223 43.0788941,47.8156958 43.8068381,50.293863 C43.5353501,52.188567 41.1035501,52.050051 40.0290221,53.609763 C39.1741541,55.602663 40.4854781,56.249631 40.4854781,56.266851 L40.6356701,56.3304255 L40.7858621,56.3883032 L40.9303421,56.4402564 L41.0748221,56.4865135 L41.2190501,56.5268461 L41.3635301,56.5671778 L41.5080101,56.5961167 L41.6465261,56.6193595 L41.7852941,56.6366778 L41.9238101,56.6480648 L42.0625781,56.653991 L42.3283541,56.653991 L42.4609901,56.6423713 L42.5881661,56.625053 L42.7155101,56.6077347 L42.8426861,56.5844919 L43.0851101,56.5152213 L43.2065741,56.4748887 L43.3277861,56.4286316 L43.4431181,56.3766784 L43.5531581,56.3188008 L43.6686581,56.2611507 L43.7725661,56.19165 L43.8824381,56.1223794 L43.9863461,56.0474119 L44.0902541,55.966519 L44.1884501,55.8856262 L44.2868981,55.7931422 L44.3792141,55.7008262 L44.4716981,55.6026302 L44.4714645,55.6026302 C43.5992085,55.3773422 42.8599245,55.7297222 42.0223605,54.4819862 C41.5601925,51.7958342 44.5003605,52.3330982 46.0022805,50.9582702 C47.0767245,47.6540462 42.0800685,49.3928462 41.8605765,48.2086142 C41.8605765,48.1278054 41.5948005,47.9428382 41.7507045,47.4691622 C41.6698965,47.1802862 41.7854007,47.0070782 41.4041205,46.7586902 C41.3117205,46.3947182 41.4330762,46.5043382 41.4503777,46.4061422 C41.3406737,46.0941662 41.1208457,46.406175 41.1208457,46.0768622 C41.0226497,45.7475822 41.1843505,45.6032702 41.0399537,45.3490862 C40.8839657,45.1930982 40.2196937,45.1466462 40.2831977,44.8751582 C40.7857697,43.9913102 41.1383177,43.2809222 41.1037097,43.5004982 C41.1499265,43.2983102 41.1499265,43.2175862 41.1037097,42.9980942 C40.9477217,42.4262222 40.6300337,41.8313342 41.3694017,41.0224142 C42.2243537,37.0423262 47.2672937,36.2567582 49.7744417,33.7092062 C51.1030697,32.6347622 52.8765617,32.1318542 53.0786657,30.1735622 C52.8417857,29.6016902 52.7146937,28.7987342 51.9753257,28.6427462 L51.9743765,28.6433014 Z M51.2971013,33.0176762 C51.297218,33.019263 51.3078465,33.1313282 51.2882115,33.3198242 C51.2610308,33.5808122 51.1759875,33.9863642 50.9254155,34.4404682 C50.9026364,34.4817492 50.8783235,34.5232863 50.852727,34.5653762 C50.8271305,34.6073888 50.8001825,34.6497122 50.7716065,34.6923002 C50.7430305,34.7349 50.7128661,34.7778122 50.6811385,34.8208202 C50.6494226,34.8638626 50.6161368,34.9073402 50.5810945,34.9506842 C50.5460757,34.9940257 50.5092963,35.0375402 50.4708025,35.0810522 C50.4323187,35.1245466 50.3921676,35.1680762 50.3500105,35.2115882 C50.2657585,35.2986122 50.1741985,35.3853842 50.0744905,35.4715682 C49.9747825,35.5577522 49.8669265,35.6430962 49.7504185,35.7272642 C49.6921838,35.7693658 49.6317265,35.811202 49.5690625,35.8525922 C49.4437345,35.93537 49.3093345,36.0165602 49.1652745,36.0956882 C48.8771545,36.2538602 48.5937385,36.4167362 48.3171265,36.5810402 C48.1788625,36.6632098 48.0423625,36.7457642 47.9078785,36.8282522 C46.4282185,37.7360402 45.1935865,38.6413922 44.5929025,39.0151082 C44.5382899,39.0490795 44.4888265,39.0786954 44.4449785,39.1035602 C44.401133,39.1283452 44.3628147,39.1484599 44.3304025,39.1632615 C44.2791306,39.1863615 44.2194385,39.2227352 44.1542545,39.2701095 C44.1216768,39.2938168 44.0878063,39.32036 44.0528665,39.3491787 C43.9479505,39.4356147 43.8339625,39.5434707 43.7206465,39.6643467 C43.6828793,39.7046197 43.6451238,39.7463794 43.6078345,39.7892547 C43.5333307,39.8748507 43.4605825,39.9649827 43.3925425,40.0567947 C43.3244471,40.1486067 43.2610825,40.2420987 43.2052225,40.3350027 C43.0934185,40.5208107 43.0118545,40.7035107 42.9837145,40.8625227 C42.9766795,40.9022749 42.9727827,40.9407141 42.9727827,40.9770987 C42.9727827,40.9770987 42.9450006,41.0727747 42.9051065,41.2204467 C42.8851598,41.2942777 42.8623731,41.3811387 42.8383424,41.4753867 C42.7542584,41.8056747 42.6571544,42.2281947 42.6311984,42.5090067 C42.6274999,42.5491209 42.6251429,42.5863396 42.6245943,42.6199707 C42.6234276,42.6872589 42.6290631,42.7401747 42.6435078,42.7733547 C42.7085028,42.9538707 42.7780758,43.1503467 42.7674918,43.3385067 C42.7621838,43.4325867 42.7368469,43.5247347 42.6808878,43.6117587 C42.669699,43.629156 42.6572342,43.6462852 42.6435179,43.6632574 L42.0834059,44.2582294 C42.0834059,44.2582294 41.9365739,44.3280738 41.9181779,44.4721774 C41.9163467,44.4865918 41.9157981,44.5018488 41.9168129,44.5177516 C41.9218537,44.5972585 41.9660436,44.6954956 42.0833849,44.8128436 C42.0833849,44.8128436 42.1183011,44.8128218 42.1725089,44.8153519 C42.2537352,44.8191436 42.3781409,44.8285684 42.4917089,44.8522657 C42.5864609,44.8720166 42.6737369,44.9016804 42.7227929,44.9461777 C42.7326041,44.9550674 42.7409024,44.9645493 42.7474023,44.9746604 C42.7618403,44.9963223 42.7711374,45.0199826 42.7770258,45.0452994 C42.8064653,45.1718874 42.7485683,45.3400554 42.7977612,45.5105754 C42.8075959,45.5446911 42.8217701,45.578906 42.8417385,45.6128874 C42.8517253,45.629878 42.8630468,45.6468637 42.8761475,45.6637015 C42.8892481,45.6805393 42.9039741,45.697225 42.9205818,45.7138327 C42.9537828,45.7456057 42.9698175,45.7706612 42.9759529,45.7935856 C42.9790214,45.8050533 42.9795464,45.8160044 42.9786829,45.8270815 C42.9778664,45.8381535 42.9754161,45.8493499 42.9725349,45.8612619 C42.9696529,45.873174 42.9662114,45.8858067 42.9631899,45.8997717 C42.9571461,45.9277017 42.9529344,45.9609162 42.9577182,46.0043517 C42.9601097,46.02608 42.9645894,46.050288 42.9725291,46.0777249 C42.9840791,46.1325987 42.9900078,46.1739049 42.9971385,46.2090169 C43.0007085,46.2265712 43.0045356,46.2425186 43.0096713,46.2580082 C43.0199378,46.2889882 43.0350755,46.3179162 43.0623083,46.3520882 C43.1031583,46.4034324 43.1712563,46.4670002 43.2903683,46.5688082 C43.3726883,46.6352312 43.4201483,46.6849802 43.4446763,46.7258042 C43.4507898,46.736001 43.4556315,46.7457802 43.4590319,46.7549707 C43.4658224,46.7733474 43.4673621,46.7897962 43.4654142,46.8055572 C43.4644801,46.8134439 43.4625557,46.8212173 43.4599424,46.8287991 C43.4442361,46.8742935 43.4022907,46.9164111 43.3724144,46.9810071 C43.3624747,47.0025405 43.3538093,47.0267048 43.3480334,47.0541518 C43.3408119,47.0823145 43.3295055,47.117833 43.3177262,47.1592358 C43.3059469,47.200563 43.2936653,47.2475198 43.2844589,47.2980038 C43.2752541,47.3485054 43.2691507,47.4027518 43.2696463,47.4584438 C43.2698798,47.4862831 43.2717933,47.5143424 43.2757951,47.5427798 C43.2798086,47.5711651 43.2860389,47.5998183 43.2947077,47.6282078 C43.3120394,47.6850708 43.3395788,47.7414398 43.3808077,47.7954518 C43.4014557,47.8224796 43.4255217,47.8489455 43.4534979,47.8745218 C43.4814725,47.9000973 43.5132362,47.9249538 43.5494259,47.9485779 C43.5856224,47.9722038 43.6262565,47.9946217 43.6715619,48.0157989 C43.7621979,48.0581509 43.8718179,48.0951319 44.0042859,48.1247469 C44.070488,48.139525 44.1422979,48.1524241 44.2203339,48.1632567 C44.2993989,48.17301 44.3779179,48.1802524 44.4557019,48.1853588 C44.6890539,48.2006829 44.9159379,48.1963376 45.1324899,48.179887 C45.204651,48.1744035 45.2756259,48.1677364 45.3453459,48.1598346 C45.6937779,48.1203277 46.0094499,48.0540786 46.2737139,47.9957826 C46.5378939,47.9374756 46.7504979,47.8870026 46.8930459,47.8793586 C46.9215555,47.8778306 46.9473183,47.8781103 46.9700647,47.8802918 C47.0895967,47.8940082 47.2028287,47.9080975 47.3100127,47.9226748 C47.4171967,47.9372522 47.5185007,47.9523529 47.6141767,47.9677929 C47.9013727,48.0141105 48.1388407,48.0643089 48.3380887,48.1184049 C48.4708927,48.1544888 48.5866447,48.1922922 48.6887887,48.2318889 C48.7398683,48.2516793 48.7876567,48.2718318 48.8323447,48.2925016 C48.8770243,48.3131715 48.9185287,48.3342975 48.9576727,48.3558486 C49.0359137,48.3989498 49.1040007,48.4438806 49.1649847,48.4905006 C49.2260535,48.5371441 49.2802327,48.5854206 49.3308847,48.6356526 C49.3562057,48.6607568 49.3807328,48.6864423 49.4047131,48.7124428 C49.4526738,48.7644439 49.4987931,48.8183668 49.5464211,48.8739748 C49.6637691,49.0111468 50.0083371,49.2334948 50.4701691,49.4190508 C50.5625691,49.4561637 50.6595891,49.4916218 50.7604731,49.5248068 C50.9621571,49.5911929 51.1790451,49.6481188 51.4041651,49.6870108 C51.4604409,49.6967641 51.5172291,49.7055606 51.5743491,49.712987 C51.6887571,49.7278382 51.8045091,49.737599 51.9211851,49.7416982 C52.1545371,49.7498882 52.3909131,49.734675 52.6230051,49.688149 C52.7390931,49.6648894 52.8540051,49.6338817 52.9670691,49.594069 C53.1366651,49.5342652 53.3021451,49.454713 53.4601491,49.352065 C53.5654851,49.2836244 53.6675451,49.204813 53.7654891,49.114849 C53.8634331,49.024885 53.9574291,48.923749 54.0462171,48.810433 C54.2238771,48.585145 54.3729771,48.398077 54.4987251,48.243265 C54.6244731,48.088453 54.7267851,47.965981 54.8091051,47.869549 C54.8778482,47.7890493 54.9256971,47.735905 54.9695451,47.688361 L54.9410616,47.6954196 L54.8948045,47.712737 L54.8371536,47.7300553 L54.7792759,47.7473736 L54.7157022,47.7646902 L54.577161,47.7993267 L54.501965,47.816645 L54.4212998,47.8339616 L54.2595158,47.8685982 L54.1729118,47.8859164 L54.0860558,47.903233 L53.9994518,47.9148536 L53.9071358,47.9264733 L53.8205318,47.9380939 L53.7280478,47.9437866 L53.6357318,47.9494801 L53.4509318,47.9494801 L53.3584478,47.9437866 L53.2661318,47.9380939 L53.1795278,47.9264733 L53.0870438,47.909155 L53.0004398,47.8918384 L52.9138358,47.8685956 L52.832943,47.8398836 L52.752051,47.8050211 L52.6711581,47.7703854 C52.4184021,47.6360694 52.1916021,47.5197294 51.9873141,47.4187614 C51.5788221,47.2168254 51.2606301,47.0765454 51.0061101,46.9771734 C50.7515901,46.8778014 50.5605741,46.8194214 50.4068541,46.7814534 C50.2530501,46.7434484 50.1364581,46.7256362 50.0301981,46.7078526 C49.9770488,46.698962 49.9265421,46.6902403 49.8752181,46.6786852 C49.8196185,46.6649613 49.7582061,46.6518934 49.6901661,46.6406316 C49.3842381,46.5899527 48.9460941,46.5744202 48.3164301,46.686661 C48.246464,46.6991317 48.1742181,46.7132924 48.0994581,46.7290441 C48.024678,46.7447949 47.9475021,46.762167 47.8677021,46.7814534 C47.6284701,46.83931 47.3663061,46.9137534 47.0792781,47.0079174 C46.9836021,47.0386051 46.8941421,47.0646526 46.8103941,47.0867598 C46.6428981,47.1309698 46.4982501,47.1590157 46.3737621,47.1742878 C46.3114829,47.181894 46.2542301,47.186267 46.2014781,47.1879588 C46.0433061,47.193034 45.9262101,47.1734209 45.8396061,47.1412464 C45.810758,47.1305246 45.7852892,47.1183312 45.7628159,47.105244 C45.7403408,47.0921568 45.7209167,47.0781044 45.7040259,47.0635447 C45.5857539,46.9616527 45.5946579,46.8347287 45.5946579,46.8347287 C45.5946579,46.7957317 45.5997567,46.7286367 45.6030932,46.6503487 C45.6089388,46.5134287 45.6093932,46.3413127 45.5684567,46.2216967 C45.5626119,46.2046119 45.5560532,46.1887628 45.548405,46.1740729 C45.5331095,46.1446922 45.513839,46.120622 45.4900712,46.10389 C45.4781877,46.0955253 45.4651971,46.088959 45.4508785,46.0845213 C45.4365599,46.0800878 45.4209031,46.0776846 45.4039385,46.0776846 C45.3743327,46.0766346 45.3474569,46.0743363 45.3230456,46.0708478 C45.2986327,46.0673593 45.2768582,46.0627393 45.257193,46.0571751 C45.2375269,46.0516101 45.2201481,46.0448926 45.2047829,46.0375788 C45.1740557,46.0229502 45.1514798,46.0052631 45.1352829,45.9856256 C45.1109893,45.9561685 45.1009085,45.9225013 45.0992805,45.8892776 C45.0971108,45.8448752 45.1098041,45.8012456 45.1229795,45.7684856 C45.1361549,45.7357256 45.1498662,45.714025 45.1498662,45.714025 L45.1209282,45.6331322 C45.0754422,45.6251875 45.0386603,45.6133359 45.0094602,45.598725 C44.9948895,45.5914212 44.9822333,45.5835882 44.971178,45.5750277 C44.9490684,45.5579026 44.9336586,45.5383424 44.9233266,45.5178321 C44.8664947,45.4050201 44.9647991,45.2576001 44.9647991,45.2576001 C44.9597473,45.2229392 44.9540655,45.1915383 44.9481645,45.1628481 C44.942261,45.1340764 44.9359745,45.1079289 44.9292511,45.0844627 C44.9158027,45.0375268 44.9007398,45.0006424 44.8841339,44.9714827 C44.8675271,44.9422389 44.8494881,44.9207349 44.8299018,44.9044902 C44.7907292,44.871999 44.7457338,44.8607404 44.6956698,44.8520809 C44.6706663,44.8477524 44.6444961,44.8440538 44.6170559,44.8386367 C44.5896156,44.8332237 44.5608733,44.8261291 44.5311239,44.8149386 C44.5014257,44.8037498 44.4708463,44.7885198 44.4390599,44.7668587 C44.408,44.7473598 44.3794358,44.7256827 44.3537999,44.7023727 C44.2515719,44.6091327 44.1953759,44.4881727 44.2018439,44.3609967 C44.2034659,44.3292052 44.2090074,44.2970803 44.2187077,44.2648167 C44.2381151,44.2003753 44.2743191,44.1357087 44.3292517,44.0736327 C44.3668005,44.0321157 44.4006853,43.9910994 44.4313117,43.9508247 C44.461986,43.9105266 44.4893952,43.8707727 44.5137997,43.8318807 C44.5626087,43.75409 44.5994797,43.6794207 44.6267797,43.6083567 C44.6678053,43.5017607 44.6874495,43.4033967 44.6937731,43.3160367 C44.7085277,43.1121687 44.6510271,42.9674367 44.6247293,42.9131727 C44.6172155,42.8976588 44.6121965,42.8894746 44.6121965,42.8894746 C44.5472124,42.5573386 44.5760983,42.2409106 44.6801004,41.9379226 C44.7061026,41.8621672 44.7368373,41.7873946 44.7719124,41.7132226 C44.7894684,41.6761509 44.8080147,41.639133 44.8277405,41.6025106 C44.8474628,41.5658295 44.8683553,41.5294332 44.8901751,41.4931426 C44.9774511,41.3479066 45.0812751,41.2056946 45.1991271,41.0660866 C45.4939671,40.7171506 45.8771751,40.3846786 46.3127151,40.0637146 C46.4869311,39.9353626 46.6693791,39.8086906 46.8579591,39.6836146 C46.9522911,39.62108 47.0480511,39.5590426 47.1450711,39.4972186 C47.5331511,39.2499226 47.9408031,39.0078346 48.3492951,38.7685186 C48.7577871,38.5292026 49.1674551,38.2925746 49.5592311,38.0559466 C49.7551191,37.9376746 49.9466391,37.8194866 50.1314391,37.7009626 C50.3162391,37.5823546 50.4940671,37.4634946 50.6630751,37.3438786 C50.7475791,37.2840984 50.8299831,37.2240106 50.9096151,37.1638666 C51.1485951,36.9834346 51.3644751,36.8013226 51.5496951,36.6161026 C51.6114301,36.5545458 51.6691431,36.4932946 51.7229031,36.4324786 C51.7766245,36.3716265 51.8264751,36.3111826 51.8725911,36.2511226 C51.9186861,36.1910542 51.9608751,36.1314226 51.9997671,36.0722866 C52.0386306,36.0130801 52.0741407,35.9541826 52.1061951,35.8958866 C52.1382193,35.8376217 52.1667835,35.7799666 52.1922951,35.7226786 C52.2178731,35.6654335 52.2404448,35.6086066 52.2599714,35.5524946 C52.2794964,35.4963474 52.2960091,35.4408586 52.3098741,35.3859226 C52.3237383,35.3309514 52.3350027,35.2764706 52.3435976,35.2227946 C52.3607924,35.1153586 52.3676779,35.0105266 52.3661567,34.9085506 C52.3653402,34.857582 52.3625749,34.8074146 52.3577214,34.7579386 C52.3528679,34.708461 52.3459874,34.6597426 52.3374413,34.6118626 C52.3288892,34.5639541 52.3187597,34.5168586 52.3069073,34.4705746 C52.2950557,34.4243167 52.2815645,34.3788466 52.2668023,34.3343266 C52.2225175,34.2007666 52.1661703,34.0751866 52.1027503,33.9585946 C52.0816117,33.9197152 52.0596037,33.8817598 52.0371253,33.8448586 C51.9921685,33.7711831 51.9449773,33.7016386 51.8970133,33.6366226 C51.8010853,33.5065906 51.7022173,33.3942826 51.6130933,33.3025546 C51.5239693,33.2108266 51.4445893,33.1395106 51.3874693,33.0911266 C51.3308231,33.0431316 51.2969173,33.0183927 51.2963293,33.0179811 L51.2971013,33.0176762 Z M26.9254253,44.4306848 C26.6875373,44.4322363 26.4788813,44.4537798 26.2958453,44.4908422 C26.1737933,44.5155508 26.0629973,44.5470987 25.9627013,44.5842502 C25.7118773,44.6772382 25.5257921,44.8051702 25.3877969,44.9472142 C25.3601995,44.9756222 25.3344233,45.0046123 25.3105505,45.0340702 C25.2866768,45.0634492 25.264652,45.0931155 25.2442409,45.1231942 C25.2238305,45.153215 25.2049431,45.1835247 25.1877299,45.2139142 C24.9467675,45.6385342 25.0065839,46.0775182 25.0065839,46.0775182 C25.0453961,46.0584738 25.0848719,46.0406515 25.1250743,46.0239691 C25.2054774,45.9906093 25.2886979,45.9618662 25.3743611,45.9376171 C25.4600159,45.9133512 25.5481991,45.8935708 25.6386839,45.8779158 C25.6839321,45.870087 25.7297063,45.8631738 25.7760827,45.857408 C25.8688187,45.8458807 25.9639067,45.8384962 26.0609267,45.834849 C26.2548827,45.8275569 26.4568187,45.8356654 26.6652227,45.8569519 C26.7694667,45.8676266 26.8752227,45.8815496 26.9824067,45.898652 C27.0895907,45.9157536 27.1982867,45.9359866 27.3079907,45.9590354 C27.5275667,46.0051371 27.7518467,46.0626914 27.9793187,46.1297234 C28.3204427,46.2301874 28.6683707,46.3520714 29.0178947,46.4886554 C29.1344027,46.5341834 29.2512467,46.5813914 29.3679227,46.6299434 C29.4845147,46.6785164 29.6011067,46.7283074 29.7174467,46.7793794 C30.0664667,46.9327634 30.4130507,47.0968154 30.7519907,47.2644794 C31.4297867,47.5998914 32.0764187,47.9507594 32.6473667,48.2650874 C33.4085747,48.6841634 34.0353827,49.0381394 34.4224547,49.2027794 C34.4403257,49.2211914 34.4617364,49.2401014 34.4864837,49.2597465 C34.5112317,49.2793908 34.5392693,49.2996835 34.5703383,49.320586 C34.632479,49.3623937 34.7068383,49.406854 34.7909223,49.453894 C34.9591743,49.54789 35.1668223,49.65247 35.3963943,49.768558 C35.7407103,49.94269 36.1339983,50.142442 36.5166183,50.371006 C36.7078863,50.48533 36.8964663,50.606794 37.0748823,50.735818 C37.3128543,50.90785 37.5326823,51.09307 37.7168103,51.292738 C37.7628407,51.3426483 37.8068583,51.393454 37.8481023,51.445198 C38.1370623,51.807154 38.3029623,52.213462 38.2507143,52.668574 C38.2358035,52.798606 38.203209,52.93267 38.1504183,53.070766 C38.1240575,53.1398275 38.0925171,53.209702 38.0558343,53.28085 C37.9359663,53.40937 37.8129903,53.525626 37.6887543,53.632894 C37.6266095,53.6865381 37.5642663,53.737978 37.5016863,53.787622 C37.1260383,54.085486 36.7459383,54.319174 36.4076703,54.582682 C36.3512921,54.6266006 36.2961183,54.671302 36.2422743,54.717334 C36.1345863,54.809398 36.0323583,54.906418 35.9373543,55.012006 C35.8898775,55.0648294 35.8442823,55.119862 35.8006023,55.177402 C35.6696463,55.350022 35.5567503,55.545742 35.4678783,55.77649 C35.4389949,55.86637 35.4135177,55.953562 35.3913149,56.037814 C35.2803509,56.459662 35.2522949,56.814646 35.3020229,57.127462 C35.3219023,57.252622 35.3542448,57.370894 35.3986229,57.484042 C35.4208266,57.5406337 35.4460652,57.59593 35.4742749,57.650194 C35.5306919,57.758554 35.5989309,57.86263 35.6788989,57.963766 C35.7987669,58.11547 35.9448429,58.260958 36.1156989,58.405102 C36.2296029,58.501282 36.3545949,58.59679 36.4903389,58.693558 C36.5665194,58.7242449 36.6434709,58.7516029 36.7207509,58.7755891 C36.8752269,58.8235632 37.0314669,58.8583425 37.1885469,58.8808411 C37.4241669,58.9146544 37.6616349,58.9207528 37.8967509,58.902487 C38.0534949,58.8903129 38.2091469,58.867391 38.3626989,58.8343555 C38.4395102,58.8178377 38.5158309,58.798779 38.5914309,58.7773892 C38.8182309,58.7132174 39.0388989,58.6277012 39.2497389,58.5237932 C39.3903549,58.4545209 39.5265189,58.3771292 39.6571389,58.2925412 C39.7224582,58.2502161 39.7863309,58.2059372 39.8487429,58.1601572 C39.9111516,58.1143318 39.9720549,58.0668332 40.0312749,58.0177772 C39.9662883,58.0055014 39.8893149,57.9938548 39.8033829,57.9801788 C39.7175349,57.966507 39.6228669,57.9509031 39.5226549,57.9305037 C39.4725615,57.920307 39.4210149,57.9087477 39.3685989,57.8958688 C39.2637669,57.8701111 39.1549869,57.8383171 39.0457029,57.7979248 C38.9910567,57.7776901 38.9361669,57.7553872 38.8816509,57.730477 C38.7181029,57.6557414 38.5569069,57.558529 38.4093189,57.429673 C38.3601327,57.3867381 38.3127189,57.340297 38.2669389,57.289981 C38.1067509,57.114001 37.9700829,56.891065 37.8745749,56.606809 C37.8609283,56.566206 37.848209,56.5244252 37.8362928,56.481229 C37.7265888,55.842913 37.6239408,55.421149 37.6831608,55.044913 C37.7127708,54.856837 37.7827848,54.680017 37.9126488,54.493285 C38.0100048,54.353257 38.1409608,54.207517 38.3136648,54.047161 C38.3712367,53.9937085 38.4336168,53.938801 38.5007328,53.881765 C38.5816038,53.8124432 38.6673888,53.749801 38.7568488,53.691001 C38.9357688,53.573401 39.1291368,53.471173 39.3265368,53.361721 C39.4745448,53.2796245 39.6246528,53.193385 39.7724928,53.093509 C39.8711088,53.0269575 39.9687168,52.954489 40.0638888,52.872925 C40.1114924,52.8321691 40.1583888,52.789072 40.2046728,52.743481 C40.2509291,52.697922 40.2963168,52.649821 40.3409208,52.598749 C40.4746488,52.445533 40.6001448,52.266025 40.7127888,52.050481 C40.7196491,51.964549 40.7167435,51.877861 40.7052632,51.791425 C40.6995353,51.7482121 40.6917569,51.705157 40.6817936,51.661981 C40.6718304,51.618742 40.659747,51.575377 40.6457895,51.532117 C40.6318338,51.4889209 40.6158797,51.445765 40.5981666,51.402673 C40.5627379,51.316489 40.5200886,51.230725 40.4709906,51.145381 C40.3483506,50.932021 40.1862306,50.722105 39.9990786,50.519917 C39.7745466,50.277241 39.5140626,50.045569 39.2432466,49.832209 C38.6113986,49.334341 37.9230186,48.935929 37.5009186,48.728617 L36.9059466,48.439909 L36.3223986,48.156661 L35.7504426,47.879377 L35.1901626,47.602093 L34.6298826,47.330689 L34.0814466,47.064997 L32.9838186,46.545205 L31.8861906,46.036837 L31.3259106,45.788197 L30.7599186,45.545773 L30.1822506,45.308977 L29.5929906,45.072013 L28.9923066,44.835469 L28.3740666,44.610349 L28.3740666,44.6101155 C28.2590706,44.5843006 28.1480226,44.5616425 28.0406706,44.5417555 C27.6113466,44.4622083 27.2424186,44.4286915 26.9252346,44.4307915 L26.9252346,44.430558 L26.9254253,44.4306848 Z" id="Shape" fill-opacity="0.99216" fill="#969696" fill-rule="nonzero"></path>
                </g>
            </g>
        </g>
    </g>
</svg>