<?xml version="1.0" encoding="UTF-8"?>
<svg width="105px" height="48px" viewBox="0 0 105 48" version="1.1" xmlns="http://www.w3.org/2000/svg" xmlns:xlink="http://www.w3.org/1999/xlink">
    <!-- Generator: Sketch 53.2 (72643) - https://sketchapp.com -->
    <title>Group 16</title>
    <desc>Created with Sketch.</desc>
    <g id="Page-1" stroke="none" stroke-width="1" fill="none" fill-rule="evenodd">
        <g id="03-Navigation-Copy-2" transform="translate(-168.000000, -470.000000)">
            <g id="Group-16" transform="translate(168.000000, 470.000000)">
                <rect id="Rectangle-Copy-40" fill="#FFFFFF" x="0" y="0" width="105" height="48"></rect>
                <g id="VVNT_BIG-3" transform="translate(11.000000, 15.000000)" fill="#4B4B4B">
                    <g id="VVNT_BIG-2">
                        <g id="VVNT_BIG">
                            <path d="M20.1604518,13.6363636 C21.4048151,13.6363636 22.4,14.6061157 22.4,15.8184298 C22.4,17.0302479 21.4048151,18 20.1604518,18 C18.9165981,18 17.9209036,17.0302479 17.9209036,15.8184298 C17.8857435,14.6408383 18.8809284,13.6710862 20.1604518,13.6363636 C20.1252917,13.6363636 20.1252917,13.6363636 20.1604518,13.6363636 Z" id="Path_1_2_" fill-rule="nonzero"></path>
                            <path d="M8.4168917,0 C8.61910945,0 8.78706119,0.0661035622 8.92171215,0.197838518 L16.3289629,6.9890352 C16.6320483,7.25297728 16.8,7.64818215 16.8,8.04385919 L16.8,17.2747495 C16.8,17.6704265 16.4636139,18 16.059661,18 L0.740821603,18 C0.336386096,18 0,17.6704265 0,17.2747495 L0,8.04385919 C0,7.64818215 0.168434358,7.25297728 0.471037058,6.9890352 L7.91207124,0.197838518 C8.04672221,0.0661035622 8.21467394,0 8.4168917,0 Z M3.56849181,8.93436861 L3.56849181,14.5385342 L13.2652916,14.5385342 L13.2652916,8.93436861 L8.4168917,4.48371019 L3.56849181,8.93436861 Z" id="Path_2_2_"></path>
                            <path d="M39.2004646,0 C40.4448208,0 41.44,0.969752085 41.44,2.1820662 C41.44,3.39388428 40.4448208,4.36363636 39.2004646,4.36363636 C37.9561084,4.36363636 36.9609291,3.39388428 36.9609291,2.1820662 C36.9252596,1.00447467 37.9209484,0 39.2004646,0 C39.1647951,0 39.1647951,0 39.2004646,0 Z" id="Path_3_2_" fill-rule="nonzero"></path>
                            <path d="M58.2404518,0 C59.4848151,0 60.48,0.969752085 60.48,2.1820662 C60.48,3.39388428 59.4848151,4.36363636 58.2404518,4.36363636 C56.9965981,4.36363636 56.0009036,3.39388428 56.0009036,2.1820662 C55.9657435,1.00447467 56.9609284,0 58.2404518,0 C58.2052917,0 58.2052917,0 58.2404518,0 Z" id="Path_4_2_" fill-rule="nonzero"></path>
                            <polygon id="Rectangle_1_2_" fill-rule="nonzero" points="37.52 5.45454545 40.88 5.45454545 40.88 18 37.52 18"></polygon>
                            <polygon id="Rectangle_2_2_" fill-rule="nonzero" points="56.56 5.45454545 59.92 5.45454545 59.92 18 56.56 18"></polygon>
                            <path d="M66.2080952,18 L62.72,18 L62.72,5.23837751 L66.2080952,5.23837751 L66.2080952,6.65256691 C67.0057143,5.43528996 68.5004762,4.90909091 69.8290476,4.90909091 C73.0180952,4.90909091 74.48,7.17876596 74.48,9.97464006 L74.48,18 L70.9919048,18 L70.9919048,10.5338149 C70.9919048,9.11915441 70.2942857,8.00127585 68.6,8.00127585 C67.0719048,8.00127585 66.1752381,9.15213018 66.1752381,10.6322711 L66.2080952,18 Z" id="Path_5_2_" fill-rule="nonzero"></path>
                            <polygon id="Path_6_2_" fill-rule="nonzero" points="21.84 5.45454545 27.0601166 18 30.6193975 18 35.84 5.45454545 31.9415549 5.45454545 28.8229932 13.8936676 25.7044315 5.45454545"></polygon>
                            <polygon id="Path_7_2_" fill-rule="nonzero" points="41.44 5.45454545 46.6602978 18 50.2197022 18 55.44 5.45454545 51.5414196 5.45454545 48.4227496 13.8936676 45.3040797 5.45454545"></polygon>
                            <path d="M80.7202726,8.70482217 L80.7202726,13.5460991 C80.7202726,14.6435107 81.3629383,14.9985285 82.3768573,14.9985285 C82.9182279,14.9985285 83.459114,14.9661701 84,14.8371988 L84,17.516011 C83.628262,17.6773407 82.8164483,18 81.3963802,18 C78.8266869,18 77.2379553,16.5475707 77.2379553,14.1271633 L77.2379553,8.70482217 L75.04,8.70482217 L75.04,5.31597451 L77.2379553,5.31597451 L77.2379553,1.63636364 L80.7541992,1.63636364 L80.7541992,5.31597451 L84,5.31597451 L84,8.70482217 L80.7202726,8.70482217 Z" id="Path_8_2_" fill-rule="nonzero"></path>
                        </g>
                    </g>
                </g>
            </g>
        </g>
    </g>
</svg>