<?xml version="1.0" encoding="UTF-8"?>
<svg width="105px" height="48px" viewBox="0 0 105 48" version="1.1" xmlns="http://www.w3.org/2000/svg" xmlns:xlink="http://www.w3.org/1999/xlink">
    <!-- Generator: Sketch 53.2 (72643) - https://sketchapp.com -->
    <title>Group 14 Copy</title>
    <desc>Created with Sketch.</desc>
    <g id="Page-1" stroke="none" stroke-width="1" fill="none" fill-rule="evenodd">
        <g id="03-Navigation-Copy-2" transform="translate(-1140.000000, -989.000000)">
            <g id="Group-14-Copy" transform="translate(1140.000000, 989.000000)">
                <g id="Group-4">
                    <g id="Walmart_logo_(2008)-2" transform="translate(3.000000, 14.000000)" fill-rule="nonzero">
                        <g id="Walmart_logo_(2008)">
                            <path d="M56.9931978,12.2883589 C56.9931978,9.98850196 56.0161072,7.96153846 52.7165082,7.96153846 C51.0215204,7.96153846 49.6761025,8.44038928 48.9411531,8.86775076 L49.4782971,10.7179342 C50.1484482,10.292289 51.2176206,9.93872893 52.2305208,9.93872893 C53.9050459,9.93529631 54.1795862,10.8929979 54.1795862,11.5074373 L54.1795862,11.6533238 C50.5287121,11.6464586 48.2232558,12.9182451 48.2232558,15.509875 C48.2232558,17.0923139 49.3981518,18.5769231 51.4410043,18.5769231 C52.6960456,18.5769231 53.7481658,18.0723276 54.3756864,17.263945 L54.4387795,17.263945 C54.4387795,17.263945 54.854853,19.0197314 57.1534884,18.3486537 C57.0324178,17.6175051 56.9931978,16.8382999 56.9931978,15.901194 L56.9931978,12.2883589 Z M54.2665524,14.7203719 C54.2665524,14.9074498 54.2512054,15.0996766 54.1983436,15.2713078 C53.9868965,15.973279 53.2621783,16.568839 52.3584122,16.568839 C51.6030001,16.568839 51.0044682,16.1380449 51.0044682,15.2249674 C51.0044682,13.8313227 52.5306393,13.4451527 54.2665524,13.4537342 L54.2665524,14.7203719 Z" id="Shape" fill="#969696"></path>
                            <path d="M0,4.86538462 C0,4.86538462 2.39283536,14.7384775 2.77623674,16.3423598 C3.22125619,18.2132687 4.02571443,18.9006468 6.34152719,18.4372265 L7.83576559,12.3162879 C8.21574373,10.7950977 8.4690625,9.71148656 8.71211158,8.16617784 L8.75490192,8.16617784 C8.92777486,9.72699133 9.17082394,10.800266 9.48233756,12.3214561 C9.48233756,12.3214561 10.0899603,15.1002555 10.4014739,16.5594266 C10.7129875,18.0185977 11.5841987,18.9385474 13.8520863,18.4372265 L17.4139535,4.86710737 L14.5384432,4.86710737 L13.3231978,10.7348014 C12.9962796,12.4420488 12.7001705,13.7789045 12.4708143,15.339718 L12.4297356,15.339718 C12.2226304,13.7944093 11.9573304,12.5109589 11.6252774,10.848503 L10.3586836,4.86883012 L7.36336032,4.86883012 L6.00947422,10.6986236 C5.62607284,12.4713356 5.26663406,13.8994972 5.03898949,15.4103508 L4.99791077,15.4103508 C4.76341975,13.9890803 4.45190614,12.1922497 4.11471832,10.4763885 C4.11471832,10.4763885 3.31026008,6.30905096 3.02784389,4.87055287" id="Path" fill="#969696"></path>
                            <path d="M25.2908416,12.2883589 C25.2908416,9.98850196 24.3135644,7.96153846 21.0133352,7.96153846 C19.3180237,7.96153846 17.9723489,8.44038928 17.2389646,8.86775076 L17.7762112,10.7179342 C18.4464903,10.292289 19.5158669,9.93872893 20.5289605,9.93872893 C22.205511,9.93529631 22.4783982,10.8929979 22.4783982,11.5074373 L22.4783982,11.6533238 C18.8268268,11.6464586 16.5209302,12.9182451 16.5209302,15.509875 C16.5209302,17.0923139 17.6960506,18.5769231 19.7375877,18.5769231 C20.9945742,18.5769231 22.0451898,18.0723276 22.6745359,17.263945 L22.7359355,17.263945 C22.7359355,17.263945 23.1537939,19.0197314 25.4511628,18.3486537 C25.3300691,17.6175051 25.2908416,16.8382999 25.2908416,15.901194 L25.2908416,12.2883589 Z M22.565381,14.7203719 C22.565381,14.9074498 22.5483255,15.0996766 22.4971592,15.2713078 C22.2856716,15.973279 21.5625207,16.568839 20.6568764,16.568839 C19.90132,16.568839 19.3026738,16.1380449 19.3026738,15.2249674 C19.3026738,13.8313227 20.8291364,13.4451527 22.565381,13.4537342 L22.565381,14.7203719 Z" id="Shape" fill="#969696"></path>
                            <polyline id="Path" fill="#969696" points="29.9162791 15.3163568 29.9162791 4.86538462 27.2372093 4.86538462 27.2372093 18.1346154 29.9162791 18.1346154"></polyline>
                            <path d="M65.6372093,4.86538462 L65.6372093,14.8126693 C65.6372093,16.1838231 65.8870092,17.1458561 66.419695,17.7312926 C66.8845543,18.2448334 67.6521513,18.5769231 68.5735985,18.5769231 C69.3560842,18.5769231 70.1253354,18.4228608 70.4892823,18.2842048 L70.4545419,16.1461634 C70.1848904,16.2146356 69.8738813,16.2677014 69.4487252,16.2677014 C68.5471296,16.2677014 68.2460464,15.6702823 68.2460464,14.4394963 L68.2460464,10.6324474 L70.5488372,10.6324474 L70.5488372,8.05447277 L68.2460464,8.05447277 L68.2460464,4.86538462" id="Path" fill="#969696"></path>
                            <path d="M58.9395349,8.18846599 L58.9395349,18.1346154 L61.70206,18.1346154 L61.70206,13.0413531 C61.70206,12.7673592 61.7188025,12.528665 61.7623332,12.3084613 C61.9665927,11.2410614 62.7802819,10.5585979 63.9455652,10.5585979 C64.2670226,10.5585979 64.4963959,10.5938978 64.744186,10.6291976 L64.744186,8.02373341 C64.5349038,7.9817098 64.3925919,7.96153846 64.133082,7.96153846 C63.1017393,7.96153846 61.9314332,8.63055443 61.4375273,10.0627193 L61.3605114,10.0627193 L61.3605114,8.18846599" id="Path" fill="#969696"></path>
                            <path d="M31.7023256,8.18682227 L31.7023256,18.1346154 L34.4663296,18.1346154 L34.4663296,12.3007736 C34.4663296,12.0267343 34.4989889,11.737564 34.5969666,11.4853807 C34.8255814,10.8969528 35.3842265,10.2110141 36.2763397,10.2110141 C37.3901921,10.2110141 37.9127401,11.1340052 37.9127401,12.4638521 L37.9127401,18.1346154 L40.6733064,18.1346154 L40.6733064,12.2301622 C40.6733064,11.9695727 40.7111223,11.6551841 40.7884732,11.4231754 C41.0153691,10.7557301 41.6169869,10.2110141 42.4472194,10.2110141 C43.5782609,10.2110141 44.1214358,11.117193 44.1214358,12.682411 L44.1214358,18.1346154 L46.8837209,18.1346154 L46.8837209,12.2755552 C46.8837209,9.18546839 45.2799798,7.96153846 43.4682508,7.96153846 C42.6655207,7.96153846 42.0329626,8.15824149 41.4605662,8.50121086 C40.979272,8.79038112 40.5478261,9.20228061 40.1731041,9.74195301 L40.1318504,9.74195301 C39.6952477,8.6693331 38.6673407,7.96153846 37.3283114,7.96153846 C35.6076845,7.96153846 34.8341759,8.81559946 34.3649141,9.5385251 L34.3236603,9.5385251 L34.3236603,8.18682227" id="Path" fill="#969696"></path>
                            <path d="M85.5061343,7.96153846 C86.0419482,7.96153846 86.4817201,7.67240799 86.5406933,7.29967353 L87.0697674,1.11297814 C87.0697674,0.50162395 86.3789381,0 85.5061343,0 C84.6350154,0 83.944186,0.50162395 83.944186,1.11297814 L84.4732602,7.29967353 C84.5305485,7.67240799 84.9720053,7.96153846 85.5061343,7.96153846" id="Path" fill="#FDBB30"></path>
                            <path d="M82.4151043,9.57452183 C82.6831474,9.11871189 82.6629177,8.60135097 82.3797024,8.373446 L77.458837,4.96817977 C76.948038,4.67539674 76.1793108,5.02806721 75.7443731,5.77166956 C75.3094353,6.51693544 75.3852966,7.34704187 75.8960955,7.63816136 L81.3429322,10.1401254 C81.6851507,10.2648909 82.1470613,10.0270047 82.4167901,9.56786767" id="Path" fill="#FDBB30"></path>
                            <path d="M89.0424142,9.56789227 C89.3104578,10.0270106 89.7740552,10.2648872 90.1129028,10.1401267 L95.5631224,7.63826437 C96.0756082,7.34549324 96.1514696,6.51542054 95.7148452,5.77184841 C95.2799065,5.02661281 94.5094919,4.67562015 94.0003777,4.96839128 L89.079502,8.37351913 C88.797972,8.60141484 88.7777423,9.11875474 89.0441001,9.57454616" id="Path" fill="#FDBB30"></path>
                            <path d="M85.5061343,15.0384615 C86.0419482,15.0384615 86.4817201,15.3242961 86.5406933,15.6955325 L87.0697674,21.884548 C87.0697674,22.4980466 86.3789381,23 85.5061343,23 C84.6350154,23 83.944186,22.4980466 83.944186,21.884548 L84.4732602,15.6955325 C84.5305485,15.3242961 84.9720053,15.0384615 85.5061343,15.0384615" id="Path" fill="#FDBB30"></path>
                            <path d="M89.0424142,13.4319427 C89.3104578,12.9729495 89.7740552,12.7351379 90.1129028,12.8598643 L95.5631224,15.3593814 C96.0756082,15.6537357 96.1514696,16.483582 95.7148452,17.2286144 C95.2799065,17.9719838 94.5094919,18.3245437 94.0003777,18.0318524 L89.079502,14.6309792 C88.797972,14.4014826 88.7777423,13.8859468 89.0441001,13.4286167" id="Path" fill="#FDBB30"></path>
                            <path d="M82.4151043,13.4282594 C82.6831474,13.8872134 82.6629177,14.4010423 82.3797024,14.6305192 L77.458837,18.0327649 C76.948038,18.3237683 76.1793108,17.9712384 75.7443731,17.2295955 C75.3094353,16.4846267 75.3852966,15.6531884 75.8960955,15.3588592 L81.3429322,12.8612185 C81.6851507,12.733177 82.1470613,12.9726312 82.4167901,13.4299223" id="Path" fill="#FDBB30"></path>
                        </g>
                    </g>
                </g>
            </g>
        </g>
    </g>
</svg>