<?xml version="1.0" encoding="UTF-8"?>
<svg width="105px" height="48px" viewBox="0 0 105 48" version="1.1" xmlns="http://www.w3.org/2000/svg" xmlns:xlink="http://www.w3.org/1999/xlink">
    <!-- Generator: Sketch 53.2 (72643) - https://sketchapp.com -->
    <title>Group 52</title>
    <desc>Created with Sketch.</desc>
    <g id="Page-1" stroke="none" stroke-width="1" fill="none" fill-rule="evenodd">
        <g id="03-Navigation-Copy-2" transform="translate(-1296.000000, -513.000000)">
            <g id="Group-52" transform="translate(1296.000000, 513.000000)">
                <g id="Xfinity_logo_2021" transform="translate(16.000000, 11.500000)" fill="#969696" fill-rule="nonzero">
                    <path d="M8.391452,11.9820668 L13.122494,5.31210917 L9.6533,5.31210917 L6.727636,9.56491275 L3.804414,5.31210917 L0.331594,5.31210917 L5.058862,11.9820668 L0,19.1298255 L3.471562,19.1298255 L6.727562,14.3967956 L13.492272,24 L16.822568,24 L8.391452,11.9820668 Z M74,5.31210917 L70.734232,5.31210917 L65.880202,14.1161123 L62.559378,5.31210917 L59.422074,5.31210917 L64.085628,17.3595144 L60.47761,23.9999265 L63.672708,23.9999265 L74,5.31210917 Z M16.091078,5.31210917 L14.663026,5.31210917 L13.00883,7.66135246 L16.091078,7.66135246 L16.091078,19.129752 L19.117382,19.129752 L19.117382,7.66135246 L22.204662,7.66135246 L22.204662,5.31210917 L19.117382,5.31210917 L19.117382,3.9746192 C19.117382,2.96389483 19.542364,2.55253471 20.569484,2.55253471 C21.159708,2.55253471 21.771392,2.66785078 22.204662,2.78448978 L22.204662,0.3649838 C21.584616,0.143832722 20.723922,0 19.79019,0 C17.472732,0 16.0913,1.50631152 16.0913,4.01849663 L16.091078,5.31210917 Z M52.518244,7.66142596 L52.518244,15.3846625 C52.518244,17.9053732 53.897382,19.3986758 56.210178,19.3986758 C56.977632,19.3986758 57.740276,19.3070992 58.316958,19.1298255 L58.682222,16.731854 C58.508692,16.774629 57.875548,16.9256644 57.315146,16.9256644 C56.05574,16.9256644 55.537592,16.423977 55.537592,15.1791662 L55.537592,7.66142596 L59.016258,7.66142596 L58.112422,5.31218266 L55.537592,5.31218266 L55.537592,0.322208816 L52.518244,1.84762943 L52.518244,5.31218266 L50.31556,5.31218266 L50.31556,7.66142596 L52.518244,7.66142596 Z M36.964702,5.03627667 C35.541386,5.03627667 34.183782,5.6296142 33.479894,6.55934539 L33.479894,5.31218266 L30.453738,5.31218266 L30.453738,19.1298255 L33.479968,19.1298255 L33.479968,11.0653445 C33.479968,8.8253906 34.4544,7.58770893 36.228624,7.58770893 C38.154548,7.58770893 38.977058,8.70772265 38.977058,11.3268452 L38.977058,19.1298255 L41.996184,19.1298255 L41.996184,11.2223331 C41.996036,7.17289448 40.261624,5.03627667 36.964702,5.03627667 Z M27.220456,18.3536286 L27.220456,5.31210917 L24.194152,5.31210917 L24.194152,19.1298255 L27.220456,19.1298255 L27.220456,18.3536286 Z M48.129896,18.3536286 L48.129896,5.31210917 L45.09042,5.31210917 L45.09042,19.1298255 L48.129822,19.1298255 L48.129822,18.3536286 L48.129896,18.3536286 Z" id="Shape"></path>
                </g>
            </g>
        </g>
    </g>
</svg>